<svg width="224" height="183" viewBox="0 0 224 183" fill="none" xmlns="http://www.w3.org/2000/svg">
<path d="M99.1429 0.54818C124.135 0.410005 148.253 8.89758 166.669 24.3121C185.085 39.7265 196.441 60.9305 198.463 83.6798C200.485 106.429 193.024 129.045 177.574 147.001C162.123 164.957 139.824 176.928 115.138 180.519L99.6435 91.096L99.1429 0.54818Z" fill="#0C2626"/>
<path d="M113.825 180.432C93.7032 183.618 73.0552 180.307 55.0803 171.013C37.1054 161.718 22.8075 146.959 14.4022 129.022L98.8292 92.1402L113.825 180.432Z" fill="#019267"/>
<path d="M13.3817 127.978C7.00629 114.354 4.26852 99.4044 5.41851 84.4953C6.56851 69.5863 11.5696 55.1931 19.9648 42.6308C28.3601 30.0686 39.8819 19.7378 53.4775 12.5823C67.0731 5.42679 82.309 1.67475 97.7933 1.66895L97.8292 91.1402L13.3817 127.978Z" fill="#65C18C"/>
<path d="M110.048 89.3392V89.9924H106.84V89.3392H110.048ZM107.003 83.9345V89.9924H106.2V83.9345H107.003ZM109.624 86.5391V87.1923H106.84V86.5391H109.624ZM110.007 83.9345V84.5919H106.84V83.9345H110.007ZM114.271 88.4613C114.271 88.3198 114.249 88.195 114.205 88.0868C114.163 87.9759 114.088 87.876 113.98 87.7873C113.875 87.6985 113.728 87.6139 113.539 87.5335C113.353 87.453 113.118 87.3712 112.832 87.288C112.532 87.1992 112.262 87.1008 112.021 86.9926C111.779 86.8816 111.573 86.7554 111.401 86.614C111.229 86.4725 111.097 86.3102 111.005 86.1272C110.914 85.9441 110.868 85.7347 110.868 85.4989C110.868 85.2631 110.917 85.0454 111.014 84.8457C111.111 84.646 111.249 84.4726 111.43 84.3256C111.613 84.1758 111.831 84.0593 112.083 83.9761C112.335 83.8929 112.617 83.8513 112.928 83.8513C113.382 83.8513 113.768 83.9386 114.084 84.1134C114.403 84.2854 114.646 84.5114 114.812 84.7916C114.979 85.069 115.062 85.3658 115.062 85.682H114.263C114.263 85.4545 114.215 85.2534 114.118 85.0787C114.02 84.9011 113.873 84.7625 113.676 84.6626C113.48 84.56 113.23 84.5087 112.928 84.5087C112.642 84.5087 112.406 84.5516 112.22 84.6376C112.034 84.7236 111.896 84.8401 111.804 84.9871C111.715 85.1341 111.671 85.302 111.671 85.4906C111.671 85.6182 111.697 85.7347 111.75 85.8401C111.806 85.9427 111.89 86.0384 112.004 86.1272C112.12 86.2159 112.267 86.2977 112.445 86.3726C112.625 86.4475 112.84 86.5197 113.09 86.589C113.434 86.6861 113.731 86.7943 113.98 86.9135C114.23 87.0328 114.435 87.1673 114.596 87.3171C114.76 87.4641 114.88 87.6319 114.958 87.8206C115.038 88.0064 115.079 88.2172 115.079 88.453C115.079 88.6998 115.029 88.9231 114.929 89.1228C114.829 89.3226 114.686 89.4932 114.5 89.6346C114.314 89.7761 114.091 89.8856 113.83 89.9633C113.572 90.0382 113.284 90.0756 112.965 90.0756C112.685 90.0756 112.409 90.0368 112.137 89.9591C111.868 89.8815 111.622 89.765 111.401 89.6096C111.181 89.4543 111.005 89.2629 110.872 89.0355C110.742 88.8053 110.677 88.539 110.677 88.2366H111.475C111.475 88.4447 111.516 88.6236 111.596 88.7734C111.677 88.9204 111.786 89.0424 111.925 89.1395C112.066 89.2366 112.226 89.3087 112.403 89.3558C112.584 89.4002 112.771 89.4224 112.965 89.4224C113.245 89.4224 113.482 89.3836 113.676 89.3059C113.871 89.2283 114.018 89.1173 114.118 88.9731C114.22 88.8288 114.271 88.6582 114.271 88.4613ZM120.579 86.9759V89.1936C120.504 89.3045 120.385 89.4294 120.221 89.568C120.058 89.704 119.832 89.8232 119.543 89.9259C119.257 90.0257 118.888 90.0756 118.436 90.0756C118.067 90.0756 117.728 90.0118 117.417 89.8843C117.109 89.7539 116.841 89.5653 116.614 89.3184C116.389 89.0688 116.214 88.7664 116.09 88.4114C115.968 88.0536 115.907 87.6486 115.907 87.1965V86.7263C115.907 86.2742 115.959 85.8706 116.065 85.5155C116.173 85.1605 116.331 84.8595 116.539 84.6127C116.747 84.363 117.002 84.1744 117.305 84.0468C117.607 83.9165 117.954 83.8513 118.345 83.8513C118.808 83.8513 119.195 83.9317 119.506 84.0926C119.819 84.2507 120.063 84.4698 120.238 84.75C120.415 85.0301 120.529 85.3491 120.579 85.7069H119.776C119.74 85.4878 119.668 85.2881 119.56 85.1078C119.454 84.9275 119.303 84.7833 119.106 84.6751C118.909 84.5641 118.655 84.5087 118.345 84.5087C118.065 84.5087 117.822 84.56 117.617 84.6626C117.411 84.7652 117.242 84.9122 117.109 85.1036C116.976 85.295 116.876 85.5266 116.809 85.7985C116.746 86.0703 116.714 86.3768 116.714 86.718V87.1965C116.714 87.546 116.754 87.858 116.834 88.1326C116.918 88.4072 117.036 88.6416 117.188 88.8358C117.341 89.0272 117.522 89.1728 117.733 89.2726C117.947 89.3725 118.182 89.4224 118.44 89.4224C118.726 89.4224 118.958 89.3988 119.135 89.3517C119.313 89.3018 119.452 89.2435 119.551 89.1769C119.651 89.1076 119.727 89.0424 119.78 88.9814V87.625H118.378V86.9759H120.579ZM124.024 83.9345H126.03C126.484 83.9345 126.869 84.0038 127.182 84.1425C127.498 84.2812 127.738 84.4865 127.902 84.7583C128.068 85.0274 128.151 85.3588 128.151 85.7527C128.151 86.0301 128.095 86.2839 127.981 86.5141C127.87 86.7416 127.709 86.9357 127.498 87.0966C127.29 87.2547 127.041 87.3726 126.749 87.4503L126.525 87.5376H124.64L124.632 86.8844H126.054C126.343 86.8844 126.583 86.8345 126.774 86.7346C126.966 86.632 127.11 86.4947 127.207 86.3227C127.304 86.1507 127.353 85.9607 127.353 85.7527C127.353 85.5197 127.307 85.3158 127.215 85.1411C127.124 84.9663 126.98 84.8318 126.783 84.7375C126.588 84.6404 126.337 84.5919 126.03 84.5919H124.827V89.9924H124.024V83.9345ZM127.565 89.9924L126.092 87.2464L126.928 87.2422L128.422 89.9425V89.9924H127.565ZM131.813 89.2227V86.9052C131.813 86.7277 131.777 86.5737 131.705 86.4434C131.635 86.3102 131.53 86.2076 131.388 86.1355C131.247 86.0634 131.072 86.0273 130.864 86.0273C130.67 86.0273 130.499 86.0606 130.352 86.1272C130.208 86.1937 130.095 86.2811 130.011 86.3893C129.931 86.4975 129.891 86.614 129.891 86.7388H129.121C129.121 86.5779 129.163 86.4184 129.246 86.2603C129.329 86.1022 129.448 85.9593 129.604 85.8318C129.762 85.7014 129.95 85.5988 130.169 85.5239C130.391 85.4462 130.638 85.4074 130.91 85.4074C131.237 85.4074 131.526 85.4628 131.775 85.5738C132.028 85.6847 132.225 85.8526 132.366 86.0772C132.51 86.2991 132.583 86.5779 132.583 86.9135V89.0105C132.583 89.1603 132.595 89.3198 132.62 89.489C132.648 89.6582 132.688 89.8038 132.741 89.9259V89.9924H131.938C131.899 89.9037 131.868 89.7858 131.846 89.6388C131.824 89.489 131.813 89.3503 131.813 89.2227ZM131.946 87.263L131.954 87.8039H131.176C130.957 87.8039 130.762 87.8219 130.59 87.858C130.418 87.8913 130.273 87.9426 130.157 88.0119C130.04 88.0813 129.952 88.1687 129.891 88.2741C129.83 88.3767 129.799 88.4974 129.799 88.6361C129.799 88.7775 129.831 88.9065 129.895 89.023C129.959 89.1395 130.054 89.2324 130.182 89.3018C130.312 89.3683 130.472 89.4016 130.66 89.4016C130.896 89.4016 131.104 89.3517 131.284 89.2518C131.465 89.152 131.608 89.0299 131.713 88.8857C131.821 88.7415 131.879 88.6014 131.888 88.4655L132.216 88.8358C132.197 88.9523 132.144 89.0812 132.058 89.2227C131.972 89.3642 131.857 89.5001 131.713 89.6305C131.572 89.758 131.402 89.8648 131.205 89.9508C131.011 90.034 130.792 90.0756 130.548 90.0756C130.243 90.0756 129.975 90.016 129.745 89.8967C129.518 89.7775 129.34 89.618 129.212 89.4183C129.088 89.2158 129.025 88.9897 129.025 88.7401C129.025 88.4987 129.072 88.2866 129.167 88.1035C129.261 87.9176 129.397 87.7637 129.574 87.6416C129.752 87.5168 129.966 87.4225 130.215 87.3587C130.465 87.2949 130.744 87.263 131.051 87.263H131.946ZM135.678 85.4906V86.0814H133.244V85.4906H135.678ZM134.068 84.3963H134.838V88.8774C134.838 89.0299 134.861 89.145 134.908 89.2227C134.956 89.3004 135.017 89.3517 135.091 89.3767C135.166 89.4016 135.247 89.4141 135.333 89.4141C135.397 89.4141 135.463 89.4085 135.533 89.3975C135.605 89.3836 135.659 89.3725 135.695 89.3642L135.699 89.9924C135.638 90.0118 135.557 90.0299 135.458 90.0465C135.361 90.0659 135.243 90.0756 135.104 90.0756C134.915 90.0756 134.742 90.0382 134.584 89.9633C134.426 89.8884 134.3 89.7636 134.205 89.5888C134.114 89.4113 134.068 89.1728 134.068 88.8732V84.3963ZM137.417 85.4906V89.9924H136.643V85.4906H137.417ZM136.585 84.2965C136.585 84.1716 136.623 84.0662 136.698 83.9802C136.775 83.8943 136.889 83.8513 137.039 83.8513C137.186 83.8513 137.298 83.8943 137.376 83.9802C137.456 84.0662 137.496 84.1716 137.496 84.2965C137.496 84.4157 137.456 84.5184 137.376 84.6044C137.298 84.6876 137.186 84.7292 137.039 84.7292C136.889 84.7292 136.775 84.6876 136.698 84.6044C136.623 84.5184 136.585 84.4157 136.585 84.2965ZM138.449 87.7914V87.6957C138.449 87.3712 138.496 87.0702 138.591 86.7929C138.685 86.5127 138.821 86.27 138.998 86.0648C139.176 85.8567 139.391 85.6958 139.643 85.5821C139.896 85.4656 140.179 85.4074 140.492 85.4074C140.808 85.4074 141.093 85.4656 141.345 85.5821C141.6 85.6958 141.817 85.8567 141.994 86.0648C142.174 86.27 142.312 86.5127 142.406 86.7929C142.5 87.0702 142.547 87.3712 142.547 87.6957V87.7914C142.547 88.116 142.5 88.4169 142.406 88.6943C142.312 88.9717 142.174 89.2144 141.994 89.4224C141.817 89.6277 141.602 89.7886 141.349 89.9051C141.1 90.0188 140.817 90.0756 140.5 90.0756C140.184 90.0756 139.9 90.0188 139.647 89.9051C139.395 89.7886 139.179 89.6277 138.998 89.4224C138.821 89.2144 138.685 88.9717 138.591 88.6943C138.496 88.4169 138.449 88.116 138.449 87.7914ZM139.219 87.6957V87.7914C139.219 88.0161 139.245 88.2283 139.298 88.428C139.351 88.625 139.43 88.7997 139.535 88.9523C139.643 89.1048 139.778 89.2255 139.939 89.3142C140.1 89.4002 140.287 89.4432 140.5 89.4432C140.711 89.4432 140.896 89.4002 141.054 89.3142C141.215 89.2255 141.348 89.1048 141.453 88.9523C141.559 88.7997 141.638 88.625 141.69 88.428C141.746 88.2283 141.774 88.0161 141.774 87.7914V87.6957C141.774 87.4738 141.746 87.2644 141.69 87.0675C141.638 86.8678 141.557 86.6916 141.449 86.5391C141.344 86.3837 141.21 86.2617 141.05 86.1729C140.891 86.0842 140.706 86.0398 140.492 86.0398C140.281 86.0398 140.095 86.0842 139.935 86.1729C139.776 86.2617 139.643 86.3837 139.535 86.5391C139.43 86.6916 139.351 86.8678 139.298 87.0675C139.245 87.2644 139.219 87.4738 139.219 87.6957ZM149.591 89.3392V89.9924H146.384V89.3392H149.591ZM146.546 83.9345V89.9924H145.743V83.9345H146.546ZM149.167 86.5391V87.1923H146.384V86.5391H149.167ZM149.55 83.9345V84.5919H146.384V83.9345H149.55ZM151.239 86.4517V89.9924H150.469V85.4906H151.197L151.239 86.4517ZM151.056 87.5709L150.736 87.5584C150.738 87.2505 150.784 86.9662 150.873 86.7055C150.962 86.442 151.087 86.2131 151.247 86.019C151.408 85.8248 151.6 85.675 151.822 85.5696C152.046 85.4615 152.295 85.4074 152.566 85.4074C152.788 85.4074 152.988 85.4379 153.165 85.4989C153.343 85.5571 153.494 85.6515 153.619 85.7818C153.747 85.9122 153.844 86.0814 153.91 86.2894C153.977 86.4947 154.01 86.7457 154.01 87.0425V89.9924H153.236V87.0342C153.236 86.7984 153.202 86.6098 153.132 86.4683C153.063 86.3241 152.962 86.2201 152.828 86.1563C152.695 86.0897 152.532 86.0564 152.338 86.0564C152.146 86.0564 151.971 86.0966 151.813 86.1771C151.658 86.2575 151.523 86.3685 151.41 86.5099C151.299 86.6514 151.211 86.8137 151.148 86.9967C151.087 87.177 151.056 87.3684 151.056 87.5709ZM156.548 89.2976L157.78 85.4906H158.566L156.948 89.9924H156.432L156.548 89.2976ZM155.52 85.4906L156.789 89.3184L156.877 89.9924H156.361L154.73 85.4906H155.52ZM160.143 85.4906V89.9924H159.369V85.4906H160.143ZM159.311 84.2965C159.311 84.1716 159.348 84.0662 159.423 83.9802C159.501 83.8943 159.615 83.8513 159.764 83.8513C159.911 83.8513 160.024 83.8943 160.101 83.9802C160.182 84.0662 160.222 84.1716 160.222 84.2965C160.222 84.4157 160.182 84.5184 160.101 84.6044C160.024 84.6876 159.911 84.7292 159.764 84.7292C159.615 84.7292 159.501 84.6876 159.423 84.6044C159.348 84.5184 159.311 84.4157 159.311 84.2965ZM162.148 86.1979V89.9924H161.379V85.4906H162.128L162.148 86.1979ZM163.555 85.4656L163.551 86.1812C163.487 86.1674 163.426 86.1591 163.367 86.1563C163.312 86.1507 163.248 86.148 163.176 86.148C162.999 86.148 162.842 86.1757 162.706 86.2312C162.57 86.2867 162.455 86.3643 162.361 86.4642C162.266 86.564 162.191 86.6833 162.136 86.822C162.083 86.9579 162.049 87.1077 162.032 87.2713L161.816 87.3962C161.816 87.1243 161.842 86.8691 161.895 86.6306C161.95 86.3921 162.035 86.1812 162.148 85.9982C162.262 85.8123 162.406 85.6681 162.581 85.5655C162.759 85.4601 162.969 85.4074 163.214 85.4074C163.269 85.4074 163.333 85.4143 163.405 85.4282C163.477 85.4393 163.527 85.4517 163.555 85.4656ZM163.979 87.7914V87.6957C163.979 87.3712 164.026 87.0702 164.121 86.7929C164.215 86.5127 164.351 86.27 164.528 86.0648C164.706 85.8567 164.921 85.6958 165.173 85.5821C165.426 85.4656 165.709 85.4074 166.022 85.4074C166.338 85.4074 166.623 85.4656 166.875 85.5821C167.13 85.6958 167.346 85.8567 167.524 86.0648C167.704 86.27 167.842 86.5127 167.936 86.7929C168.03 87.0702 168.077 87.3712 168.077 87.6957V87.7914C168.077 88.116 168.03 88.4169 167.936 88.6943C167.842 88.9717 167.704 89.2144 167.524 89.4224C167.346 89.6277 167.132 89.7886 166.879 89.9051C166.629 90.0188 166.347 90.0756 166.03 90.0756C165.714 90.0756 165.43 90.0188 165.177 89.9051C164.925 89.7886 164.709 89.6277 164.528 89.4224C164.351 89.2144 164.215 88.9717 164.121 88.6943C164.026 88.4169 163.979 88.116 163.979 87.7914ZM164.749 87.6957V87.7914C164.749 88.0161 164.775 88.2283 164.828 88.428C164.881 88.625 164.96 88.7997 165.065 88.9523C165.173 89.1048 165.308 89.2255 165.469 89.3142C165.629 89.4002 165.817 89.4432 166.03 89.4432C166.241 89.4432 166.426 89.4002 166.584 89.3142C166.745 89.2255 166.878 89.1048 166.983 88.9523C167.089 88.7997 167.168 88.625 167.22 88.428C167.276 88.2283 167.303 88.0161 167.303 87.7914V87.6957C167.303 87.4738 167.276 87.2644 167.22 87.0675C167.168 86.8678 167.087 86.6916 166.979 86.5391C166.874 86.3837 166.74 86.2617 166.58 86.1729C166.421 86.0842 166.236 86.0398 166.022 86.0398C165.811 86.0398 165.625 86.0842 165.464 86.1729C165.306 86.2617 165.173 86.3837 165.065 86.5391C164.96 86.6916 164.881 86.8678 164.828 87.0675C164.775 87.2644 164.749 87.4738 164.749 87.6957ZM169.812 86.4517V89.9924H169.043V85.4906H169.771L169.812 86.4517ZM169.629 87.5709L169.309 87.5584C169.312 87.2505 169.357 86.9662 169.446 86.7055C169.535 86.442 169.66 86.2131 169.821 86.019C169.982 85.8248 170.173 85.675 170.395 85.5696C170.62 85.4615 170.868 85.4074 171.14 85.4074C171.362 85.4074 171.561 85.4379 171.739 85.4989C171.916 85.5571 172.067 85.6515 172.192 85.7818C172.32 85.9122 172.417 86.0814 172.484 86.2894C172.55 86.4947 172.583 86.7457 172.583 87.0425V89.9924H171.809V87.0342C171.809 86.7984 171.775 86.6098 171.705 86.4683C171.636 86.3241 171.535 86.2201 171.402 86.1563C171.269 86.0897 171.105 86.0564 170.911 86.0564C170.719 86.0564 170.545 86.0966 170.387 86.1771C170.231 86.2575 170.097 86.3685 169.983 86.5099C169.872 86.6514 169.785 86.8137 169.721 86.9967C169.66 87.177 169.629 87.3684 169.629 87.5709ZM174.518 86.3851V89.9924H173.744V85.4906H174.476L174.518 86.3851ZM174.36 87.5709L174.002 87.5584C174.005 87.2505 174.045 86.9662 174.123 86.7055C174.2 86.442 174.316 86.2131 174.468 86.019C174.621 85.8248 174.811 85.675 175.038 85.5696C175.266 85.4615 175.529 85.4074 175.829 85.4074C176.04 85.4074 176.234 85.4379 176.411 85.4989C176.589 85.5571 176.743 85.6501 176.873 85.7777C177.003 85.9053 177.105 86.0689 177.177 86.2686C177.249 86.4683 177.285 86.7097 177.285 86.9926V89.9924H176.515V87.03C176.515 86.7943 176.475 86.6056 176.395 86.4642C176.317 86.3227 176.206 86.2201 176.062 86.1563C175.917 86.0897 175.748 86.0564 175.554 86.0564C175.327 86.0564 175.137 86.0966 174.984 86.1771C174.832 86.2575 174.709 86.3685 174.618 86.5099C174.526 86.6514 174.46 86.8137 174.418 86.9967C174.379 87.177 174.36 87.3684 174.36 87.5709ZM177.277 87.1465L176.761 87.3046C176.763 87.0578 176.804 86.8206 176.881 86.5932C176.962 86.3657 177.077 86.1632 177.227 85.9857C177.379 85.8082 177.566 85.6681 177.788 85.5655C178.01 85.4601 178.264 85.4074 178.55 85.4074C178.791 85.4074 179.005 85.4393 179.191 85.5031C179.379 85.5669 179.537 85.6653 179.665 85.7985C179.795 85.9288 179.894 86.0966 179.96 86.3019C180.027 86.5072 180.06 86.7513 180.06 87.0342V89.9924H179.286V87.0259C179.286 86.7735 179.246 86.5779 179.166 86.4392C179.088 86.2977 178.977 86.1993 178.833 86.1438C178.691 86.0856 178.522 86.0564 178.325 86.0564C178.156 86.0564 178.006 86.0856 177.876 86.1438C177.745 86.2021 177.636 86.2825 177.547 86.3851C177.458 86.485 177.39 86.6001 177.343 86.7305C177.299 86.8608 177.277 86.9995 177.277 87.1465ZM183.093 90.0756C182.78 90.0756 182.496 90.0229 182.24 89.9175C181.988 89.8094 181.77 89.6582 181.587 89.464C181.407 89.2699 181.268 89.0396 181.171 88.7734C181.074 88.5071 181.025 88.2158 181.025 87.8996V87.7249C181.025 87.3587 181.079 87.0328 181.188 86.7471C181.296 86.4586 181.443 86.2145 181.629 86.0148C181.815 85.8151 182.025 85.6639 182.261 85.5613C182.497 85.4587 182.741 85.4074 182.993 85.4074C183.315 85.4074 183.593 85.4628 183.826 85.5738C184.061 85.6847 184.254 85.8401 184.404 86.0398C184.554 86.2367 184.665 86.4697 184.737 86.7388C184.809 87.0051 184.845 87.2963 184.845 87.6125V87.9579H181.483V87.3296H184.075V87.2713C184.064 87.0716 184.022 86.8775 183.95 86.6889C183.881 86.5002 183.77 86.3449 183.617 86.2229C183.465 86.1008 183.257 86.0398 182.993 86.0398C182.819 86.0398 182.658 86.0772 182.511 86.1521C182.364 86.2242 182.238 86.3324 182.132 86.4767C182.027 86.6209 181.945 86.797 181.887 87.0051C181.828 87.2131 181.799 87.453 181.799 87.7249V87.8996C181.799 88.1132 181.828 88.3143 181.887 88.5029C181.948 88.6888 182.035 88.8524 182.149 88.9939C182.265 89.1353 182.405 89.2463 182.569 89.3267C182.735 89.4072 182.924 89.4474 183.135 89.4474C183.407 89.4474 183.637 89.3919 183.826 89.281C184.014 89.17 184.179 89.0216 184.321 88.8358L184.787 89.2061C184.69 89.3531 184.566 89.4932 184.416 89.6263C184.267 89.7594 184.082 89.8676 183.863 89.9508C183.647 90.034 183.39 90.0756 183.093 90.0756ZM186.513 86.4517V89.9924H185.744V85.4906H186.472L186.513 86.4517ZM186.33 87.5709L186.01 87.5584C186.013 87.2505 186.058 86.9662 186.147 86.7055C186.236 86.442 186.361 86.2131 186.522 86.019C186.683 85.8248 186.874 85.675 187.096 85.5696C187.321 85.4615 187.569 85.4074 187.841 85.4074C188.062 85.4074 188.262 85.4379 188.44 85.4989C188.617 85.5571 188.768 85.6515 188.893 85.7818C189.021 85.9122 189.118 86.0814 189.184 86.2894C189.251 86.4947 189.284 86.7457 189.284 87.0425V89.9924H188.51V87.0342C188.51 86.7984 188.476 86.6098 188.406 86.4683C188.337 86.3241 188.236 86.2201 188.103 86.1563C187.97 86.0897 187.806 86.0564 187.612 86.0564C187.42 86.0564 187.246 86.0966 187.088 86.1771C186.932 86.2575 186.798 86.3685 186.684 86.5099C186.573 86.6514 186.486 86.8137 186.422 86.9967C186.361 87.177 186.33 87.3684 186.33 87.5709ZM192.338 85.4906V86.0814H189.904V85.4906H192.338ZM190.728 84.3963H191.498V88.8774C191.498 89.0299 191.521 89.145 191.569 89.2227C191.616 89.3004 191.677 89.3517 191.752 89.3767C191.827 89.4016 191.907 89.4141 191.993 89.4141C192.057 89.4141 192.123 89.4085 192.193 89.3975C192.265 89.3836 192.319 89.3725 192.355 89.3642L192.359 89.9924C192.298 90.0118 192.218 90.0299 192.118 90.0465C192.021 90.0659 191.903 90.0756 191.764 90.0756C191.575 90.0756 191.402 90.0382 191.244 89.9633C191.086 89.8884 190.96 89.7636 190.865 89.5888C190.774 89.4113 190.728 89.1728 190.728 88.8732V84.3963ZM137.758 97.5709V97.5293C137.758 96.9246 137.826 96.3782 137.962 95.89C138.098 95.399 138.272 94.9691 138.482 94.6002C138.693 94.2313 138.915 93.9262 139.148 93.6848C139.381 93.4407 139.596 93.2646 139.793 93.1564L139.955 93.664C139.792 93.7889 139.625 93.9608 139.456 94.18C139.29 94.3991 139.136 94.6681 138.994 94.9871C138.856 95.3061 138.743 95.6764 138.657 96.098C138.571 96.5197 138.528 96.994 138.528 97.521V97.5792C138.528 98.1063 138.571 98.582 138.657 99.0064C138.743 99.428 138.856 99.7997 138.994 100.121C139.136 100.443 139.29 100.716 139.456 100.941C139.625 101.169 139.792 101.349 139.955 101.482L139.793 101.948C139.596 101.84 139.381 101.664 139.148 101.42C138.915 101.178 138.693 100.873 138.482 100.504C138.272 100.138 138.098 99.7095 137.962 99.2185C137.826 98.7276 137.758 98.1784 137.758 97.5709ZM141.749 96.5848H142.298C142.567 96.5848 142.789 96.5405 142.963 96.4517C143.141 96.3602 143.273 96.2367 143.359 96.0814C143.448 95.9233 143.492 95.7458 143.492 95.5488C143.492 95.3158 143.453 95.1203 143.375 94.9622C143.298 94.8041 143.181 94.6848 143.026 94.6044C142.871 94.5239 142.674 94.4837 142.435 94.4837C142.219 94.4837 142.027 94.5267 141.861 94.6127C141.697 94.6959 141.568 94.8152 141.474 94.9705C141.382 95.1258 141.337 95.3089 141.337 95.5197H140.567C140.567 95.2118 140.645 94.9317 140.8 94.6792C140.955 94.4268 141.173 94.2257 141.453 94.0759C141.736 93.9262 142.063 93.8513 142.435 93.8513C142.801 93.8513 143.122 93.9165 143.396 94.0468C143.671 94.1744 143.884 94.3658 144.037 94.621C144.19 94.8734 144.266 95.1882 144.266 95.5655C144.266 95.718 144.23 95.8817 144.158 96.0564C144.088 96.2284 143.979 96.3893 143.829 96.5391C143.682 96.6889 143.491 96.8123 143.255 96.9094C143.019 97.0037 142.736 97.0508 142.406 97.0508H141.749V96.5848ZM141.749 97.2173V96.7554H142.406C142.792 96.7554 143.111 96.8012 143.363 96.8927C143.615 96.9843 143.814 97.1063 143.958 97.2589C144.105 97.4114 144.208 97.5792 144.266 97.7623C144.327 97.9426 144.357 98.1229 144.357 98.3032C144.357 98.5861 144.309 98.8371 144.212 99.0563C144.117 99.2754 143.983 99.4613 143.808 99.6138C143.636 99.7664 143.434 99.8815 143.201 99.9591C142.968 100.037 142.714 100.076 142.439 100.076C142.176 100.076 141.927 100.038 141.694 99.9633C141.464 99.8884 141.26 99.7802 141.083 99.6388C140.905 99.4945 140.767 99.3184 140.667 99.1104C140.567 98.8996 140.517 98.6596 140.517 98.3906H141.287C141.287 98.6014 141.333 98.7858 141.424 98.9439C141.518 99.102 141.651 99.2255 141.823 99.3142C141.998 99.4002 142.203 99.4432 142.439 99.4432C142.675 99.4432 142.878 99.403 143.047 99.3226C143.219 99.2393 143.35 99.1145 143.442 98.9481C143.536 98.7817 143.583 98.5723 143.583 98.3198C143.583 98.0674 143.531 97.8608 143.425 97.6999C143.32 97.5362 143.17 97.4156 142.976 97.3379C142.785 97.2575 142.559 97.2173 142.298 97.2173H141.749ZM146.542 96.5848H147.091C147.36 96.5848 147.582 96.5405 147.757 96.4517C147.934 96.3602 148.066 96.2367 148.152 96.0814C148.241 95.9233 148.285 95.7458 148.285 95.5488C148.285 95.3158 148.246 95.1203 148.169 94.9622C148.091 94.8041 147.974 94.6848 147.819 94.6044C147.664 94.5239 147.467 94.4837 147.228 94.4837C147.012 94.4837 146.82 94.5267 146.654 94.6127C146.49 94.6959 146.361 94.8152 146.267 94.9705C146.176 95.1258 146.13 95.3089 146.13 95.5197H145.36C145.36 95.2118 145.438 94.9317 145.593 94.6792C145.748 94.4268 145.966 94.2257 146.246 94.0759C146.529 93.9262 146.857 93.8513 147.228 93.8513C147.594 93.8513 147.915 93.9165 148.189 94.0468C148.464 94.1744 148.677 94.3658 148.83 94.621C148.983 94.8734 149.059 95.1882 149.059 95.5655C149.059 95.718 149.023 95.8817 148.951 96.0564C148.881 96.2284 148.772 96.3893 148.622 96.5391C148.475 96.6889 148.284 96.8123 148.048 96.9094C147.812 97.0037 147.529 97.0508 147.199 97.0508H146.542V96.5848ZM146.542 97.2173V96.7554H147.199C147.585 96.7554 147.904 96.8012 148.156 96.8927C148.408 96.9843 148.607 97.1063 148.751 97.2589C148.898 97.4114 149.001 97.5792 149.059 97.7623C149.12 97.9426 149.15 98.1229 149.15 98.3032C149.15 98.5861 149.102 98.8371 149.005 99.0563C148.91 99.2754 148.776 99.4613 148.601 99.6138C148.429 99.7664 148.227 99.8815 147.994 99.9591C147.761 100.037 147.507 100.076 147.232 100.076C146.969 100.076 146.721 100.038 146.488 99.9633C146.257 99.8884 146.053 99.7802 145.876 99.6388C145.698 99.4945 145.56 99.3184 145.46 99.1104C145.36 98.8996 145.31 98.6596 145.31 98.3906H146.08C146.08 98.6014 146.126 98.7858 146.217 98.9439C146.311 99.102 146.445 99.2255 146.617 99.3142C146.791 99.4002 146.997 99.4432 147.232 99.4432C147.468 99.4432 147.671 99.403 147.84 99.3226C148.012 99.2393 148.144 99.1145 148.235 98.9481C148.329 98.7817 148.377 98.5723 148.377 98.3198C148.377 98.0674 148.324 97.8608 148.218 97.6999C148.113 97.5362 147.963 97.4156 147.769 97.3379C147.578 97.2575 147.352 97.2173 147.091 97.2173H146.542ZM150.307 99.5847C150.307 99.4543 150.347 99.3448 150.428 99.256C150.511 99.1645 150.63 99.1187 150.786 99.1187C150.941 99.1187 151.059 99.1645 151.139 99.256C151.222 99.3448 151.264 99.4543 151.264 99.5847C151.264 99.7123 151.222 99.8205 151.139 99.9092C151.059 99.998 150.941 100.042 150.786 100.042C150.63 100.042 150.511 99.998 150.428 99.9092C150.347 99.8205 150.307 99.7123 150.307 99.5847ZM156.261 96.4808V97.4045C156.261 97.901 156.217 98.3198 156.128 98.661C156.039 99.0022 155.912 99.2768 155.745 99.4848C155.579 99.6929 155.378 99.844 155.142 99.9383C154.909 100.03 154.645 100.076 154.351 100.076C154.118 100.076 153.903 100.047 153.706 99.9883C153.509 99.93 153.332 99.8371 153.174 99.7095C153.018 99.5791 152.885 99.4099 152.774 99.2019C152.663 98.9939 152.579 98.7415 152.521 98.4447C152.462 98.1479 152.433 97.8011 152.433 97.4045V96.4808C152.433 95.9843 152.478 95.5682 152.566 95.2326C152.658 94.897 152.787 94.6279 152.953 94.4254C153.12 94.2202 153.319 94.0732 153.552 93.9844C153.788 93.8956 154.052 93.8513 154.343 93.8513C154.579 93.8513 154.795 93.8804 154.992 93.9386C155.192 93.9941 155.369 94.0843 155.525 94.2091C155.68 94.3311 155.812 94.4948 155.92 94.7C156.031 94.9025 156.115 95.1508 156.174 95.4448C156.232 95.7388 156.261 96.0842 156.261 96.4808ZM155.487 97.5293V96.3518C155.487 96.08 155.471 95.8415 155.437 95.6362C155.407 95.4282 155.361 95.2506 155.3 95.1036C155.239 94.9566 155.161 94.8373 155.067 94.7458C154.975 94.6543 154.869 94.5877 154.747 94.5461C154.627 94.5017 154.493 94.4795 154.343 94.4795C154.16 94.4795 153.998 94.5142 153.856 94.5835C153.715 94.6501 153.595 94.7569 153.498 94.9039C153.404 95.0509 153.332 95.2437 153.282 95.4823C153.232 95.7208 153.207 96.0107 153.207 96.3518V97.5293C153.207 97.8011 153.222 98.0411 153.253 98.2491C153.286 98.4571 153.335 98.6374 153.398 98.79C153.462 98.9398 153.54 99.0632 153.631 99.1603C153.723 99.2574 153.828 99.3295 153.948 99.3767C154.07 99.421 154.204 99.4432 154.351 99.4432C154.54 99.4432 154.705 99.4072 154.846 99.335C154.988 99.2629 155.106 99.1506 155.2 98.998C155.297 98.8427 155.369 98.6444 155.416 98.4031C155.464 98.159 155.487 97.8677 155.487 97.5293ZM161.054 96.4808V97.4045C161.054 97.901 161.01 98.3198 160.921 98.661C160.832 99.0022 160.705 99.2768 160.538 99.4848C160.372 99.6929 160.171 99.844 159.935 99.9383C159.702 100.03 159.438 100.076 159.144 100.076C158.911 100.076 158.696 100.047 158.499 99.9883C158.303 99.93 158.125 99.8371 157.967 99.7095C157.812 99.5791 157.678 99.4099 157.567 99.2019C157.457 98.9939 157.372 98.7415 157.314 98.4447C157.255 98.1479 157.226 97.8011 157.226 97.4045V96.4808C157.226 95.9843 157.271 95.5682 157.359 95.2326C157.451 94.897 157.58 94.6279 157.746 94.4254C157.913 94.2202 158.113 94.0732 158.346 93.9844C158.581 93.8956 158.845 93.8513 159.136 93.8513C159.372 93.8513 159.588 93.8804 159.785 93.9386C159.985 93.9941 160.162 94.0843 160.318 94.2091C160.473 94.3311 160.605 94.4948 160.713 94.7C160.824 94.9025 160.909 95.1508 160.967 95.4448C161.025 95.7388 161.054 96.0842 161.054 96.4808ZM160.28 97.5293V96.3518C160.28 96.08 160.264 95.8415 160.23 95.6362C160.2 95.4282 160.154 95.2506 160.093 95.1036C160.032 94.9566 159.954 94.8373 159.86 94.7458C159.768 94.6543 159.662 94.5877 159.54 94.5461C159.42 94.5017 159.286 94.4795 159.136 94.4795C158.953 94.4795 158.791 94.5142 158.649 94.5835C158.508 94.6501 158.389 94.7569 158.291 94.9039C158.197 95.0509 158.125 95.2437 158.075 95.4823C158.025 95.7208 158 96.0107 158 96.3518V97.5293C158 97.8011 158.015 98.0411 158.046 98.2491C158.079 98.4571 158.128 98.6374 158.192 98.79C158.255 98.9398 158.333 99.0632 158.425 99.1603C158.516 99.2574 158.622 99.3295 158.741 99.3767C158.863 99.421 158.997 99.4432 159.144 99.4432C159.333 99.4432 159.498 99.4072 159.64 99.335C159.781 99.2629 159.899 99.1506 159.993 98.998C160.09 98.8427 160.162 98.6444 160.21 98.4031C160.257 98.159 160.28 97.8677 160.28 97.5293ZM161.978 95.4198V95.0995C161.978 94.8692 162.028 94.6598 162.128 94.4712C162.227 94.2826 162.37 94.1314 162.556 94.0177C162.742 93.904 162.962 93.8471 163.218 93.8471C163.478 93.8471 163.7 93.904 163.883 94.0177C164.069 94.1314 164.212 94.2826 164.312 94.4712C164.412 94.6598 164.462 94.8692 164.462 95.0995V95.4198C164.462 95.6445 164.412 95.8512 164.312 96.0398C164.215 96.2284 164.073 96.3796 163.888 96.4933C163.704 96.607 163.484 96.6639 163.226 96.6639C162.968 96.6639 162.745 96.607 162.556 96.4933C162.37 96.3796 162.227 96.2284 162.128 96.0398C162.028 95.8512 161.978 95.6445 161.978 95.4198ZM162.556 95.0995V95.4198C162.556 95.5474 162.58 95.6681 162.627 95.7818C162.677 95.8955 162.752 95.9885 162.852 96.0606C162.951 96.1299 163.076 96.1646 163.226 96.1646C163.376 96.1646 163.499 96.1299 163.596 96.0606C163.693 95.9885 163.766 95.8955 163.813 95.7818C163.86 95.6681 163.883 95.5474 163.883 95.4198V95.0995C163.883 94.9691 163.858 94.8471 163.809 94.7333C163.761 94.6168 163.688 94.5239 163.588 94.4546C163.491 94.3824 163.367 94.3464 163.218 94.3464C163.071 94.3464 162.947 94.3824 162.847 94.4546C162.75 94.5239 162.677 94.6168 162.627 94.7333C162.58 94.8471 162.556 94.9691 162.556 95.0995ZM164.928 98.8316V98.5071C164.928 98.2796 164.978 98.0716 165.078 97.883C165.177 97.6943 165.32 97.5432 165.506 97.4295C165.692 97.3157 165.912 97.2589 166.168 97.2589C166.428 97.2589 166.65 97.3157 166.833 97.4295C167.019 97.5432 167.162 97.6943 167.262 97.883C167.362 98.0716 167.412 98.2796 167.412 98.5071V98.8316C167.412 99.0591 167.362 99.2671 167.262 99.4557C167.165 99.6443 167.023 99.7955 166.837 99.9092C166.654 100.023 166.434 100.08 166.176 100.08C165.918 100.08 165.696 100.023 165.51 99.9092C165.324 99.7955 165.18 99.6443 165.078 99.4557C164.978 99.2671 164.928 99.0591 164.928 98.8316ZM165.506 98.5071V98.8316C165.506 98.9592 165.53 99.0812 165.577 99.1977C165.627 99.3115 165.702 99.4044 165.801 99.4765C165.901 99.5459 166.026 99.5805 166.176 99.5805C166.326 99.5805 166.449 99.5459 166.546 99.4765C166.646 99.4044 166.72 99.3115 166.767 99.1977C166.814 99.084 166.837 98.962 166.837 98.8316V98.5071C166.837 98.3767 166.813 98.2547 166.763 98.1409C166.715 98.0272 166.642 97.9357 166.542 97.8663C166.445 97.7942 166.32 97.7581 166.168 97.7581C166.021 97.7581 165.897 97.7942 165.797 97.8663C165.7 97.9357 165.627 98.0272 165.577 98.1409C165.53 98.2547 165.506 98.3767 165.506 98.5071ZM166.359 94.7957L163.401 99.5306L162.968 99.256L165.926 94.5211L166.359 94.7957ZM170.141 97.5293V97.5709C170.141 98.1784 170.073 98.7276 169.937 99.2185C169.801 99.7095 169.628 100.138 169.417 100.504C169.206 100.873 168.984 101.178 168.751 101.42C168.518 101.664 168.303 101.84 168.106 101.948L167.944 101.482C168.108 101.357 168.273 101.182 168.439 100.958C168.606 100.736 168.76 100.461 168.901 100.134C169.043 99.8094 169.156 99.4349 169.242 99.0105C169.328 98.5833 169.371 98.1063 169.371 97.5792V97.521C169.371 96.994 169.326 96.5183 169.234 96.0939C169.142 95.6667 169.023 95.2909 168.876 94.9663C168.732 94.6418 168.577 94.3686 168.41 94.1467C168.247 93.922 168.091 93.7486 167.944 93.6266L168.106 93.1564C168.303 93.2646 168.518 93.4407 168.751 93.6848C168.984 93.9262 169.206 94.2313 169.417 94.6002C169.628 94.9691 169.801 95.399 169.937 95.89C170.073 96.3782 170.141 96.9246 170.141 97.5293Z" fill="white"/>
<path d="M50.3336 132.339V132.992H47.1257V132.339H50.3336ZM47.288 126.934V132.992H46.485V126.934H47.288ZM49.9092 129.539V130.192H47.1257V129.539H49.9092ZM50.292 126.934V127.592H47.1257V126.934H50.292ZM54.5567 131.461C54.5567 131.32 54.5345 131.195 54.4901 131.087C54.4485 130.976 54.3736 130.876 54.2655 130.787C54.1601 130.699 54.0131 130.614 53.8244 130.533C53.6386 130.453 53.4028 130.371 53.1171 130.288C52.8176 130.199 52.5471 130.101 52.3058 129.993C52.0645 129.882 51.8578 129.755 51.6858 129.614C51.5139 129.472 51.3821 129.31 51.2906 129.127C51.199 128.944 51.1533 128.735 51.1533 128.499C51.1533 128.263 51.2018 128.045 51.2989 127.846C51.396 127.646 51.5347 127.473 51.715 127.326C51.898 127.176 52.1158 127.059 52.3682 126.976C52.6206 126.893 52.9022 126.851 53.2128 126.851C53.6677 126.851 54.0533 126.939 54.3695 127.113C54.6885 127.285 54.9312 127.511 55.0976 127.792C55.264 128.069 55.3472 128.366 55.3472 128.682H54.5484C54.5484 128.455 54.4999 128.253 54.4028 128.079C54.3057 127.901 54.1587 127.762 53.9617 127.663C53.7648 127.56 53.5152 127.509 53.2128 127.509C52.9271 127.509 52.6913 127.552 52.5055 127.638C52.3197 127.724 52.181 127.84 52.0894 127.987C52.0007 128.134 51.9563 128.302 51.9563 128.491C51.9563 128.618 51.9826 128.735 52.0353 128.84C52.0908 128.943 52.1754 129.038 52.2891 129.127C52.4056 129.216 52.5527 129.298 52.7302 129.373C52.9105 129.448 53.1254 129.52 53.3751 129.589C53.719 129.686 54.0158 129.794 54.2655 129.914C54.5151 130.033 54.7204 130.167 54.8813 130.317C55.0449 130.464 55.1656 130.632 55.2432 130.821C55.3237 131.006 55.3639 131.217 55.3639 131.453C55.3639 131.7 55.314 131.923 55.2141 132.123C55.1142 132.323 54.9714 132.493 54.7856 132.635C54.5997 132.776 54.3764 132.886 54.1157 132.963C53.8577 133.038 53.5693 133.076 53.2503 133.076C52.9701 133.076 52.6941 133.037 52.4223 132.959C52.1532 132.881 51.9078 132.765 51.6858 132.61C51.4667 132.454 51.2906 132.263 51.1574 132.035C51.0271 131.805 50.9619 131.539 50.9619 131.237H51.7607C51.7607 131.445 51.801 131.624 51.8814 131.773C51.9618 131.92 52.0714 132.042 52.2101 132.139C52.3516 132.237 52.5111 132.309 52.6886 132.356C52.8689 132.4 53.0561 132.422 53.2503 132.422C53.5304 132.422 53.7676 132.384 53.9617 132.306C54.1559 132.228 54.3029 132.117 54.4028 131.973C54.5054 131.829 54.5567 131.658 54.5567 131.461ZM60.8643 129.976V132.194C60.7894 132.305 60.6701 132.429 60.5065 132.568C60.3428 132.704 60.1168 132.823 59.8283 132.926C59.5426 133.026 59.1737 133.076 58.7216 133.076C58.3526 133.076 58.0129 133.012 57.7022 132.884C57.3943 132.754 57.1266 132.565 56.8992 132.318C56.6745 132.069 56.4998 131.766 56.3749 131.411C56.2529 131.054 56.1919 130.649 56.1919 130.196V129.726C56.1919 129.274 56.2446 128.871 56.35 128.516C56.4581 128.16 56.6163 127.86 56.8243 127.613C57.0323 127.363 57.2875 127.174 57.5899 127.047C57.8922 126.916 58.2389 126.851 58.63 126.851C59.0932 126.851 59.4802 126.932 59.7909 127.093C60.1043 127.251 60.3484 127.47 60.5231 127.75C60.7007 128.03 60.8144 128.349 60.8643 128.707H60.0613C60.0252 128.488 59.9531 128.288 59.8449 128.108C59.7395 127.927 59.5884 127.783 59.3914 127.675C59.1945 127.564 58.9407 127.509 58.63 127.509C58.3499 127.509 58.1072 127.56 57.9019 127.663C57.6966 127.765 57.5274 127.912 57.3943 128.104C57.2612 128.295 57.1613 128.527 57.0947 128.798C57.0309 129.07 56.999 129.377 56.999 129.718V130.196C56.999 130.546 57.0393 130.858 57.1197 131.133C57.2029 131.407 57.3208 131.642 57.4734 131.836C57.6259 132.027 57.8076 132.173 58.0184 132.273C58.232 132.372 58.4678 132.422 58.7257 132.422C59.0114 132.422 59.243 132.399 59.4206 132.352C59.5981 132.302 59.7368 132.244 59.8366 132.177C59.9365 132.108 60.0128 132.042 60.0655 131.981V130.625H58.6633V129.976H60.8643ZM64.3093 126.934H66.3148C66.7697 126.934 67.1539 127.004 67.4673 127.143C67.7835 127.281 68.0234 127.486 68.1871 127.758C68.3535 128.027 68.4367 128.359 68.4367 128.753C68.4367 129.03 68.3799 129.284 68.2662 129.514C68.1552 129.742 67.9943 129.936 67.7835 130.097C67.5755 130.255 67.3258 130.373 67.0346 130.45L66.8099 130.538H64.9251L64.9168 129.884H66.3398C66.6282 129.884 66.8682 129.834 67.0596 129.735C67.2509 129.632 67.3952 129.495 67.4923 129.323C67.5894 129.151 67.6379 128.961 67.6379 128.753C67.6379 128.52 67.5921 128.316 67.5006 128.141C67.4091 127.966 67.2648 127.832 67.0679 127.737C66.8737 127.64 66.6227 127.592 66.3148 127.592H65.1124V132.992H64.3093V126.934ZM67.8501 132.992L66.3772 130.246L67.2135 130.242L68.7072 132.943V132.992H67.8501ZM72.0981 132.223V129.905C72.0981 129.728 72.0621 129.574 71.99 129.443C71.9206 129.31 71.8152 129.208 71.6738 129.135C71.5323 129.063 71.3575 129.027 71.1495 129.027C70.9553 129.027 70.7848 129.061 70.6377 129.127C70.4935 129.194 70.3798 129.281 70.2966 129.389C70.2161 129.497 70.1759 129.614 70.1759 129.739H69.4062C69.4062 129.578 69.4478 129.418 69.531 129.26C69.6142 129.102 69.7335 128.959 69.8888 128.832C70.0469 128.701 70.2355 128.599 70.4547 128.524C70.6766 128.446 70.9234 128.407 71.1953 128.407C71.5226 128.407 71.8111 128.463 72.0607 128.574C72.3131 128.685 72.51 128.853 72.6515 129.077C72.7957 129.299 72.8679 129.578 72.8679 129.914V132.011C72.8679 132.16 72.8803 132.32 72.9053 132.489C72.9331 132.658 72.9733 132.804 73.026 132.926V132.992H72.223C72.1841 132.904 72.1536 132.786 72.1314 132.639C72.1092 132.489 72.0981 132.35 72.0981 132.223ZM72.2313 130.263L72.2396 130.804H71.4616C71.2424 130.804 71.0469 130.822 70.8749 130.858C70.7029 130.891 70.5587 130.943 70.4422 131.012C70.3257 131.081 70.2369 131.169 70.1759 131.274C70.1149 131.377 70.0844 131.497 70.0844 131.636C70.0844 131.778 70.1163 131.906 70.1801 132.023C70.2439 132.139 70.3396 132.232 70.4672 132.302C70.5975 132.368 70.757 132.402 70.9456 132.402C71.1814 132.402 71.3894 132.352 71.5697 132.252C71.75 132.152 71.8929 132.03 71.9983 131.886C72.1065 131.741 72.1647 131.601 72.173 131.465L72.5017 131.836C72.4823 131.952 72.4296 132.081 72.3436 132.223C72.2576 132.364 72.1425 132.5 71.9983 132.63C71.8568 132.758 71.6876 132.865 71.4907 132.951C71.2965 133.034 71.0774 133.076 70.8333 133.076C70.5282 133.076 70.2605 133.016 70.0303 132.897C69.8028 132.777 69.6253 132.618 69.4977 132.418C69.3729 132.216 69.3105 131.99 69.3105 131.74C69.3105 131.499 69.3576 131.287 69.4519 131.103C69.5463 130.918 69.6822 130.764 69.8597 130.642C70.0372 130.517 70.2508 130.423 70.5004 130.359C70.7501 130.295 71.0288 130.263 71.3367 130.263H72.2313ZM75.9634 128.491V129.081H73.5294V128.491H75.9634ZM74.3532 127.396H75.123V131.877C75.123 132.03 75.1465 132.145 75.1937 132.223C75.2408 132.3 75.3019 132.352 75.3768 132.377C75.4517 132.402 75.5321 132.414 75.6181 132.414C75.6819 132.414 75.7484 132.409 75.8178 132.397C75.8899 132.384 75.944 132.372 75.9801 132.364L75.9842 132.992C75.9232 133.012 75.8428 133.03 75.7429 133.047C75.6458 133.066 75.5279 133.076 75.3892 133.076C75.2006 133.076 75.0273 133.038 74.8692 132.963C74.711 132.888 74.5848 132.764 74.4905 132.589C74.399 132.411 74.3532 132.173 74.3532 131.873V127.396ZM77.7026 128.491V132.992H76.9287V128.491H77.7026ZM76.8704 127.296C76.8704 127.172 76.9079 127.066 76.9828 126.98C77.0604 126.894 77.1742 126.851 77.324 126.851C77.471 126.851 77.5833 126.894 77.661 126.98C77.7414 127.066 77.7816 127.172 77.7816 127.296C77.7816 127.416 77.7414 127.518 77.661 127.604C77.5833 127.688 77.471 127.729 77.324 127.729C77.1742 127.729 77.0604 127.688 76.9828 127.604C76.9079 127.518 76.8704 127.416 76.8704 127.296ZM78.7344 130.791V130.696C78.7344 130.371 78.7816 130.07 78.8759 129.793C78.9702 129.513 79.1061 129.27 79.2836 129.065C79.4612 128.857 79.6761 128.696 79.9285 128.582C80.181 128.466 80.4639 128.407 80.7773 128.407C81.0935 128.407 81.3778 128.466 81.6303 128.582C81.8854 128.696 82.1018 128.857 82.2793 129.065C82.4596 129.27 82.5969 129.513 82.6912 129.793C82.7855 130.07 82.8327 130.371 82.8327 130.696V130.791C82.8327 131.116 82.7855 131.417 82.6912 131.694C82.5969 131.972 82.4596 132.214 82.2793 132.422C82.1018 132.628 81.8868 132.789 81.6344 132.905C81.3848 133.019 81.1019 133.076 80.7856 133.076C80.4694 133.076 80.1851 133.019 79.9327 132.905C79.6803 132.789 79.4639 132.628 79.2836 132.422C79.1061 132.214 78.9702 131.972 78.8759 131.694C78.7816 131.417 78.7344 131.116 78.7344 130.791ZM79.5042 130.696V130.791C79.5042 131.016 79.5305 131.228 79.5832 131.428C79.6359 131.625 79.715 131.8 79.8204 131.952C79.9285 132.105 80.0631 132.225 80.2239 132.314C80.3848 132.4 80.5721 132.443 80.7856 132.443C80.9964 132.443 81.1809 132.4 81.339 132.314C81.4999 132.225 81.633 132.105 81.7384 131.952C81.8438 131.8 81.9229 131.625 81.9756 131.428C82.0311 131.228 82.0588 131.016 82.0588 130.791V130.696C82.0588 130.474 82.0311 130.264 81.9756 130.067C81.9229 129.868 81.8425 129.692 81.7343 129.539C81.6289 129.384 81.4957 129.262 81.3348 129.173C81.1767 129.084 80.9909 129.04 80.7773 129.04C80.5665 129.04 80.3807 129.084 80.2198 129.173C80.0617 129.262 79.9285 129.384 79.8204 129.539C79.715 129.692 79.6359 129.868 79.5832 130.067C79.5305 130.264 79.5042 130.474 79.5042 130.696ZM47.1216 139.976V142.194C47.0467 142.305 46.9274 142.429 46.7638 142.568C46.6001 142.704 46.3741 142.823 46.0856 142.926C45.7999 143.026 45.431 143.076 44.9788 143.076C44.6099 143.076 44.2701 143.012 43.9595 142.884C43.6516 142.754 43.3839 142.565 43.1565 142.318C42.9318 142.069 42.757 141.766 42.6322 141.411C42.5102 141.054 42.4491 140.649 42.4491 140.196V139.726C42.4491 139.274 42.5018 138.871 42.6072 138.516C42.7154 138.16 42.8735 137.86 43.0816 137.613C43.2896 137.363 43.5448 137.174 43.8471 137.047C44.1495 136.916 44.4962 136.851 44.8873 136.851C45.3505 136.851 45.7375 136.932 46.0481 137.093C46.3616 137.251 46.6057 137.47 46.7804 137.75C46.9579 138.03 47.0717 138.349 47.1216 138.707H46.3186C46.2825 138.488 46.2104 138.288 46.1022 138.108C45.9968 137.927 45.8456 137.783 45.6487 137.675C45.4518 137.564 45.198 137.509 44.8873 137.509C44.6071 137.509 44.3644 137.56 44.1592 137.663C43.9539 137.765 43.7847 137.912 43.6516 138.104C43.5184 138.295 43.4186 138.527 43.352 138.798C43.2882 139.07 43.2563 139.377 43.2563 139.718V140.196C43.2563 140.546 43.2965 140.858 43.377 141.133C43.4602 141.407 43.5781 141.642 43.7306 141.836C43.8832 142.027 44.0649 142.173 44.2757 142.273C44.4893 142.372 44.725 142.422 44.983 142.422C45.2687 142.422 45.5003 142.399 45.6778 142.352C45.8554 142.302 45.994 142.244 46.0939 142.177C46.1938 142.108 46.27 142.042 46.3227 141.981V140.625H44.9206V139.976H47.1216ZM48.1326 140.791V140.696C48.1326 140.371 48.1798 140.07 48.2741 139.793C48.3684 139.513 48.5043 139.27 48.6818 139.065C48.8594 138.857 49.0743 138.696 49.3267 138.582C49.5792 138.466 49.8621 138.407 50.1755 138.407C50.4917 138.407 50.776 138.466 51.0285 138.582C51.2837 138.696 51.5 138.857 51.6775 139.065C51.8578 139.27 51.9951 139.513 52.0894 139.793C52.1837 140.07 52.2309 140.371 52.2309 140.696V140.791C52.2309 141.116 52.1837 141.417 52.0894 141.694C51.9951 141.972 51.8578 142.214 51.6775 142.422C51.5 142.628 51.285 142.789 51.0326 142.905C50.783 143.019 50.5001 143.076 50.1838 143.076C49.8676 143.076 49.5833 143.019 49.3309 142.905C49.0785 142.789 48.8621 142.628 48.6818 142.422C48.5043 142.214 48.3684 141.972 48.2741 141.694C48.1798 141.417 48.1326 141.116 48.1326 140.791ZM48.9024 140.696V140.791C48.9024 141.016 48.9287 141.228 48.9814 141.428C49.0341 141.625 49.1132 141.8 49.2186 141.952C49.3267 142.105 49.4613 142.225 49.6222 142.314C49.783 142.4 49.9703 142.443 50.1838 142.443C50.3947 142.443 50.5791 142.4 50.7372 142.314C50.8981 142.225 51.0312 142.105 51.1366 141.952C51.242 141.8 51.3211 141.625 51.3738 141.428C51.4293 141.228 51.457 141.016 51.457 140.791V140.696C51.457 140.474 51.4293 140.264 51.3738 140.067C51.3211 139.868 51.2407 139.692 51.1325 139.539C51.0271 139.384 50.8939 139.262 50.7331 139.173C50.5749 139.084 50.3891 139.04 50.1755 139.04C49.9647 139.04 49.7789 139.084 49.618 139.173C49.4599 139.262 49.3267 139.384 49.2186 139.539C49.1132 139.692 49.0341 139.868 48.9814 140.067C48.9287 140.264 48.9024 140.474 48.9024 140.696ZM54.4985 142.298L55.73 138.491H56.5164L54.8979 142.992H54.382L54.4985 142.298ZM53.4708 138.491L54.7398 142.318L54.8272 142.992H54.3112L52.6803 138.491H53.4708ZM59.0669 143.076C58.7535 143.076 58.4691 143.023 58.214 142.918C57.9615 142.809 57.7438 142.658 57.5607 142.464C57.3804 142.27 57.2417 142.04 57.1447 141.773C57.0476 141.507 56.999 141.216 56.999 140.9V140.725C56.999 140.359 57.0531 140.033 57.1613 139.747C57.2695 139.459 57.4165 139.215 57.6023 139.015C57.7882 138.815 57.999 138.664 58.2348 138.561C58.4705 138.459 58.7146 138.407 58.967 138.407C59.2888 138.407 59.5662 138.463 59.7992 138.574C60.0349 138.685 60.2277 138.84 60.3775 139.04C60.5273 139.237 60.6382 139.47 60.7104 139.739C60.7825 140.005 60.8185 140.296 60.8185 140.613V140.958H57.4567V140.33H60.0488V140.271C60.0377 140.072 59.9961 139.877 59.924 139.689C59.8547 139.5 59.7437 139.345 59.5911 139.223C59.4386 139.101 59.2305 139.04 58.967 139.04C58.7923 139.04 58.6314 139.077 58.4844 139.152C58.3374 139.224 58.2112 139.332 58.1058 139.477C58.0004 139.621 57.9185 139.797 57.8603 140.005C57.802 140.213 57.7729 140.453 57.7729 140.725V140.9C57.7729 141.113 57.802 141.314 57.8603 141.503C57.9213 141.689 58.0087 141.852 58.1224 141.994C58.2389 142.135 58.379 142.246 58.5427 142.327C58.7091 142.407 58.8977 142.447 59.1085 142.447C59.3803 142.447 59.6106 142.392 59.7992 142.281C59.9878 142.17 60.1528 142.022 60.2943 141.836L60.7603 142.206C60.6632 142.353 60.5398 142.493 60.39 142.626C60.2402 142.759 60.0558 142.868 59.8366 142.951C59.6203 143.034 59.3637 143.076 59.0669 143.076ZM62.487 139.198V142.992H61.7172V138.491H62.4662L62.487 139.198ZM63.8933 138.466L63.8891 139.181C63.8253 139.167 63.7643 139.159 63.7061 139.156C63.6506 139.151 63.5868 139.148 63.5147 139.148C63.3371 139.148 63.1804 139.176 63.0445 139.231C62.9086 139.287 62.7935 139.364 62.6992 139.464C62.6049 139.564 62.53 139.683 62.4745 139.822C62.4218 139.958 62.3871 140.108 62.3705 140.271L62.1541 140.396C62.1541 140.124 62.1805 139.869 62.2332 139.631C62.2886 139.392 62.3732 139.181 62.487 138.998C62.6007 138.812 62.7449 138.668 62.9197 138.565C63.0972 138.46 63.308 138.407 63.5521 138.407C63.6076 138.407 63.6714 138.414 63.7435 138.428C63.8156 138.439 63.8655 138.452 63.8933 138.466ZM65.3745 139.452V142.992H64.6048V138.491H65.3329L65.3745 139.452ZM65.1914 140.571L64.871 140.558C64.8738 140.251 64.9196 139.966 65.0083 139.705C65.0971 139.442 65.2219 139.213 65.3828 139.019C65.5437 138.825 65.7351 138.675 65.957 138.57C66.1817 138.461 66.4299 138.407 66.7017 138.407C66.9236 138.407 67.1234 138.438 67.3009 138.499C67.4784 138.557 67.6296 138.651 67.7544 138.782C67.882 138.912 67.9791 139.081 68.0456 139.289C68.1122 139.495 68.1455 139.746 68.1455 140.043V142.992H67.3716V140.034C67.3716 139.798 67.3369 139.61 67.2676 139.468C67.1983 139.324 67.097 139.22 66.9639 139.156C66.8307 139.09 66.6671 139.056 66.4729 139.056C66.2815 139.056 66.1068 139.097 65.9487 139.177C65.7933 139.258 65.6588 139.368 65.5451 139.51C65.4341 139.651 65.3467 139.814 65.283 139.997C65.2219 140.177 65.1914 140.368 65.1914 140.571ZM71.9692 142.223V139.905C71.9692 139.728 71.9331 139.574 71.861 139.443C71.7916 139.31 71.6862 139.208 71.5448 139.135C71.4033 139.063 71.2286 139.027 71.0205 139.027C70.8264 139.027 70.6558 139.061 70.5088 139.127C70.3645 139.194 70.2508 139.281 70.1676 139.389C70.0871 139.497 70.0469 139.614 70.0469 139.739H69.2772C69.2772 139.578 69.3188 139.418 69.402 139.26C69.4852 139.102 69.6045 138.959 69.7598 138.832C69.9179 138.701 70.1066 138.599 70.3257 138.524C70.5476 138.446 70.7945 138.407 71.0663 138.407C71.3936 138.407 71.6821 138.463 71.9317 138.574C72.1841 138.685 72.3811 138.853 72.5225 139.077C72.6668 139.299 72.7389 139.578 72.7389 139.914V142.011C72.7389 142.16 72.7514 142.32 72.7763 142.489C72.8041 142.658 72.8443 142.804 72.897 142.926V142.992H72.094C72.0551 142.904 72.0246 142.786 72.0024 142.639C71.9803 142.489 71.9692 142.35 71.9692 142.223ZM72.1023 140.263L72.1106 140.804H71.3326C71.1134 140.804 70.9179 140.822 70.7459 140.858C70.5739 140.891 70.4297 140.943 70.3132 141.012C70.1967 141.081 70.108 141.169 70.0469 141.274C69.9859 141.377 69.9554 141.497 69.9554 141.636C69.9554 141.778 69.9873 141.906 70.0511 142.023C70.1149 142.139 70.2106 142.232 70.3382 142.302C70.4685 142.368 70.628 142.402 70.8167 142.402C71.0524 142.402 71.2605 142.352 71.4408 142.252C71.6211 142.152 71.7639 142.03 71.8693 141.886C71.9775 141.741 72.0357 141.601 72.0441 141.465L72.3727 141.836C72.3533 141.952 72.3006 142.081 72.2146 142.223C72.1287 142.364 72.0135 142.5 71.8693 142.63C71.7278 142.758 71.5586 142.865 71.3617 142.951C71.1675 143.034 70.9484 143.076 70.7043 143.076C70.3992 143.076 70.1315 143.016 69.9013 142.897C69.6739 142.777 69.4963 142.618 69.3687 142.418C69.2439 142.216 69.1815 141.99 69.1815 141.74C69.1815 141.499 69.2287 141.287 69.323 141.103C69.4173 140.918 69.5532 140.764 69.7307 140.642C69.9082 140.517 70.1218 140.423 70.3715 140.359C70.6211 140.295 70.8999 140.263 71.2078 140.263H72.1023ZM74.7194 139.452V142.992H73.9496V138.491H74.6778L74.7194 139.452ZM74.5363 140.571L74.2159 140.558C74.2187 140.251 74.2645 139.966 74.3532 139.705C74.442 139.442 74.5668 139.213 74.7277 139.019C74.8886 138.825 75.08 138.675 75.3019 138.57C75.5265 138.461 75.7748 138.407 76.0466 138.407C76.2685 138.407 76.4682 138.438 76.6458 138.499C76.8233 138.557 76.9745 138.651 77.0993 138.782C77.2269 138.912 77.324 139.081 77.3905 139.289C77.4571 139.495 77.4904 139.746 77.4904 140.043V142.992H76.7165V140.034C76.7165 139.798 76.6818 139.61 76.6125 139.468C76.5431 139.324 76.4419 139.22 76.3088 139.156C76.1756 139.09 76.012 139.056 75.8178 139.056C75.6264 139.056 75.4517 139.097 75.2935 139.177C75.1382 139.258 75.0037 139.368 74.89 139.51C74.779 139.651 74.6916 139.814 74.6278 139.997C74.5668 140.177 74.5363 140.368 74.5363 140.571ZM80.4611 142.443C80.6442 142.443 80.8134 142.406 80.9687 142.331C81.124 142.256 81.2516 142.153 81.3515 142.023C81.4514 141.89 81.5082 141.739 81.5221 141.569H82.2544C82.2405 141.836 82.1503 142.084 81.9839 142.314C81.8203 142.542 81.6053 142.726 81.339 142.868C81.0727 143.006 80.7801 143.076 80.4611 143.076C80.1227 143.076 79.8273 143.016 79.5749 142.897C79.3252 142.777 79.1172 142.614 78.9508 142.406C78.7871 142.198 78.6637 141.959 78.5805 141.69C78.5 141.418 78.4598 141.131 78.4598 140.829V140.654C78.4598 140.352 78.5 140.066 78.5805 139.797C78.6637 139.525 78.7871 139.285 78.9508 139.077C79.1172 138.869 79.3252 138.706 79.5749 138.586C79.8273 138.467 80.1227 138.407 80.4611 138.407C80.8134 138.407 81.1213 138.479 81.3848 138.624C81.6483 138.765 81.8549 138.959 82.0047 139.206C82.1573 139.45 82.2405 139.728 82.2544 140.038H81.5221C81.5082 139.853 81.4555 139.685 81.364 139.535C81.2752 139.385 81.1532 139.266 80.9978 139.177C80.8453 139.086 80.6664 139.04 80.4611 139.04C80.2253 139.04 80.027 139.087 79.8661 139.181C79.708 139.273 79.5818 139.398 79.4875 139.556C79.396 139.711 79.3294 139.884 79.2878 140.076C79.249 140.264 79.2295 140.457 79.2295 140.654V140.829C79.2295 141.026 79.249 141.22 79.2878 141.411C79.3266 141.603 79.3918 141.776 79.4834 141.931C79.5777 142.087 79.7039 142.212 79.862 142.306C80.0229 142.397 80.2226 142.443 80.4611 142.443ZM84.9879 143.076C84.6745 143.076 84.3902 143.023 84.135 142.918C83.8826 142.809 83.6648 142.658 83.4818 142.464C83.3015 142.27 83.1628 142.04 83.0657 141.773C82.9686 141.507 82.9201 141.216 82.9201 140.9V140.725C82.9201 140.359 82.9742 140.033 83.0823 139.747C83.1905 139.459 83.3375 139.215 83.5234 139.015C83.7092 138.815 83.92 138.664 84.1558 138.561C84.3916 138.459 84.6357 138.407 84.8881 138.407C85.2098 138.407 85.4872 138.463 85.7202 138.574C85.956 138.685 86.1488 138.84 86.2985 139.04C86.4483 139.237 86.5593 139.47 86.6314 139.739C86.7035 140.005 86.7396 140.296 86.7396 140.613V140.958H83.3777V140.33H85.9698V140.271C85.9588 140.072 85.9171 139.877 85.845 139.689C85.7757 139.5 85.6647 139.345 85.5122 139.223C85.3596 139.101 85.1516 139.04 84.8881 139.04C84.7133 139.04 84.5524 139.077 84.4054 139.152C84.2584 139.224 84.1322 139.332 84.0268 139.477C83.9214 139.621 83.8396 139.797 83.7813 140.005C83.7231 140.213 83.694 140.453 83.694 140.725V140.9C83.694 141.113 83.7231 141.314 83.7813 141.503C83.8424 141.689 83.9297 141.852 84.0435 141.994C84.16 142.135 84.3 142.246 84.4637 142.327C84.6301 142.407 84.8187 142.447 85.0295 142.447C85.3014 142.447 85.5316 142.392 85.7202 142.281C85.9088 142.17 86.0739 142.022 86.2153 141.836L86.6813 142.206C86.5842 142.353 86.4608 142.493 86.311 142.626C86.1612 142.759 85.9768 142.868 85.7577 142.951C85.5413 143.034 85.2847 143.076 84.9879 143.076ZM48.2783 150.571V150.529C48.2783 149.925 48.3462 149.378 48.4821 148.89C48.618 148.399 48.7914 147.969 49.0022 147.6C49.213 147.231 49.4349 146.926 49.6679 146.685C49.9009 146.441 50.1159 146.265 50.3128 146.156L50.4751 146.664C50.3114 146.789 50.145 146.961 49.9758 147.18C49.8094 147.399 49.6554 147.668 49.514 147.987C49.3753 148.306 49.2629 148.676 49.177 149.098C49.091 149.52 49.048 149.994 49.048 150.521V150.579C49.048 151.106 49.091 151.582 49.177 152.006C49.2629 152.428 49.3753 152.8 49.514 153.121C49.6554 153.443 49.8094 153.716 49.9758 153.941C50.145 154.169 50.3114 154.349 50.4751 154.482L50.3128 154.948C50.1159 154.84 49.9009 154.664 49.6679 154.42C49.4349 154.178 49.213 153.873 49.0022 153.504C48.7914 153.138 48.618 152.71 48.4821 152.219C48.3462 151.728 48.2783 151.178 48.2783 150.571ZM52.2683 149.585H52.8176C53.0866 149.585 53.3085 149.54 53.4833 149.452C53.6608 149.36 53.7925 149.237 53.8785 149.081C53.9673 148.923 54.0117 148.746 54.0117 148.549C54.0117 148.316 53.9728 148.12 53.8952 147.962C53.8175 147.804 53.701 147.685 53.5457 147.604C53.3903 147.524 53.1934 147.484 52.9549 147.484C52.7385 147.484 52.5471 147.527 52.3807 147.613C52.217 147.696 52.088 147.815 51.9937 147.97C51.9022 148.126 51.8564 148.309 51.8564 148.52H51.0867C51.0867 148.212 51.1644 147.932 51.3197 147.679C51.475 147.427 51.6928 147.226 51.9729 147.076C52.2559 146.926 52.5832 146.851 52.9549 146.851C53.321 146.851 53.6414 146.916 53.916 147.047C54.1906 147.174 54.4042 147.366 54.5567 147.621C54.7093 147.873 54.7856 148.188 54.7856 148.565C54.7856 148.718 54.7495 148.882 54.6774 149.056C54.608 149.228 54.4985 149.389 54.3487 149.539C54.2017 149.689 54.0103 149.812 53.7745 149.909C53.5387 150.004 53.2558 150.051 52.9257 150.051H52.2683V149.585ZM52.2683 150.217V149.755H52.9257C53.3113 149.755 53.6303 149.801 53.8827 149.893C54.1351 149.984 54.3334 150.106 54.4777 150.259C54.6247 150.411 54.7273 150.579 54.7856 150.762C54.8466 150.943 54.8771 151.123 54.8771 151.303C54.8771 151.586 54.8285 151.837 54.7315 152.056C54.6372 152.275 54.5026 152.461 54.3279 152.614C54.1559 152.766 53.9534 152.881 53.7204 152.959C53.4874 153.037 53.2336 153.076 52.959 153.076C52.6955 153.076 52.4473 153.038 52.2143 152.963C51.984 152.888 51.7802 152.78 51.6026 152.639C51.4251 152.495 51.2864 152.318 51.1866 152.11C51.0867 151.9 51.0368 151.66 51.0368 151.391H51.8065C51.8065 151.601 51.8523 151.786 51.9438 151.944C52.0381 152.102 52.1713 152.225 52.3432 152.314C52.518 152.4 52.7232 152.443 52.959 152.443C53.1948 152.443 53.3973 152.403 53.5665 152.323C53.7385 152.239 53.8702 152.115 53.9617 151.948C54.0561 151.782 54.1032 151.572 54.1032 151.32C54.1032 151.067 54.0505 150.861 53.9451 150.7C53.8397 150.536 53.6899 150.416 53.4957 150.338C53.3044 150.257 53.0783 150.217 52.8176 150.217H52.2683ZM57.0614 149.585H57.6107C57.8797 149.585 58.1016 149.54 58.2764 149.452C58.4539 149.36 58.5856 149.237 58.6716 149.081C58.7604 148.923 58.8048 148.746 58.8048 148.549C58.8048 148.316 58.7659 148.12 58.6883 147.962C58.6106 147.804 58.4941 147.685 58.3388 147.604C58.1834 147.524 57.9865 147.484 57.748 147.484C57.5316 147.484 57.3402 147.527 57.1738 147.613C57.0101 147.696 56.8812 147.815 56.7868 147.97C56.6953 148.126 56.6495 148.309 56.6495 148.52H55.8798C55.8798 148.212 55.9575 147.932 56.1128 147.679C56.2681 147.427 56.4859 147.226 56.766 147.076C57.049 146.926 57.3763 146.851 57.748 146.851C58.1141 146.851 58.4345 146.916 58.7091 147.047C58.9837 147.174 59.1973 147.366 59.3498 147.621C59.5024 147.873 59.5787 148.188 59.5787 148.565C59.5787 148.718 59.5426 148.882 59.4705 149.056C59.4011 149.228 59.2916 149.389 59.1418 149.539C58.9948 149.689 58.8034 149.812 58.5676 149.909C58.3318 150.004 58.0489 150.051 57.7188 150.051H57.0614V149.585ZM57.0614 150.217V149.755H57.7188C58.1044 149.755 58.4234 149.801 58.6758 149.893C58.9282 149.984 59.1265 150.106 59.2708 150.259C59.4178 150.411 59.5204 150.579 59.5787 150.762C59.6397 150.943 59.6702 151.123 59.6702 151.303C59.6702 151.586 59.6217 151.837 59.5246 152.056C59.4303 152.275 59.2957 152.461 59.121 152.614C58.949 152.766 58.7465 152.881 58.5135 152.959C58.2805 153.037 58.0267 153.076 57.7521 153.076C57.4886 153.076 57.2404 153.038 57.0074 152.963C56.7771 152.888 56.5733 152.78 56.3957 152.639C56.2182 152.495 56.0795 152.318 55.9797 152.11C55.8798 151.9 55.8299 151.66 55.8299 151.391H56.5996C56.5996 151.601 56.6454 151.786 56.7369 151.944C56.8312 152.102 56.9644 152.225 57.1363 152.314C57.3111 152.4 57.5163 152.443 57.7521 152.443C57.9879 152.443 58.1904 152.403 58.3596 152.323C58.5316 152.239 58.6633 152.115 58.7548 151.948C58.8492 151.782 58.8963 151.572 58.8963 151.32C58.8963 151.067 58.8436 150.861 58.7382 150.7C58.6328 150.536 58.483 150.416 58.2888 150.338C58.0975 150.257 57.8714 150.217 57.6107 150.217H57.0614ZM60.8269 152.585C60.8269 152.454 60.8671 152.345 60.9475 152.256C61.0307 152.164 61.15 152.119 61.3053 152.119C61.4607 152.119 61.5786 152.164 61.659 152.256C61.7422 152.345 61.7838 152.454 61.7838 152.585C61.7838 152.712 61.7422 152.82 61.659 152.909C61.5786 152.998 61.4607 153.042 61.3053 153.042C61.15 153.042 61.0307 152.998 60.9475 152.909C60.8671 152.82 60.8269 152.712 60.8269 152.585ZM66.7808 149.481V150.404C66.7808 150.901 66.7364 151.32 66.6477 151.661C66.5589 152.002 66.4313 152.277 66.2649 152.485C66.0984 152.693 65.8973 152.844 65.6616 152.938C65.4286 153.03 65.1651 153.076 64.871 153.076C64.638 153.076 64.4231 153.047 64.2261 152.988C64.0292 152.93 63.8517 152.837 63.6936 152.71C63.5382 152.579 63.4051 152.41 63.2941 152.202C63.1832 151.994 63.0986 151.741 63.0403 151.445C62.9821 151.148 62.953 150.801 62.953 150.404V149.481C62.953 148.984 62.9973 148.568 63.0861 148.233C63.1776 147.897 63.3066 147.628 63.4731 147.425C63.6395 147.22 63.8392 147.073 64.0722 146.984C64.308 146.896 64.5715 146.851 64.8627 146.851C65.0985 146.851 65.3148 146.88 65.5118 146.939C65.7115 146.994 65.889 147.084 66.0444 147.209C66.1997 147.331 66.3314 147.495 66.4396 147.7C66.5506 147.903 66.6352 148.151 66.6934 148.445C66.7517 148.739 66.7808 149.084 66.7808 149.481ZM66.0069 150.529V149.352C66.0069 149.08 65.9903 148.841 65.957 148.636C65.9265 148.428 65.8807 148.251 65.8197 148.104C65.7587 147.957 65.681 147.837 65.5867 147.746C65.4951 147.654 65.3884 147.588 65.2663 147.546C65.147 147.502 65.0125 147.48 64.8627 147.48C64.6797 147.48 64.5174 147.514 64.3759 147.584C64.2345 147.65 64.1152 147.757 64.0181 147.904C63.9238 148.051 63.8517 148.244 63.8017 148.482C63.7518 148.721 63.7269 149.011 63.7269 149.352V150.529C63.7269 150.801 63.7421 151.041 63.7726 151.249C63.8059 151.457 63.8544 151.637 63.9182 151.79C63.982 151.94 64.0597 152.063 64.1512 152.16C64.2428 152.257 64.3482 152.329 64.4675 152.377C64.5895 152.421 64.724 152.443 64.871 152.443C65.0597 152.443 65.2247 152.407 65.3662 152.335C65.5076 152.263 65.6255 152.151 65.7198 151.998C65.8169 151.843 65.889 151.644 65.9362 151.403C65.9833 151.159 66.0069 150.868 66.0069 150.529ZM71.5739 149.481V150.404C71.5739 150.901 71.5295 151.32 71.4408 151.661C71.352 152.002 71.2244 152.277 71.058 152.485C70.8915 152.693 70.6904 152.844 70.4547 152.938C70.2217 153.03 69.9582 153.076 69.6641 153.076C69.4311 153.076 69.2162 153.047 69.0192 152.988C68.8223 152.93 68.6448 152.837 68.4867 152.71C68.3313 152.579 68.1982 152.41 68.0872 152.202C67.9763 151.994 67.8917 151.741 67.8334 151.445C67.7752 151.148 67.7461 150.801 67.7461 150.404V149.481C67.7461 148.984 67.7905 148.568 67.8792 148.233C67.9707 147.897 68.0997 147.628 68.2662 147.425C68.4326 147.22 68.6323 147.073 68.8653 146.984C69.1011 146.896 69.3646 146.851 69.6558 146.851C69.8916 146.851 70.108 146.88 70.3049 146.939C70.5046 146.994 70.6821 147.084 70.8375 147.209C70.9928 147.331 71.1245 147.495 71.2327 147.7C71.3437 147.903 71.4283 148.151 71.4865 148.445C71.5448 148.739 71.5739 149.084 71.5739 149.481ZM70.8 150.529V149.352C70.8 149.08 70.7834 148.841 70.7501 148.636C70.7196 148.428 70.6738 148.251 70.6128 148.104C70.5518 147.957 70.4741 147.837 70.3798 147.746C70.2882 147.654 70.1815 147.588 70.0594 147.546C69.9401 147.502 69.8056 147.48 69.6558 147.48C69.4728 147.48 69.3105 147.514 69.169 147.584C69.0276 147.65 68.9083 147.757 68.8112 147.904C68.7169 148.051 68.6448 148.244 68.5949 148.482C68.5449 148.721 68.52 149.011 68.52 149.352V150.529C68.52 150.801 68.5352 151.041 68.5657 151.249C68.599 151.457 68.6476 151.637 68.7113 151.79C68.7751 151.94 68.8528 152.063 68.9443 152.16C69.0359 152.257 69.1413 152.329 69.2606 152.377C69.3826 152.421 69.5171 152.443 69.6641 152.443C69.8528 152.443 70.0178 152.407 70.1593 152.335C70.3007 152.263 70.4186 152.151 70.5129 151.998C70.61 151.843 70.6821 151.644 70.7293 151.403C70.7764 151.159 70.8 150.868 70.8 150.529ZM72.4976 148.42V148.099C72.4976 147.869 72.5475 147.66 72.6474 147.471C72.7472 147.283 72.8901 147.131 73.0759 147.018C73.2617 146.904 73.4823 146.847 73.7375 146.847C73.9982 146.847 74.2201 146.904 74.4032 147.018C74.589 147.131 74.7319 147.283 74.8317 147.471C74.9316 147.66 74.9815 147.869 74.9815 148.099V148.42C74.9815 148.645 74.9316 148.851 74.8317 149.04C74.7346 149.228 74.5932 149.38 74.4073 149.493C74.2243 149.607 74.0037 149.664 73.7458 149.664C73.4878 149.664 73.2645 149.607 73.0759 149.493C72.8901 149.38 72.7472 149.228 72.6474 149.04C72.5475 148.851 72.4976 148.645 72.4976 148.42ZM73.0759 148.099V148.42C73.0759 148.547 73.0995 148.668 73.1466 148.782C73.1966 148.896 73.2715 148.988 73.3713 149.061C73.4712 149.13 73.596 149.165 73.7458 149.165C73.8956 149.165 74.019 149.13 74.1161 149.061C74.2132 148.988 74.2853 148.896 74.3324 148.782C74.3796 148.668 74.4032 148.547 74.4032 148.42V148.099C74.4032 147.969 74.3782 147.847 74.3283 147.733C74.2811 147.617 74.2076 147.524 74.1078 147.455C74.0107 147.382 73.8872 147.346 73.7375 147.346C73.5904 147.346 73.467 147.382 73.3672 147.455C73.2701 147.524 73.1966 147.617 73.1466 147.733C73.0995 147.847 73.0759 147.969 73.0759 148.099ZM75.4475 151.832V151.507C75.4475 151.28 75.4974 151.072 75.5973 150.883C75.6971 150.694 75.84 150.543 76.0258 150.429C76.2117 150.316 76.4322 150.259 76.6874 150.259C76.9481 150.259 77.17 150.316 77.3531 150.429C77.5389 150.543 77.6818 150.694 77.7816 150.883C77.8815 151.072 77.9314 151.28 77.9314 151.507V151.832C77.9314 152.059 77.8815 152.267 77.7816 152.456C77.6846 152.644 77.5431 152.795 77.3572 152.909C77.1742 153.023 76.9537 153.08 76.6957 153.08C76.4377 153.08 76.2158 153.023 76.03 152.909C75.8441 152.795 75.6999 152.644 75.5973 152.456C75.4974 152.267 75.4475 152.059 75.4475 151.832ZM76.0258 151.507V151.832C76.0258 151.959 76.0494 152.081 76.0966 152.198C76.1465 152.311 76.2214 152.404 76.3212 152.477C76.4211 152.546 76.5459 152.581 76.6957 152.581C76.8455 152.581 76.9689 152.546 77.066 152.477C77.1659 152.404 77.2394 152.311 77.2865 152.198C77.3337 152.084 77.3572 151.962 77.3572 151.832V151.507C77.3572 151.377 77.3323 151.255 77.2824 151.141C77.2352 151.027 77.1617 150.936 77.0618 150.866C76.9648 150.794 76.8399 150.758 76.6874 150.758C76.5404 150.758 76.4169 150.794 76.3171 150.866C76.22 150.936 76.1465 151.027 76.0966 151.141C76.0494 151.255 76.0258 151.377 76.0258 151.507ZM76.8788 147.796L73.9205 152.531L73.4878 152.256L76.4461 147.521L76.8788 147.796ZM80.6608 150.529V150.571C80.6608 151.178 80.5929 151.728 80.4569 152.219C80.321 152.71 80.1477 153.138 79.9369 153.504C79.7261 153.873 79.5042 154.178 79.2712 154.42C79.0382 154.664 78.8232 154.84 78.6262 154.948L78.464 154.482C78.6276 154.357 78.7927 154.182 78.9591 153.958C79.1255 153.736 79.2795 153.461 79.4209 153.134C79.5624 152.809 79.6761 152.435 79.7621 152.011C79.8481 151.583 79.8911 151.106 79.8911 150.579V150.521C79.8911 149.994 79.8453 149.518 79.7538 149.094C79.6623 148.667 79.543 148.291 79.396 147.966C79.2517 147.642 79.0964 147.369 78.93 147.147C78.7663 146.922 78.611 146.749 78.464 146.627L78.6262 146.156C78.8232 146.265 79.0382 146.441 79.2712 146.685C79.5042 146.926 79.7261 147.231 79.9369 147.6C80.1477 147.969 80.321 148.399 80.4569 148.89C80.5929 149.378 80.6608 149.925 80.6608 150.529Z" fill="white"/>
<path d="M25.0484 70.3392V70.9924H21.8405V70.3392H25.0484ZM22.0027 64.9345V70.9924H21.1997V64.9345H22.0027ZM24.624 67.5391V68.1923H21.8405V67.5391H24.624ZM25.0068 64.9345V65.5919H21.8405V64.9345H25.0068ZM29.2715 69.4613C29.2715 69.3198 29.2493 69.195 29.2049 69.0868C29.1633 68.9759 29.0884 68.876 28.9802 68.7873C28.8748 68.6985 28.7278 68.6139 28.5392 68.5335C28.3533 68.453 28.1176 68.3712 27.8319 68.288C27.5323 68.1992 27.2618 68.1008 27.0205 67.9926C26.7792 67.8816 26.5726 67.7554 26.4006 67.614C26.2286 67.4725 26.0969 67.3102 26.0053 67.1272C25.9138 66.9441 25.868 66.7347 25.868 66.4989C25.868 66.2631 25.9166 66.0454 26.0136 65.8457C26.1107 65.646 26.2494 65.4726 26.4297 65.3256C26.6128 65.1758 26.8305 65.0593 27.0829 64.9761C27.3354 64.8929 27.6169 64.8513 27.9276 64.8513C28.3825 64.8513 28.768 64.9386 29.0842 65.1134C29.4032 65.2854 29.6459 65.5114 29.8123 65.7916C29.9788 66.069 30.062 66.3658 30.062 66.682H29.2631C29.2631 66.4545 29.2146 66.2534 29.1175 66.0787C29.0204 65.9011 28.8734 65.7625 28.6765 65.6626C28.4795 65.56 28.2299 65.5087 27.9276 65.5087C27.6419 65.5087 27.4061 65.5516 27.2202 65.6376C27.0344 65.7236 26.8957 65.8401 26.8042 65.9871C26.7154 66.1341 26.671 66.302 26.671 66.4906C26.671 66.6182 26.6974 66.7347 26.7501 66.8401C26.8056 66.9427 26.8902 67.0384 27.0039 67.1272C27.1204 67.2159 27.2674 67.2977 27.4449 67.3726C27.6252 67.4475 27.8402 67.5197 28.0898 67.589C28.4338 67.6861 28.7306 67.7943 28.9802 67.9135C29.2298 68.0328 29.4351 68.1673 29.596 68.3171C29.7596 68.4641 29.8803 68.6319 29.958 68.8206C30.0384 69.0064 30.0786 69.2172 30.0786 69.453C30.0786 69.6998 30.0287 69.9231 29.9288 70.1228C29.829 70.3226 29.6861 70.4932 29.5003 70.6346C29.3144 70.7761 29.0912 70.8856 28.8304 70.9633C28.5725 71.0382 28.284 71.0756 27.965 71.0756C27.6848 71.0756 27.4089 71.0368 27.137 70.9591C26.868 70.8815 26.6225 70.765 26.4006 70.6096C26.1815 70.4543 26.0053 70.2629 25.8722 70.0355C25.7418 69.8053 25.6766 69.539 25.6766 69.2366H26.4755C26.4755 69.4447 26.5157 69.6236 26.5961 69.7734C26.6766 69.9204 26.7861 70.0424 26.9248 70.1395C27.0663 70.2366 27.2258 70.3087 27.4033 70.3558C27.5836 70.4002 27.7708 70.4224 27.965 70.4224C28.2452 70.4224 28.4823 70.3836 28.6765 70.3059C28.8706 70.2283 29.0177 70.1173 29.1175 69.9731C29.2201 69.8288 29.2715 69.6582 29.2715 69.4613ZM35.579 67.9759V70.1936C35.5042 70.3045 35.3849 70.4294 35.2212 70.568C35.0576 70.704 34.8315 70.8232 34.543 70.9259C34.2573 71.0257 33.8884 71.0756 33.4363 71.0756C33.0674 71.0756 32.7276 71.0118 32.4169 70.8843C32.109 70.7539 31.8414 70.5653 31.6139 70.3184C31.3892 70.0688 31.2145 69.7664 31.0897 69.4114C30.9676 69.0536 30.9066 68.6486 30.9066 68.1965V67.7263C30.9066 67.2742 30.9593 66.8706 31.0647 66.5155C31.1729 66.1605 31.331 65.8595 31.539 65.6127C31.7471 65.363 32.0022 65.1744 32.3046 65.0468C32.6069 64.9165 32.9537 64.8513 33.3448 64.8513C33.808 64.8513 34.1949 64.9317 34.5056 65.0926C34.819 65.2507 35.0631 65.4698 35.2379 65.75C35.4154 66.0301 35.5291 66.3491 35.579 66.7069H34.776C34.74 66.4878 34.6679 66.2881 34.5597 66.1078C34.4543 65.9275 34.3031 65.7833 34.1062 65.6751C33.9092 65.5641 33.6554 65.5087 33.3448 65.5087C33.0646 65.5087 32.8219 65.56 32.6166 65.6626C32.4114 65.7652 32.2422 65.9122 32.109 66.1036C31.9759 66.295 31.876 66.5266 31.8095 66.7985C31.7457 67.0703 31.7138 67.3768 31.7138 67.718V68.1965C31.7138 68.546 31.754 68.858 31.8344 69.1326C31.9176 69.4072 32.0355 69.6416 32.1881 69.8358C32.3406 70.0272 32.5223 70.1728 32.7331 70.2726C32.9467 70.3725 33.1825 70.4224 33.4405 70.4224C33.7262 70.4224 33.9578 70.3988 34.1353 70.3517C34.3128 70.3018 34.4515 70.2435 34.5514 70.1769C34.6512 70.1076 34.7275 70.0424 34.7802 69.9814V68.625H33.378V67.9759H35.579ZM39.0241 64.9345H41.0295C41.4844 64.9345 41.8686 65.0038 42.182 65.1425C42.4983 65.2812 42.7382 65.4865 42.9018 65.7583C43.0683 66.0274 43.1515 66.3588 43.1515 66.7527C43.1515 67.0301 43.0946 67.2839 42.9809 67.5141C42.8699 67.7416 42.7091 67.9357 42.4983 68.0966C42.2902 68.2547 42.0406 68.3726 41.7493 68.4503L41.5247 68.5376H39.6399L39.6315 67.8844H41.0545C41.343 67.8844 41.5829 67.8345 41.7743 67.7346C41.9657 67.632 42.1099 67.4947 42.207 67.3227C42.3041 67.1507 42.3526 66.9607 42.3526 66.7527C42.3526 66.5197 42.3069 66.3158 42.2153 66.1411C42.1238 65.9663 41.9796 65.8318 41.7826 65.7375C41.5885 65.6404 41.3374 65.5919 41.0295 65.5919H39.8271V70.9924H39.0241V64.9345ZM42.5648 70.9924L41.0919 68.2464L41.9282 68.2422L43.4219 70.9425V70.9924H42.5648ZM46.8129 70.2227V67.9052C46.8129 67.7277 46.7768 67.5737 46.7047 67.4434C46.6354 67.3102 46.53 67.2076 46.3885 67.1355C46.247 67.0634 46.0723 67.0273 45.8642 67.0273C45.6701 67.0273 45.4995 67.0606 45.3525 67.1272C45.2082 67.1937 45.0945 67.2811 45.0113 67.3893C44.9309 67.4975 44.8906 67.614 44.8906 67.7388H44.1209C44.1209 67.5779 44.1625 67.4184 44.2457 67.2603C44.329 67.1022 44.4482 66.9593 44.6036 66.8318C44.7617 66.7014 44.9503 66.5988 45.1694 66.5239C45.3913 66.4462 45.6382 66.4074 45.91 66.4074C46.2373 66.4074 46.5258 66.4628 46.7754 66.5738C47.0278 66.6847 47.2248 66.8526 47.3663 67.0772C47.5105 67.2991 47.5826 67.5779 47.5826 67.9135V70.0105C47.5826 70.1603 47.5951 70.3198 47.6201 70.489C47.6478 70.6582 47.688 70.8038 47.7407 70.9259V70.9924H46.9377C46.8989 70.9037 46.8684 70.7858 46.8462 70.6388C46.824 70.489 46.8129 70.3503 46.8129 70.2227ZM46.946 68.263L46.9543 68.8039H46.1763C45.9572 68.8039 45.7616 68.8219 45.5896 68.858C45.4177 68.8913 45.2734 68.9426 45.1569 69.0119C45.0404 69.0813 44.9517 69.1687 44.8906 69.2741C44.8296 69.3767 44.7991 69.4974 44.7991 69.6361C44.7991 69.7775 44.831 69.9065 44.8948 70.023C44.9586 70.1395 45.0543 70.2324 45.1819 70.3018C45.3123 70.3683 45.4718 70.4016 45.6604 70.4016C45.8961 70.4016 46.1042 70.3517 46.2845 70.2518C46.4648 70.152 46.6076 70.0299 46.713 69.8857C46.8212 69.7415 46.8795 69.6014 46.8878 69.4655L47.2165 69.8358C47.197 69.9523 47.1443 70.0812 47.0584 70.2227C46.9724 70.3642 46.8573 70.5001 46.713 70.6305C46.5716 70.758 46.4024 70.8648 46.2054 70.9508C46.0113 71.034 45.7921 71.0756 45.548 71.0756C45.2429 71.0756 44.9752 71.016 44.745 70.8967C44.5176 70.7775 44.34 70.618 44.2125 70.4183C44.0876 70.2158 44.0252 69.9897 44.0252 69.7401C44.0252 69.4987 44.0724 69.2866 44.1667 69.1035C44.261 68.9176 44.3969 68.7637 44.5744 68.6416C44.752 68.5168 44.9655 68.4225 45.2152 68.3587C45.4648 68.2949 45.7436 68.263 46.0515 68.263H46.946ZM50.6782 66.4906V67.0814H48.2442V66.4906H50.6782ZM49.068 65.3963H49.8377V69.8774C49.8377 70.0299 49.8613 70.145 49.9084 70.2227C49.9556 70.3004 50.0166 70.3517 50.0915 70.3767C50.1664 70.4016 50.2468 70.4141 50.3328 70.4141C50.3966 70.4141 50.4632 70.4085 50.5325 70.3975C50.6046 70.3836 50.6587 70.3725 50.6948 70.3642L50.699 70.9924C50.6379 71.0118 50.5575 71.0299 50.4576 71.0465C50.3606 71.0659 50.2427 71.0756 50.104 71.0756C49.9154 71.0756 49.742 71.0382 49.5839 70.9633C49.4258 70.8884 49.2996 70.7636 49.2053 70.5888C49.1137 70.4113 49.068 70.1728 49.068 69.8732V65.3963ZM52.4173 66.4906V70.9924H51.6434V66.4906H52.4173ZM51.5852 65.2965C51.5852 65.1716 51.6226 65.0662 51.6975 64.9802C51.7752 64.8943 51.8889 64.8513 52.0387 64.8513C52.1857 64.8513 52.298 64.8943 52.3757 64.9802C52.4561 65.0662 52.4964 65.1716 52.4964 65.2965C52.4964 65.4157 52.4561 65.5184 52.3757 65.6044C52.298 65.6876 52.1857 65.7292 52.0387 65.7292C51.8889 65.7292 51.7752 65.6876 51.6975 65.6044C51.6226 65.5184 51.5852 65.4157 51.5852 65.2965ZM53.4492 68.7914V68.6957C53.4492 68.3712 53.4963 68.0702 53.5906 67.7929C53.6849 67.5127 53.8208 67.27 53.9984 67.0648C54.1759 66.8567 54.3909 66.6958 54.6433 66.5821C54.8957 66.4656 55.1786 66.4074 55.4921 66.4074C55.8083 66.4074 56.0926 66.4656 56.345 66.5821C56.6002 66.6958 56.8165 66.8567 56.9941 67.0648C57.1744 67.27 57.3117 67.5127 57.406 67.7929C57.5003 68.0702 57.5474 68.3712 57.5474 68.6957V68.7914C57.5474 69.116 57.5003 69.4169 57.406 69.6943C57.3117 69.9717 57.1744 70.2144 56.9941 70.4224C56.8165 70.6277 56.6016 70.7886 56.3492 70.9051C56.0995 71.0188 55.8166 71.0756 55.5004 71.0756C55.1842 71.0756 54.8999 71.0188 54.6474 70.9051C54.395 70.7886 54.1787 70.6277 53.9984 70.4224C53.8208 70.2144 53.6849 69.9717 53.5906 69.6943C53.4963 69.4169 53.4492 69.116 53.4492 68.7914ZM54.2189 68.6957V68.7914C54.2189 69.0161 54.2452 69.2283 54.2979 69.428C54.3506 69.625 54.4297 69.7997 54.5351 69.9523C54.6433 70.1048 54.7778 70.2255 54.9387 70.3142C55.0996 70.4002 55.2868 70.4432 55.5004 70.4432C55.7112 70.4432 55.8956 70.4002 56.0537 70.3142C56.2146 70.2255 56.3478 70.1048 56.4532 69.9523C56.5586 69.7997 56.6376 69.625 56.6903 69.428C56.7458 69.2283 56.7735 69.0161 56.7735 68.7914V68.6957C56.7735 68.4738 56.7458 68.2644 56.6903 68.0675C56.6376 67.8678 56.5572 67.6916 56.449 67.5391C56.3436 67.3837 56.2105 67.2617 56.0496 67.1729C55.8915 67.0842 55.7056 67.0398 55.4921 67.0398C55.2812 67.0398 55.0954 67.0842 54.9345 67.1729C54.7764 67.2617 54.6433 67.3837 54.5351 67.5391C54.4297 67.6916 54.3506 67.8678 54.2979 68.0675C54.2452 68.2644 54.2189 68.4738 54.2189 68.6957ZM63.9715 69.4613C63.9715 69.3198 63.9493 69.195 63.905 69.0868C63.8633 68.9759 63.7885 68.876 63.6803 68.7873C63.5749 68.6985 63.4279 68.6139 63.2392 68.5335C63.0534 68.453 62.8176 68.3712 62.5319 68.288C62.2324 68.1992 61.9619 68.1008 61.7206 67.9926C61.4793 67.8816 61.2726 67.7554 61.1007 67.614C60.9287 67.4725 60.7969 67.3102 60.7054 67.1272C60.6139 66.9441 60.5681 66.7347 60.5681 66.4989C60.5681 66.2631 60.6166 66.0454 60.7137 65.8457C60.8108 65.646 60.9495 65.4726 61.1298 65.3256C61.3128 65.1758 61.5306 65.0593 61.783 64.9761C62.0354 64.8929 62.317 64.8513 62.6276 64.8513C63.0825 64.8513 63.4681 64.9386 63.7843 65.1134C64.1033 65.2854 64.346 65.5114 64.5124 65.7916C64.6788 66.069 64.7621 66.3658 64.7621 66.682H63.9632C63.9632 66.4545 63.9147 66.2534 63.8176 66.0787C63.7205 65.9011 63.5735 65.7625 63.3765 65.6626C63.1796 65.56 62.93 65.5087 62.6276 65.5087C62.3419 65.5087 62.1062 65.5516 61.9203 65.6376C61.7345 65.7236 61.5958 65.8401 61.5042 65.9871C61.4155 66.1341 61.3711 66.302 61.3711 66.4906C61.3711 66.6182 61.3974 66.7347 61.4502 66.8401C61.5056 66.9427 61.5902 67.0384 61.704 67.1272C61.8205 67.2159 61.9675 67.2977 62.145 67.3726C62.3253 67.4475 62.5402 67.5197 62.7899 67.589C63.1338 67.6861 63.4306 67.7943 63.6803 67.9135C63.9299 68.0328 64.1352 68.1673 64.2961 68.3171C64.4597 68.4641 64.5804 68.6319 64.658 68.8206C64.7385 69.0064 64.7787 69.2172 64.7787 69.453C64.7787 69.6998 64.7288 69.9231 64.6289 70.1228C64.5291 70.3226 64.3862 70.4932 64.2004 70.6346C64.0145 70.7761 63.7912 70.8856 63.5305 70.9633C63.2725 71.0382 62.9841 71.0756 62.6651 71.0756C62.3849 71.0756 62.1089 71.0368 61.8371 70.9591C61.568 70.8815 61.3226 70.765 61.1007 70.6096C60.8815 70.4543 60.7054 70.2629 60.5722 70.0355C60.4419 69.8053 60.3767 69.539 60.3767 69.2366H61.1755C61.1755 69.4447 61.2158 69.6236 61.2962 69.7734C61.3766 69.9204 61.4862 70.0424 61.6249 70.1395C61.7664 70.2366 61.9259 70.3087 62.1034 70.3558C62.2837 70.4002 62.4709 70.4224 62.6651 70.4224C62.9452 70.4224 63.1824 70.3836 63.3765 70.3059C63.5707 70.2283 63.7177 70.1173 63.8176 69.9731C63.9202 69.8288 63.9715 69.6582 63.9715 69.4613ZM65.4818 68.7914V68.6957C65.4818 68.3712 65.529 68.0702 65.6233 67.7929C65.7176 67.5127 65.8535 67.27 66.0311 67.0648C66.2086 66.8567 66.4235 66.6958 66.676 66.5821C66.9284 66.4656 67.2113 66.4074 67.5247 66.4074C67.841 66.4074 68.1253 66.4656 68.3777 66.5821C68.6329 66.6958 68.8492 66.8567 69.0267 67.0648C69.207 67.27 69.3443 67.5127 69.4387 67.7929C69.533 68.0702 69.5801 68.3712 69.5801 68.6957V68.7914C69.5801 69.116 69.533 69.4169 69.4387 69.6943C69.3443 69.9717 69.207 70.2144 69.0267 70.4224C68.8492 70.6277 68.6343 70.7886 68.3818 70.9051C68.1322 71.0188 67.8493 71.0756 67.5331 71.0756C67.2168 71.0756 66.9325 71.0188 66.6801 70.9051C66.4277 70.7886 66.2114 70.6277 66.0311 70.4224C65.8535 70.2144 65.7176 69.9717 65.6233 69.6943C65.529 69.4169 65.4818 69.116 65.4818 68.7914ZM66.2516 68.6957V68.7914C66.2516 69.0161 66.2779 69.2283 66.3306 69.428C66.3833 69.625 66.4624 69.7997 66.5678 69.9523C66.676 70.1048 66.8105 70.2255 66.9714 70.3142C67.1322 70.4002 67.3195 70.4432 67.5331 70.4432C67.7439 70.4432 67.9283 70.4002 68.0864 70.3142C68.2473 70.2255 68.3805 70.1048 68.4859 69.9523C68.5913 69.7997 68.6703 69.625 68.723 69.428C68.7785 69.2283 68.8062 69.0161 68.8062 68.7914V68.6957C68.8062 68.4738 68.7785 68.2644 68.723 68.0675C68.6703 67.8678 68.5899 67.6916 68.4817 67.5391C68.3763 67.3837 68.2432 67.2617 68.0823 67.1729C67.9242 67.0842 67.7383 67.0398 67.5247 67.0398C67.3139 67.0398 67.1281 67.0842 66.9672 67.1729C66.8091 67.2617 66.676 67.3837 66.5678 67.5391C66.4624 67.6916 66.3833 67.8678 66.3306 68.0675C66.2779 68.2644 66.2516 68.4738 66.2516 68.6957ZM72.347 70.4432C72.53 70.4432 72.6992 70.4058 72.8546 70.3309C73.0099 70.256 73.1375 70.1534 73.2374 70.023C73.3372 69.8899 73.3941 69.7387 73.4079 69.5695H74.1402C74.1264 69.8358 74.0362 70.084 73.8698 70.3142C73.7061 70.5417 73.4912 70.7261 73.2249 70.8676C72.9586 71.0063 72.666 71.0756 72.347 71.0756C72.0086 71.0756 71.7132 71.016 71.4607 70.8967C71.2111 70.7775 71.0031 70.6138 70.8366 70.4058C70.673 70.1977 70.5496 69.9592 70.4663 69.6901C70.3859 69.4183 70.3457 69.1312 70.3457 68.8289V68.6541C70.3457 68.3518 70.3859 68.0661 70.4663 67.797C70.5496 67.5252 70.673 67.2853 70.8366 67.0772C71.0031 66.8692 71.2111 66.7055 71.4607 66.5863C71.7132 66.467 72.0086 66.4074 72.347 66.4074C72.6992 66.4074 73.0071 66.4795 73.2706 66.6237C73.5342 66.7652 73.7408 66.9593 73.8906 67.2062C74.0431 67.4503 74.1264 67.7277 74.1402 68.0383H73.4079C73.3941 67.8525 73.3414 67.6847 73.2498 67.5349C73.1611 67.3851 73.039 67.2658 72.8837 67.1771C72.7311 67.0856 72.5522 67.0398 72.347 67.0398C72.1112 67.0398 71.9129 67.0869 71.752 67.1812C71.5939 67.2728 71.4677 67.3976 71.3734 67.5557C71.2818 67.711 71.2153 67.8844 71.1737 68.0758C71.1348 68.2644 71.1154 68.4572 71.1154 68.6541V68.8289C71.1154 69.0258 71.1348 69.22 71.1737 69.4114C71.2125 69.6028 71.2777 69.7761 71.3692 69.9315C71.4635 70.0868 71.5897 70.2116 71.7478 70.3059C71.9087 70.3975 72.1084 70.4432 72.347 70.4432ZM75.8419 66.4906V70.9924H75.0681V66.4906H75.8419ZM75.0098 65.2965C75.0098 65.1716 75.0472 65.0662 75.1221 64.9802C75.1998 64.8943 75.3135 64.8513 75.4633 64.8513C75.6103 64.8513 75.7227 64.8943 75.8003 64.9802C75.8808 65.0662 75.921 65.1716 75.921 65.2965C75.921 65.4157 75.8808 65.5184 75.8003 65.6044C75.7227 65.6876 75.6103 65.7292 75.4633 65.7292C75.3135 65.7292 75.1998 65.6876 75.1221 65.6044C75.0472 65.5184 75.0098 65.4157 75.0098 65.2965ZM79.7322 70.2227V67.9052C79.7322 67.7277 79.6961 67.5737 79.624 67.4434C79.5547 67.3102 79.4492 67.2076 79.3078 67.1355C79.1663 67.0634 78.9916 67.0273 78.7835 67.0273C78.5894 67.0273 78.4188 67.0606 78.2718 67.1272C78.1275 67.1937 78.0138 67.2811 77.9306 67.3893C77.8502 67.4975 77.8099 67.614 77.8099 67.7388H77.0402C77.0402 67.5779 77.0818 67.4184 77.165 67.2603C77.2482 67.1022 77.3675 66.9593 77.5229 66.8318C77.681 66.7014 77.8696 66.5988 78.0887 66.5239C78.3106 66.4462 78.5575 66.4074 78.8293 66.4074C79.1566 66.4074 79.4451 66.4628 79.6947 66.5738C79.9471 66.6847 80.1441 66.8526 80.2855 67.0772C80.4298 67.2991 80.5019 67.5779 80.5019 67.9135V70.0105C80.5019 70.1603 80.5144 70.3198 80.5393 70.489C80.5671 70.6582 80.6073 70.8038 80.66 70.9259V70.9924H79.857C79.8182 70.9037 79.7876 70.7858 79.7655 70.6388C79.7433 70.489 79.7322 70.3503 79.7322 70.2227ZM79.8653 68.263L79.8736 68.8039H79.0956C78.8765 68.8039 78.6809 68.8219 78.5089 68.858C78.337 68.8913 78.1927 68.9426 78.0762 69.0119C77.9597 69.0813 77.871 69.1687 77.8099 69.2741C77.7489 69.3767 77.7184 69.4974 77.7184 69.6361C77.7184 69.7775 77.7503 69.9065 77.8141 70.023C77.8779 70.1395 77.9736 70.2324 78.1012 70.3018C78.2316 70.3683 78.391 70.4016 78.5797 70.4016C78.8154 70.4016 79.0235 70.3517 79.2038 70.2518C79.3841 70.152 79.5269 70.0299 79.6323 69.8857C79.7405 69.7415 79.7987 69.6014 79.8071 69.4655L80.1358 69.8358C80.1163 69.9523 80.0636 70.0812 79.9777 70.2227C79.8917 70.3642 79.7766 70.5001 79.6323 70.6305C79.4909 70.758 79.3217 70.8648 79.1247 70.9508C78.9305 71.034 78.7114 71.0756 78.4673 71.0756C78.1622 71.0756 77.8945 71.016 77.6643 70.8967C77.4369 70.7775 77.2593 70.618 77.1317 70.4183C77.0069 70.2158 76.9445 69.9897 76.9445 69.7401C76.9445 69.4987 76.9917 69.2866 77.086 69.1035C77.1803 68.9176 77.3162 68.7637 77.4937 68.6416C77.6713 68.5168 77.8848 68.4225 78.1345 68.3587C78.3841 68.2949 78.6629 68.263 78.9708 68.263H79.8653ZM82.549 64.6016V70.9924H81.7751V64.6016H82.549ZM33.7359 78.5709V78.5293C33.7359 77.9246 33.8038 77.3782 33.9397 76.89C34.0757 76.399 34.249 75.9691 34.4598 75.6002C34.6706 75.2313 34.8925 74.9262 35.1255 74.6848C35.3585 74.4407 35.5735 74.2646 35.7704 74.1564L35.9327 74.664C35.769 74.7889 35.6026 74.9608 35.4334 75.18C35.267 75.3991 35.113 75.6681 34.9716 75.9871C34.8329 76.3061 34.7206 76.6764 34.6346 77.098C34.5486 77.5197 34.5056 77.994 34.5056 78.521V78.5792C34.5056 79.1063 34.5486 79.582 34.6346 80.0064C34.7206 80.428 34.8329 80.7997 34.9716 81.1214C35.113 81.4432 35.267 81.7164 35.4334 81.9411C35.6026 82.1685 35.769 82.3488 35.9327 82.482L35.7704 82.948C35.5735 82.8398 35.3585 82.6636 35.1255 82.4195C34.8925 82.1782 34.6706 81.8731 34.4598 81.5042C34.249 81.1381 34.0757 80.7095 33.9397 80.2185C33.8038 79.7276 33.7359 79.1784 33.7359 78.5709ZM37.726 77.5848H38.2752C38.5442 77.5848 38.7661 77.5405 38.9409 77.4517C39.1184 77.3602 39.2501 77.2367 39.3361 77.0814C39.4249 76.9233 39.4693 76.7458 39.4693 76.5488C39.4693 76.3158 39.4304 76.1203 39.3528 75.9622C39.2751 75.8041 39.1586 75.6848 39.0033 75.6044C38.848 75.5239 38.651 75.4837 38.4125 75.4837C38.1961 75.4837 38.0047 75.5267 37.8383 75.6127C37.6746 75.6959 37.5457 75.8152 37.4513 75.9705C37.3598 76.1258 37.314 76.3089 37.314 76.5197H36.5443C36.5443 76.2118 36.622 75.9317 36.7773 75.6792C36.9327 75.4268 37.1504 75.2257 37.4305 75.0759C37.7135 74.9262 38.0408 74.8513 38.4125 74.8513C38.7786 74.8513 39.099 74.9165 39.3736 75.0468C39.6482 75.1744 39.8618 75.3658 40.0143 75.621C40.1669 75.8734 40.2432 76.1882 40.2432 76.5655C40.2432 76.718 40.2071 76.8817 40.135 77.0564C40.0656 77.2284 39.9561 77.3893 39.8063 77.5391C39.6593 77.6889 39.4679 77.8123 39.2321 77.9094C38.9963 78.0037 38.7134 78.0508 38.3833 78.0508H37.726V77.5848ZM37.726 78.2173V77.7554H38.3833C38.7689 77.7554 39.0879 77.8012 39.3403 77.8927C39.5927 77.9843 39.791 78.1063 39.9353 78.2589C40.0823 78.4114 40.1849 78.5792 40.2432 78.7623C40.3042 78.9426 40.3347 79.1229 40.3347 79.3032C40.3347 79.5861 40.2862 79.8371 40.1891 80.0563C40.0948 80.2754 39.9602 80.4613 39.7855 80.6138C39.6135 80.7664 39.411 80.8815 39.178 80.9591C38.945 81.0368 38.6912 81.0756 38.4166 81.0756C38.1531 81.0756 37.9049 81.0382 37.6719 80.9633C37.4416 80.8884 37.2378 80.7802 37.0602 80.6388C36.8827 80.4945 36.744 80.3184 36.6442 80.1104C36.5443 79.8996 36.4944 79.6596 36.4944 79.3906H37.2641C37.2641 79.6014 37.3099 79.7858 37.4014 79.9439C37.4957 80.102 37.6289 80.2255 37.8008 80.3142C37.9756 80.4002 38.1809 80.4432 38.4166 80.4432C38.6524 80.4432 38.8549 80.403 39.0241 80.3226C39.1961 80.2393 39.3278 80.1145 39.4194 79.9481C39.5137 79.7817 39.5608 79.5723 39.5608 79.3198C39.5608 79.0674 39.5081 78.8608 39.4027 78.6999C39.2973 78.5362 39.1475 78.4156 38.9534 78.3379C38.762 78.2575 38.5359 78.2173 38.2752 78.2173H37.726ZM42.5191 77.5848H43.0683C43.3373 77.5848 43.5592 77.5405 43.734 77.4517C43.9115 77.3602 44.0433 77.2367 44.1292 77.0814C44.218 76.9233 44.2624 76.7458 44.2624 76.5488C44.2624 76.3158 44.2235 76.1203 44.1459 75.9622C44.0682 75.8041 43.9517 75.6848 43.7964 75.6044C43.6411 75.5239 43.4441 75.4837 43.2056 75.4837C42.9892 75.4837 42.7978 75.5267 42.6314 75.6127C42.4677 75.6959 42.3388 75.8152 42.2445 75.9705C42.1529 76.1258 42.1071 76.3089 42.1071 76.5197H41.3374C41.3374 76.2118 41.4151 75.9317 41.5704 75.6792C41.7258 75.4268 41.9435 75.2257 42.2236 75.0759C42.5066 74.9262 42.8339 74.8513 43.2056 74.8513C43.5717 74.8513 43.8921 74.9165 44.1667 75.0468C44.4413 75.1744 44.6549 75.3658 44.8074 75.621C44.96 75.8734 45.0363 76.1882 45.0363 76.5655C45.0363 76.718 45.0002 76.8817 44.9281 77.0564C44.8587 77.2284 44.7492 77.3893 44.5994 77.5391C44.4524 77.6889 44.261 77.8123 44.0252 77.9094C43.7895 78.0037 43.5065 78.0508 43.1764 78.0508H42.5191V77.5848ZM42.5191 78.2173V77.7554H43.1764C43.562 77.7554 43.881 77.8012 44.1334 77.8927C44.3858 77.9843 44.5841 78.1063 44.7284 78.2589C44.8754 78.4114 44.978 78.5792 45.0363 78.7623C45.0973 78.9426 45.1278 79.1229 45.1278 79.3032C45.1278 79.5861 45.0793 79.8371 44.9822 80.0563C44.8879 80.2754 44.7533 80.4613 44.5786 80.6138C44.4066 80.7664 44.2041 80.8815 43.9711 80.9591C43.7381 81.0368 43.4843 81.0756 43.2097 81.0756C42.9462 81.0756 42.698 81.0382 42.465 80.9633C42.2347 80.8884 42.0309 80.7802 41.8533 80.6388C41.6758 80.4945 41.5371 80.3184 41.4373 80.1104C41.3374 79.8996 41.2875 79.6596 41.2875 79.3906H42.0572C42.0572 79.6014 42.103 79.7858 42.1945 79.9439C42.2888 80.102 42.422 80.2255 42.5939 80.3142C42.7687 80.4002 42.974 80.4432 43.2097 80.4432C43.4455 80.4432 43.648 80.403 43.8172 80.3226C43.9892 80.2393 44.1209 80.1145 44.2125 79.9481C44.3068 79.7817 44.3539 79.5723 44.3539 79.3198C44.3539 79.0674 44.3012 78.8608 44.1958 78.6999C44.0904 78.5362 43.9406 78.4156 43.7465 78.3379C43.5551 78.2575 43.329 78.2173 43.0683 78.2173H42.5191ZM46.2845 80.5847C46.2845 80.4543 46.3247 80.3448 46.4051 80.256C46.4883 80.1645 46.6076 80.1187 46.763 80.1187C46.9183 80.1187 47.0362 80.1645 47.1166 80.256C47.1998 80.3448 47.2414 80.4543 47.2414 80.5847C47.2414 80.7123 47.1998 80.8205 47.1166 80.9092C47.0362 80.998 46.9183 81.0424 46.763 81.0424C46.6076 81.0424 46.4883 80.998 46.4051 80.9092C46.3247 80.8205 46.2845 80.7123 46.2845 80.5847ZM52.2384 77.4808V78.4045C52.2384 78.901 52.194 79.3198 52.1053 79.661C52.0165 80.0022 51.8889 80.2768 51.7225 80.4848C51.5561 80.6929 51.355 80.844 51.1192 80.9383C50.8862 81.0299 50.6227 81.0756 50.3287 81.0756C50.0957 81.0756 49.8807 81.0465 49.6837 80.9883C49.4868 80.93 49.3093 80.8371 49.1512 80.7095C48.9958 80.5791 48.8627 80.4099 48.7518 80.2019C48.6408 79.9939 48.5562 79.7415 48.498 79.4447C48.4397 79.1479 48.4106 78.8011 48.4106 78.4045V77.4808C48.4106 76.9843 48.455 76.5682 48.5437 76.2326C48.6353 75.897 48.7642 75.6279 48.9307 75.4254C49.0971 75.2202 49.2968 75.0732 49.5298 74.9844C49.7656 74.8956 50.0291 74.8513 50.3203 74.8513C50.5561 74.8513 50.7725 74.8804 50.9694 74.9386C51.1691 74.9941 51.3466 75.0843 51.502 75.2091C51.6573 75.3311 51.7891 75.4948 51.8972 75.7C52.0082 75.9025 52.0928 76.1508 52.151 76.4448C52.2093 76.7388 52.2384 77.0842 52.2384 77.4808ZM51.4645 78.5293V77.3518C51.4645 77.08 51.4479 76.8415 51.4146 76.6362C51.3841 76.4282 51.3383 76.2506 51.2773 76.1036C51.2163 75.9566 51.1386 75.8373 51.0443 75.7458C50.9528 75.6543 50.846 75.5877 50.7239 75.5461C50.6046 75.5017 50.4701 75.4795 50.3203 75.4795C50.1373 75.4795 49.975 75.5142 49.8335 75.5835C49.6921 75.6501 49.5728 75.7569 49.4757 75.9039C49.3814 76.0509 49.3093 76.2437 49.2594 76.4823C49.2094 76.7208 49.1845 77.0107 49.1845 77.3518V78.5293C49.1845 78.8011 49.1997 79.0411 49.2302 79.2491C49.2635 79.4571 49.3121 79.6374 49.3759 79.79C49.4397 79.9398 49.5173 80.0632 49.6089 80.1603C49.7004 80.2574 49.8058 80.3295 49.9251 80.3767C50.0471 80.421 50.1816 80.4432 50.3287 80.4432C50.5173 80.4432 50.6823 80.4072 50.8238 80.335C50.9652 80.2629 51.0831 80.1506 51.1774 79.998C51.2745 79.8427 51.3466 79.6444 51.3938 79.4031C51.4409 79.159 51.4645 78.8677 51.4645 78.5293ZM57.0315 77.4808V78.4045C57.0315 78.901 56.9871 79.3198 56.8984 79.661C56.8096 80.0022 56.682 80.2768 56.5156 80.4848C56.3492 80.6929 56.1481 80.844 55.9123 80.9383C55.6793 81.0299 55.4158 81.0756 55.1218 81.0756C54.8888 81.0756 54.6738 81.0465 54.4769 80.9883C54.2799 80.93 54.1024 80.8371 53.9443 80.7095C53.789 80.5791 53.6558 80.4099 53.5449 80.2019C53.4339 79.9939 53.3493 79.7415 53.2911 79.4447C53.2328 79.1479 53.2037 78.8011 53.2037 78.4045V77.4808C53.2037 76.9843 53.2481 76.5682 53.3368 76.2326C53.4284 75.897 53.5573 75.6279 53.7238 75.4254C53.8902 75.2202 54.0899 75.0732 54.3229 74.9844C54.5587 74.8956 54.8222 74.8513 55.1134 74.8513C55.3492 74.8513 55.5656 74.8804 55.7625 74.9386C55.9622 74.9941 56.1397 75.0843 56.2951 75.2091C56.4504 75.3311 56.5822 75.4948 56.6903 75.7C56.8013 75.9025 56.8859 76.1508 56.9441 76.4448C57.0024 76.7388 57.0315 77.0842 57.0315 77.4808ZM56.2576 78.5293V77.3518C56.2576 77.08 56.241 76.8415 56.2077 76.6362C56.1772 76.4282 56.1314 76.2506 56.0704 76.1036C56.0094 75.9566 55.9317 75.8373 55.8374 75.7458C55.7459 75.6543 55.6391 75.5877 55.517 75.5461C55.3977 75.5017 55.2632 75.4795 55.1134 75.4795C54.9304 75.4795 54.7681 75.5142 54.6266 75.5835C54.4852 75.6501 54.3659 75.7569 54.2688 75.9039C54.1745 76.0509 54.1024 76.2437 54.0525 76.4823C54.0025 76.7208 53.9776 77.0107 53.9776 77.3518V78.5293C53.9776 78.8011 53.9928 79.0411 54.0233 79.2491C54.0566 79.4571 54.1052 79.6374 54.169 79.79C54.2328 79.9398 54.3104 80.0632 54.402 80.1603C54.4935 80.2574 54.5989 80.3295 54.7182 80.3767C54.8402 80.421 54.9747 80.4432 55.1218 80.4432C55.3104 80.4432 55.4754 80.4072 55.6169 80.335C55.7583 80.2629 55.8762 80.1506 55.9705 79.998C56.0676 79.8427 56.1397 79.6444 56.1869 79.4031C56.234 79.159 56.2576 78.8677 56.2576 78.5293ZM57.9552 76.4198V76.0995C57.9552 75.8692 58.0051 75.6598 58.105 75.4712C58.2048 75.2826 58.3477 75.1314 58.5335 75.0177C58.7194 74.904 58.9399 74.8471 59.1951 74.8471C59.4558 74.8471 59.6777 74.904 59.8608 75.0177C60.0466 75.1314 60.1895 75.2826 60.2893 75.4712C60.3892 75.6598 60.4391 75.8692 60.4391 76.0995V76.4198C60.4391 76.6445 60.3892 76.8512 60.2893 77.0398C60.1922 77.2284 60.0508 77.3796 59.8649 77.4933C59.6819 77.607 59.4613 77.6639 59.2034 77.6639C58.9454 77.6639 58.7221 77.607 58.5335 77.4933C58.3477 77.3796 58.2048 77.2284 58.105 77.0398C58.0051 76.8512 57.9552 76.6445 57.9552 76.4198ZM58.5335 76.0995V76.4198C58.5335 76.5474 58.5571 76.6681 58.6042 76.7818C58.6542 76.8955 58.7291 76.9885 58.8289 77.0606C58.9288 77.1299 59.0536 77.1646 59.2034 77.1646C59.3532 77.1646 59.4766 77.1299 59.5737 77.0606C59.6708 76.9885 59.7429 76.8955 59.79 76.7818C59.8372 76.6681 59.8608 76.5474 59.8608 76.4198V76.0995C59.8608 75.9691 59.8358 75.8471 59.7859 75.7333C59.7387 75.6168 59.6652 75.5239 59.5654 75.4546C59.4683 75.3824 59.3448 75.3464 59.1951 75.3464C59.048 75.3464 58.9246 75.3824 58.8248 75.4546C58.7277 75.5239 58.6542 75.6168 58.6042 75.7333C58.5571 75.8471 58.5335 75.9691 58.5335 76.0995ZM60.9051 79.8316V79.5071C60.9051 79.2796 60.955 79.0716 61.0549 78.883C61.1547 78.6943 61.2976 78.5432 61.4834 78.4295C61.6693 78.3157 61.8898 78.2589 62.145 78.2589C62.4057 78.2589 62.6276 78.3157 62.8107 78.4295C62.9965 78.5432 63.1394 78.6943 63.2392 78.883C63.3391 79.0716 63.389 79.2796 63.389 79.5071V79.8316C63.389 80.0591 63.3391 80.2671 63.2392 80.4557C63.1422 80.6443 63.0007 80.7955 62.8149 80.9092C62.6318 81.0229 62.4113 81.0798 62.1533 81.0798C61.8953 81.0798 61.6734 81.0229 61.4876 80.9092C61.3018 80.7955 61.1575 80.6443 61.0549 80.4557C60.955 80.2671 60.9051 80.0591 60.9051 79.8316ZM61.4834 79.5071V79.8316C61.4834 79.9592 61.507 80.0812 61.5542 80.1977C61.6041 80.3115 61.679 80.4044 61.7788 80.4765C61.8787 80.5459 62.0035 80.5805 62.1533 80.5805C62.3031 80.5805 62.4265 80.5459 62.5236 80.4765C62.6235 80.4044 62.697 80.3115 62.7441 80.1977C62.7913 80.084 62.8149 79.962 62.8149 79.8316V79.5071C62.8149 79.3767 62.7899 79.2547 62.74 79.1409C62.6928 79.0272 62.6193 78.9357 62.5194 78.8663C62.4224 78.7942 62.2975 78.7581 62.145 78.7581C61.998 78.7581 61.8745 78.7942 61.7747 78.8663C61.6776 78.9357 61.6041 79.0272 61.5542 79.1409C61.507 79.2547 61.4834 79.3767 61.4834 79.5071ZM62.3364 75.7957L59.3781 80.5306L58.9454 80.256L61.9037 75.5211L62.3364 75.7957ZM66.1184 78.5293V78.5709C66.1184 79.1784 66.0505 79.7276 65.9146 80.2185C65.7786 80.7095 65.6053 81.1381 65.3945 81.5042C65.1837 81.8731 64.9618 82.1782 64.7288 82.4195C64.4958 82.6636 64.2808 82.8398 64.0839 82.948L63.9216 82.482C64.0852 82.3571 64.2503 82.1824 64.4167 81.9577C64.5831 81.7358 64.7371 81.4612 64.8785 81.1339C65.02 80.8094 65.1337 80.4349 65.2197 80.0105C65.3057 79.5833 65.3487 79.1063 65.3487 78.5792V78.521C65.3487 77.994 65.3029 77.5183 65.2114 77.0939C65.1199 76.6667 65.0006 76.2909 64.8536 75.9663C64.7093 75.6418 64.554 75.3686 64.3876 75.1467C64.2239 74.922 64.0686 74.7486 63.9216 74.6266L64.0839 74.1564C64.2808 74.2646 64.4958 74.4407 64.7288 74.6848C64.9618 74.9262 65.1837 75.2313 65.3945 75.6002C65.6053 75.9691 65.7786 76.399 65.9146 76.89C66.0505 77.3782 66.1184 77.9246 66.1184 78.5293Z" fill="white"/>
</svg>
