<svg width="678" height="189" viewBox="0 0 678 189" fill="none" xmlns="http://www.w3.org/2000/svg">
<path d="M51.3961 177.761H52.3158L54.4785 183.044H54.553L56.7157 177.761H57.6354V184.125H56.9146V179.29H56.8524L54.8638 184.125H54.1677L52.1791 179.29H52.117V184.125H51.3961V177.761ZM60.8833 184.224C60.4856 184.224 60.1344 184.124 59.8299 183.923C59.5254 183.72 59.2872 183.434 59.1153 183.065C58.9433 182.695 58.8574 182.257 58.8574 181.751C58.8574 181.25 58.9433 180.815 59.1153 180.446C59.2872 180.077 59.5264 179.792 59.833 179.592C60.1396 179.391 60.4938 179.29 60.8957 179.29C61.2064 179.29 61.4519 179.342 61.6321 179.445C61.8144 179.547 61.9532 179.663 62.0485 179.794C62.1459 179.922 62.2215 180.028 62.2753 180.11H62.3375V179.352H63.0708V184.125H62.3623V183.392H62.2753C62.2215 183.479 62.1448 183.588 62.0454 183.721C61.946 183.852 61.8041 183.969 61.6197 184.072C61.4353 184.174 61.1899 184.224 60.8833 184.224ZM60.9827 183.566C61.2769 183.566 61.5254 183.489 61.7284 183.336C61.9315 183.18 62.0858 182.966 62.1914 182.693C62.2971 182.417 62.3499 182.099 62.3499 181.739C62.3499 181.382 62.2981 181.071 62.1945 180.803C62.091 180.534 61.9377 180.325 61.7347 180.176C61.5317 180.024 61.281 179.949 60.9827 179.949C60.672 179.949 60.413 180.029 60.2059 180.188C60.0008 180.346 59.8465 180.56 59.7429 180.831C59.6414 181.101 59.5907 181.403 59.5907 181.739C59.5907 182.078 59.6425 182.387 59.746 182.665C59.8517 182.94 60.007 183.16 60.2121 183.323C60.4193 183.485 60.6761 183.566 60.9827 183.566ZM64.9879 185.915C64.8637 185.915 64.7528 185.904 64.6555 185.884C64.5581 185.865 64.4908 185.846 64.4535 185.828L64.6399 185.181C64.8181 185.227 64.9755 185.244 65.1122 185.231C65.249 185.219 65.3701 185.158 65.4758 185.048C65.5835 184.94 65.6819 184.765 65.771 184.523L65.9077 184.15L64.1428 179.352H64.9382L66.2557 183.156H66.3054L67.6229 179.352H68.4183L66.3924 184.821C66.3013 185.068 66.1884 185.272 66.0537 185.433C65.9191 185.597 65.7627 185.718 65.5845 185.797C65.4085 185.875 65.2096 185.915 64.9879 185.915Z" fill="#1C1C1C" fill-opacity="0.4"/>
<path d="M86.6986 184.125H85.8907L88.2274 177.761H89.0228L91.3595 184.125H90.5516L88.6499 178.768H88.6002L86.6986 184.125ZM86.9969 181.639H90.2533V182.323H86.9969V181.639ZM92.2512 185.915V179.352H92.9597V180.11H93.0467C93.1006 180.028 93.1751 179.922 93.2704 179.794C93.3678 179.663 93.5066 179.547 93.6868 179.445C93.8691 179.342 94.1156 179.29 94.4263 179.29C94.8282 179.29 95.1824 179.391 95.489 179.592C95.7956 179.792 96.0348 180.077 96.2068 180.446C96.3787 180.815 96.4647 181.25 96.4647 181.751C96.4647 182.257 96.3787 182.695 96.2068 183.065C96.0348 183.434 95.7966 183.72 95.4921 183.923C95.1876 184.124 94.8365 184.224 94.4387 184.224C94.1322 184.224 93.8867 184.174 93.7023 184.072C93.518 183.969 93.3761 183.852 93.2766 183.721C93.1772 183.588 93.1006 183.479 93.0467 183.392H92.9846V185.915H92.2512ZM92.9721 181.739C92.9721 182.099 93.0249 182.417 93.1306 182.693C93.2362 182.966 93.3906 183.18 93.5936 183.336C93.7966 183.489 94.0452 183.566 94.3393 183.566C94.6459 183.566 94.9017 183.485 95.1068 183.323C95.314 183.16 95.4693 182.94 95.5729 182.665C95.6785 182.387 95.7314 182.078 95.7314 181.739C95.7314 181.403 95.6796 181.101 95.576 180.831C95.4745 180.56 95.3202 180.346 95.113 180.188C94.9079 180.029 94.65 179.949 94.3393 179.949C94.041 179.949 93.7904 180.024 93.5874 180.176C93.3844 180.325 93.2311 180.534 93.1275 180.803C93.0239 181.071 92.9721 181.382 92.9721 181.739ZM97.5833 184.125V179.352H98.2917V180.073H98.3414C98.4284 179.837 98.5859 179.645 98.8137 179.498C99.0416 179.351 99.2985 179.278 99.5843 179.278C99.6382 179.278 99.7055 179.279 99.7863 179.281C99.8671 179.283 99.9282 179.286 99.9696 179.29V180.036C99.9448 180.03 99.8878 180.02 99.7987 180.008C99.7117 179.993 99.6196 179.986 99.5222 179.986C99.2902 179.986 99.083 180.035 98.9007 180.132C98.7205 180.227 98.5776 180.36 98.4719 180.53C98.3684 180.698 98.3166 180.889 98.3166 181.105V184.125H97.5833ZM100.839 184.125V179.352H101.572V184.125H100.839ZM101.212 178.557C101.069 178.557 100.946 178.508 100.842 178.411C100.74 178.313 100.69 178.196 100.69 178.06C100.69 177.923 100.74 177.806 100.842 177.709C100.946 177.611 101.069 177.562 101.212 177.562C101.355 177.562 101.477 177.611 101.578 177.709C101.682 177.806 101.734 177.923 101.734 178.06C101.734 178.196 101.682 178.313 101.578 178.411C101.477 178.508 101.355 178.557 101.212 178.557ZM103.649 177.761V184.125H102.915V177.761H103.649Z" fill="#1C1C1C" fill-opacity="0.4"/>
<path d="M125.813 177.761H126.732L128.895 183.044H128.97L131.132 177.761H132.052V184.125H131.331V179.29H131.269L129.28 184.125H128.584L126.596 179.29H126.533V184.125H125.813V177.761ZM135.3 184.224C134.902 184.224 134.551 184.124 134.246 183.923C133.942 183.72 133.704 183.434 133.532 183.065C133.36 182.695 133.274 182.257 133.274 181.751C133.274 181.25 133.36 180.815 133.532 180.446C133.704 180.077 133.943 179.792 134.25 179.592C134.556 179.391 134.91 179.29 135.312 179.29C135.623 179.29 135.868 179.342 136.049 179.445C136.231 179.547 136.37 179.663 136.465 179.794C136.562 179.922 136.638 180.028 136.692 180.11H136.754V179.352H137.487V184.125H136.779V183.392H136.692C136.638 183.479 136.561 183.588 136.462 183.721C136.362 183.852 136.221 183.969 136.036 184.072C135.852 184.174 135.606 184.224 135.3 184.224ZM135.399 183.566C135.693 183.566 135.942 183.489 136.145 183.336C136.348 183.18 136.502 182.966 136.608 182.693C136.714 182.417 136.766 182.099 136.766 181.739C136.766 181.382 136.715 181.071 136.611 180.803C136.507 180.534 136.354 180.325 136.151 180.176C135.948 180.024 135.698 179.949 135.399 179.949C135.088 179.949 134.83 180.029 134.622 180.188C134.417 180.346 134.263 180.56 134.159 180.831C134.058 181.101 134.007 181.403 134.007 181.739C134.007 182.078 134.059 182.387 134.163 182.665C134.268 182.94 134.424 183.16 134.629 183.323C134.836 183.485 135.093 183.566 135.399 183.566ZM138.932 184.125V179.352H139.641V180.073H139.69C139.777 179.837 139.935 179.645 140.163 179.498C140.39 179.351 140.647 179.278 140.933 179.278C140.987 179.278 141.054 179.279 141.135 179.281C141.216 179.283 141.277 179.286 141.319 179.29V180.036C141.294 180.03 141.237 180.02 141.148 180.008C141.061 179.993 140.968 179.986 140.871 179.986C140.639 179.986 140.432 180.035 140.25 180.132C140.069 180.227 139.926 180.36 139.821 180.53C139.717 180.698 139.665 180.889 139.665 181.105V184.125H138.932ZM143.981 184.224C143.534 184.224 143.149 184.119 142.826 183.907C142.502 183.696 142.254 183.405 142.08 183.034C141.906 182.664 141.819 182.24 141.819 181.763C141.819 181.279 141.908 180.851 142.086 180.48C142.266 180.107 142.517 179.816 142.838 179.607C143.161 179.396 143.538 179.29 143.969 179.29C144.305 179.29 144.607 179.352 144.876 179.477C145.146 179.601 145.366 179.775 145.538 179.999C145.71 180.222 145.817 180.483 145.858 180.782H145.125C145.069 180.564 144.945 180.371 144.752 180.204C144.561 180.034 144.305 179.949 143.981 179.949C143.696 179.949 143.445 180.023 143.229 180.173C143.016 180.32 142.849 180.528 142.729 180.797C142.611 181.064 142.552 181.378 142.552 181.739C142.552 182.107 142.61 182.428 142.726 182.702C142.844 182.975 143.01 183.188 143.223 183.339C143.439 183.49 143.691 183.566 143.981 183.566C144.172 183.566 144.345 183.533 144.5 183.466C144.656 183.4 144.787 183.305 144.895 183.18C145.003 183.056 145.079 182.907 145.125 182.733H145.858C145.817 183.015 145.714 183.268 145.551 183.494C145.389 183.718 145.175 183.896 144.907 184.029C144.642 184.159 144.334 184.224 143.981 184.224ZM147.664 181.254V184.125H146.93V177.761H147.664V180.098H147.726C147.838 179.852 148.005 179.656 148.229 179.511C148.455 179.364 148.755 179.29 149.13 179.29C149.455 179.29 149.74 179.355 149.985 179.486C150.229 179.614 150.419 179.812 150.553 180.079C150.69 180.345 150.758 180.682 150.758 181.092V184.125H150.025V181.142C150.025 180.763 149.927 180.47 149.73 180.263C149.535 180.053 149.265 179.949 148.919 179.949C148.679 179.949 148.463 180 148.273 180.101C148.084 180.203 147.935 180.351 147.825 180.545C147.717 180.74 147.664 180.976 147.664 181.254Z" fill="#1C1C1C" fill-opacity="0.4"/>
<path d="M173.188 184.125V177.761H177.003V178.445H173.958V180.595H176.717V181.279H173.958V184.125H173.188ZM179.874 184.224C179.415 184.224 179.018 184.123 178.684 183.92C178.353 183.715 178.097 183.429 177.917 183.062C177.739 182.694 177.65 182.265 177.65 181.776C177.65 181.287 177.739 180.856 177.917 180.483C178.097 180.108 178.348 179.816 178.669 179.607C178.992 179.396 179.369 179.29 179.8 179.29C180.048 179.29 180.294 179.332 180.536 179.414C180.779 179.497 180.999 179.632 181.198 179.818C181.397 180.003 181.555 180.247 181.673 180.552C181.792 180.856 181.851 181.231 181.851 181.676V181.987H178.172V181.353H181.105C181.105 181.084 181.051 180.844 180.943 180.632C180.838 180.421 180.686 180.254 180.49 180.132C180.295 180.01 180.065 179.949 179.8 179.949C179.508 179.949 179.255 180.021 179.042 180.166C178.83 180.309 178.668 180.496 178.554 180.726C178.44 180.956 178.383 181.202 178.383 181.465V181.888C178.383 182.248 178.445 182.554 178.569 182.804C178.696 183.053 178.871 183.243 179.094 183.373C179.318 183.501 179.578 183.566 179.874 183.566C180.067 183.566 180.241 183.539 180.396 183.485C180.554 183.429 180.69 183.346 180.803 183.236C180.917 183.124 181.005 182.986 181.068 182.82L181.776 183.019C181.701 183.259 181.576 183.47 181.4 183.653C181.224 183.833 181.006 183.974 180.748 184.075C180.489 184.175 180.198 184.224 179.874 184.224ZM183.066 184.125V177.761H183.799V180.11H183.861C183.915 180.028 183.989 179.922 184.085 179.794C184.182 179.663 184.321 179.547 184.501 179.445C184.683 179.342 184.93 179.29 185.241 179.29C185.642 179.29 185.997 179.391 186.303 179.592C186.61 179.792 186.849 180.077 187.021 180.446C187.193 180.815 187.279 181.25 187.279 181.751C187.279 182.257 187.193 182.695 187.021 183.065C186.849 183.434 186.611 183.72 186.306 183.923C186.002 184.124 185.651 184.224 185.253 184.224C184.946 184.224 184.701 184.174 184.517 184.072C184.332 183.969 184.19 183.852 184.091 183.721C183.991 183.588 183.915 183.479 183.861 183.392H183.774V184.125H183.066ZM183.786 181.739C183.786 182.099 183.839 182.417 183.945 182.693C184.051 182.966 184.205 183.18 184.408 183.336C184.611 183.489 184.859 183.566 185.154 183.566C185.46 183.566 185.716 183.485 185.921 183.323C186.128 183.16 186.284 182.94 186.387 182.665C186.493 182.387 186.546 182.078 186.546 181.739C186.546 181.403 186.494 181.101 186.39 180.831C186.289 180.56 186.134 180.346 185.927 180.188C185.722 180.029 185.464 179.949 185.154 179.949C184.855 179.949 184.605 180.024 184.402 180.176C184.199 180.325 184.045 180.534 183.942 180.803C183.838 181.071 183.786 181.382 183.786 181.739ZM188.401 184.125V179.352H189.109V180.073H189.159C189.246 179.837 189.403 179.645 189.631 179.498C189.859 179.351 190.116 179.278 190.402 179.278C190.456 179.278 190.523 179.279 190.604 179.281C190.684 179.283 190.746 179.286 190.787 179.29V180.036C190.762 180.03 190.705 180.02 190.616 180.008C190.529 179.993 190.437 179.986 190.34 179.986C190.108 179.986 189.9 180.035 189.718 180.132C189.538 180.227 189.395 180.36 189.289 180.53C189.186 180.698 189.134 180.889 189.134 181.105V184.125H188.401ZM194.664 182.174V179.352H195.397V184.125H194.664V183.317H194.614C194.503 183.559 194.329 183.766 194.092 183.935C193.856 184.103 193.558 184.187 193.197 184.187C192.899 184.187 192.634 184.122 192.402 183.991C192.17 183.859 191.988 183.66 191.855 183.395C191.723 183.128 191.656 182.791 191.656 182.385V179.352H192.39V182.335C192.39 182.683 192.487 182.961 192.682 183.168C192.878 183.375 193.129 183.479 193.434 183.479C193.616 183.479 193.801 183.432 193.99 183.339C194.18 183.246 194.34 183.103 194.468 182.91C194.599 182.717 194.664 182.472 194.664 182.174ZM198.543 184.224C198.145 184.224 197.794 184.124 197.489 183.923C197.185 183.72 196.947 183.434 196.775 183.065C196.603 182.695 196.517 182.257 196.517 181.751C196.517 181.25 196.603 180.815 196.775 180.446C196.947 180.077 197.186 179.792 197.492 179.592C197.799 179.391 198.153 179.29 198.555 179.29C198.866 179.29 199.111 179.342 199.292 179.445C199.474 179.547 199.613 179.663 199.708 179.794C199.805 179.922 199.881 180.028 199.935 180.11H199.997V179.352H200.73V184.125H200.022V183.392H199.935C199.881 183.479 199.804 183.588 199.705 183.721C199.605 183.852 199.463 183.969 199.279 184.072C199.095 184.174 198.849 184.224 198.543 184.224ZM198.642 183.566C198.936 183.566 199.185 183.489 199.388 183.336C199.591 183.18 199.745 182.966 199.851 182.693C199.956 182.417 200.009 182.099 200.009 181.739C200.009 181.382 199.958 181.071 199.854 180.803C199.75 180.534 199.597 180.325 199.394 180.176C199.191 180.024 198.94 179.949 198.642 179.949C198.331 179.949 198.072 180.029 197.865 180.188C197.66 180.346 197.506 180.56 197.402 180.831C197.301 181.101 197.25 181.403 197.25 181.739C197.25 182.078 197.302 182.387 197.405 182.665C197.511 182.94 197.666 183.16 197.872 183.323C198.079 183.485 198.336 183.566 198.642 183.566ZM202.175 184.125V179.352H202.884V180.073H202.933C203.02 179.837 203.178 179.645 203.406 179.498C203.633 179.351 203.89 179.278 204.176 179.278C204.23 179.278 204.297 179.279 204.378 179.281C204.459 179.283 204.52 179.286 204.561 179.29V180.036C204.537 180.03 204.48 180.02 204.391 180.008C204.304 179.993 204.211 179.986 204.114 179.986C203.882 179.986 203.675 180.035 203.493 180.132C203.312 180.227 203.169 180.36 203.064 180.53C202.96 180.698 202.908 180.889 202.908 181.105V184.125H202.175ZM206.048 185.915C205.924 185.915 205.813 185.904 205.716 185.884C205.618 185.865 205.551 185.846 205.514 185.828L205.7 185.181C205.878 185.227 206.036 185.244 206.173 185.231C206.309 185.219 206.43 185.158 206.536 185.048C206.644 184.94 206.742 184.765 206.831 184.523L206.968 184.15L205.203 179.352H205.999L207.316 183.156H207.366L208.683 179.352H209.479L207.453 184.821C207.362 185.068 207.249 185.272 207.114 185.433C206.979 185.597 206.823 185.718 206.645 185.797C206.469 185.875 206.27 185.915 206.048 185.915Z" fill="#1C1C1C" fill-opacity="0.4"/>
<path d="M233.999 177.761H234.769V182.31C234.769 182.716 234.695 183.061 234.546 183.345C234.396 183.629 234.186 183.844 233.915 183.991C233.643 184.138 233.323 184.212 232.955 184.212C232.607 184.212 232.297 184.149 232.026 184.022C231.754 183.894 231.541 183.712 231.385 183.476C231.23 183.239 231.152 182.959 231.152 182.634H231.911C231.911 182.814 231.955 182.971 232.044 183.106C232.135 183.238 232.26 183.342 232.417 183.417C232.575 183.491 232.754 183.528 232.955 183.528C233.176 183.528 233.365 183.482 233.52 183.389C233.676 183.295 233.794 183.159 233.874 182.978C233.957 182.796 233.999 182.573 233.999 182.31V177.761ZM238.016 184.224C237.619 184.224 237.267 184.124 236.963 183.923C236.658 183.72 236.42 183.434 236.248 183.065C236.076 182.695 235.99 182.257 235.99 181.751C235.99 181.25 236.076 180.815 236.248 180.446C236.42 180.077 236.66 179.792 236.966 179.592C237.273 179.391 237.627 179.29 238.029 179.29C238.339 179.29 238.585 179.342 238.765 179.445C238.947 179.547 239.086 179.663 239.182 179.794C239.279 179.922 239.355 180.028 239.408 180.11H239.471V179.352H240.204V184.125H239.495V183.392H239.408C239.355 183.479 239.278 183.588 239.178 183.721C239.079 183.852 238.937 183.969 238.753 184.072C238.568 184.174 238.323 184.224 238.016 184.224ZM238.116 183.566C238.41 183.566 238.658 183.489 238.862 183.336C239.065 183.18 239.219 182.966 239.324 182.693C239.43 182.417 239.483 182.099 239.483 181.739C239.483 181.382 239.431 181.071 239.328 180.803C239.224 180.534 239.071 180.325 238.868 180.176C238.665 180.024 238.414 179.949 238.116 179.949C237.805 179.949 237.546 180.029 237.339 180.188C237.134 180.346 236.98 180.56 236.876 180.831C236.774 181.101 236.724 181.403 236.724 181.739C236.724 182.078 236.776 182.387 236.879 182.665C236.985 182.94 237.14 183.16 237.345 183.323C237.552 183.485 237.809 183.566 238.116 183.566ZM242.382 181.254V184.125H241.649V179.352H242.357V180.098H242.419C242.531 179.856 242.701 179.661 242.929 179.514C243.157 179.365 243.451 179.29 243.811 179.29C244.134 179.29 244.417 179.356 244.66 179.489C244.902 179.619 245.09 179.818 245.225 180.086C245.36 180.351 245.427 180.686 245.427 181.092V184.125H244.694V181.142C244.694 180.767 244.596 180.475 244.402 180.266C244.207 180.055 243.94 179.949 243.6 179.949C243.366 179.949 243.157 180 242.972 180.101C242.79 180.203 242.646 180.351 242.54 180.545C242.435 180.74 242.382 180.976 242.382 181.254ZM249.775 182.174V179.352H250.508V184.125H249.775V183.317H249.725C249.613 183.559 249.439 183.766 249.203 183.935C248.967 184.103 248.669 184.187 248.308 184.187C248.01 184.187 247.745 184.122 247.513 183.991C247.281 183.859 247.099 183.66 246.966 183.395C246.833 183.128 246.767 182.791 246.767 182.385V179.352H247.5V182.335C247.5 182.683 247.598 182.961 247.793 183.168C247.989 183.375 248.24 183.479 248.544 183.479C248.727 183.479 248.912 183.432 249.101 183.339C249.291 183.246 249.451 183.103 249.579 182.91C249.71 182.717 249.775 182.472 249.775 182.174ZM253.654 184.224C253.256 184.224 252.905 184.124 252.6 183.923C252.296 183.72 252.057 183.434 251.886 183.065C251.714 182.695 251.628 182.257 251.628 181.751C251.628 181.25 251.714 180.815 251.886 180.446C252.057 180.077 252.297 179.792 252.603 179.592C252.91 179.391 253.264 179.29 253.666 179.29C253.977 179.29 254.222 179.342 254.402 179.445C254.585 179.547 254.723 179.663 254.819 179.794C254.916 179.922 254.992 180.028 255.046 180.11H255.108V179.352H255.841V184.125H255.133V183.392H255.046C254.992 183.479 254.915 183.588 254.816 183.721C254.716 183.852 254.574 183.969 254.39 184.072C254.206 184.174 253.96 184.224 253.654 184.224ZM253.753 183.566C254.047 183.566 254.296 183.489 254.499 183.336C254.702 183.18 254.856 182.966 254.962 182.693C255.067 182.417 255.12 182.099 255.12 181.739C255.12 181.382 255.068 181.071 254.965 180.803C254.861 180.534 254.708 180.325 254.505 180.176C254.302 180.024 254.051 179.949 253.753 179.949C253.442 179.949 253.183 180.029 252.976 180.188C252.771 180.346 252.617 180.56 252.513 180.831C252.412 181.101 252.361 181.403 252.361 181.739C252.361 182.078 252.413 182.387 252.516 182.665C252.622 182.94 252.777 183.16 252.982 183.323C253.19 183.485 253.446 183.566 253.753 183.566ZM257.286 184.125V179.352H257.994V180.073H258.044C258.131 179.837 258.289 179.645 258.516 179.498C258.744 179.351 259.001 179.278 259.287 179.278C259.341 179.278 259.408 179.279 259.489 179.281C259.57 179.283 259.631 179.286 259.672 179.29V180.036C259.647 180.03 259.59 180.02 259.501 180.008C259.414 179.993 259.322 179.986 259.225 179.986C258.993 179.986 258.786 180.035 258.603 180.132C258.423 180.227 258.28 180.36 258.175 180.53C258.071 180.698 258.019 180.889 258.019 181.105V184.125H257.286ZM261.159 185.915C261.035 185.915 260.924 185.904 260.827 185.884C260.729 185.865 260.662 185.846 260.625 185.828L260.811 185.181C260.989 185.227 261.147 185.244 261.283 185.231C261.42 185.219 261.541 185.158 261.647 185.048C261.755 184.94 261.853 184.765 261.942 184.523L262.079 184.15L260.314 179.352H261.109L262.427 183.156H262.477L263.794 179.352H264.589L262.564 184.821C262.472 185.068 262.36 185.272 262.225 185.433C262.09 185.597 261.934 185.718 261.756 185.797C261.58 185.875 261.381 185.915 261.159 185.915Z" fill="#1C1C1C" fill-opacity="0.4"/>
<path d="M288.901 184.125H286.938V177.761H288.988C289.606 177.761 290.134 177.889 290.573 178.144C291.012 178.396 291.349 178.76 291.583 179.234C291.817 179.706 291.934 180.272 291.934 180.931C291.934 181.594 291.816 182.164 291.58 182.643C291.344 183.119 291 183.486 290.548 183.743C290.097 183.998 289.548 184.125 288.901 184.125ZM287.708 183.441H288.852C289.378 183.441 289.814 183.34 290.16 183.137C290.506 182.934 290.764 182.645 290.934 182.27C291.103 181.895 291.188 181.449 291.188 180.931C291.188 180.417 291.104 179.975 290.937 179.604C290.769 179.231 290.518 178.945 290.185 178.746C289.851 178.545 289.436 178.445 288.939 178.445H287.708V183.441ZM295.128 184.224C294.668 184.224 294.272 184.123 293.938 183.92C293.607 183.715 293.351 183.429 293.171 183.062C292.993 182.694 292.903 182.265 292.903 181.776C292.903 181.287 292.993 180.856 293.171 180.483C293.351 180.108 293.602 179.816 293.923 179.607C294.246 179.396 294.623 179.29 295.054 179.29C295.302 179.29 295.548 179.332 295.79 179.414C296.032 179.497 296.253 179.632 296.452 179.818C296.651 180.003 296.809 180.247 296.927 180.552C297.045 180.856 297.104 181.231 297.104 181.676V181.987H293.426V181.353H296.359C296.359 181.084 296.305 180.844 296.197 180.632C296.092 180.421 295.94 180.254 295.744 180.132C295.549 180.01 295.319 179.949 295.054 179.949C294.762 179.949 294.509 180.021 294.296 180.166C294.084 180.309 293.922 180.496 293.808 180.726C293.694 180.956 293.637 181.202 293.637 181.465V181.888C293.637 182.248 293.699 182.554 293.823 182.804C293.95 183.053 294.125 183.243 294.348 183.373C294.572 183.501 294.832 183.566 295.128 183.566C295.321 183.566 295.495 183.539 295.65 183.485C295.808 183.429 295.943 183.346 296.057 183.236C296.171 183.124 296.259 182.986 296.321 182.82L297.03 183.019C296.955 183.259 296.83 183.47 296.654 183.653C296.478 183.833 296.26 183.974 296.001 184.075C295.742 184.175 295.451 184.224 295.128 184.224ZM300.159 184.224C299.711 184.224 299.326 184.119 299.003 183.907C298.68 183.696 298.431 183.405 298.257 183.034C298.083 182.664 297.996 182.24 297.996 181.763C297.996 181.279 298.085 180.851 298.263 180.48C298.444 180.107 298.694 179.816 299.015 179.607C299.339 179.396 299.716 179.29 300.146 179.29C300.482 179.29 300.785 179.352 301.054 179.477C301.323 179.601 301.544 179.775 301.716 179.999C301.888 180.222 301.994 180.483 302.036 180.782H301.302C301.246 180.564 301.122 180.371 300.93 180.204C300.739 180.034 300.482 179.949 300.159 179.949C299.873 179.949 299.622 180.023 299.407 180.173C299.194 180.32 299.027 180.528 298.907 180.797C298.789 181.064 298.73 181.378 298.73 181.739C298.73 182.107 298.788 182.428 298.904 182.702C299.022 182.975 299.187 183.188 299.401 183.339C299.616 183.49 299.869 183.566 300.159 183.566C300.349 183.566 300.522 183.533 300.678 183.466C300.833 183.4 300.965 183.305 301.072 183.18C301.18 183.056 301.257 182.907 301.302 182.733H302.036C301.994 183.015 301.892 183.268 301.728 183.494C301.566 183.718 301.352 183.896 301.085 184.029C300.82 184.159 300.511 184.224 300.159 184.224ZM305.109 184.224C304.649 184.224 304.252 184.123 303.919 183.92C303.587 183.715 303.331 183.429 303.151 183.062C302.973 182.694 302.884 182.265 302.884 181.776C302.884 181.287 302.973 180.856 303.151 180.483C303.331 180.108 303.582 179.816 303.903 179.607C304.226 179.396 304.603 179.29 305.034 179.29C305.283 179.29 305.528 179.332 305.771 179.414C306.013 179.497 306.234 179.632 306.432 179.818C306.631 180.003 306.79 180.247 306.908 180.552C307.026 180.856 307.085 181.231 307.085 181.676V181.987H303.406V181.353H306.339C306.339 181.084 306.285 180.844 306.178 180.632C306.072 180.421 305.921 180.254 305.724 180.132C305.529 180.01 305.299 179.949 305.034 179.949C304.742 179.949 304.489 180.021 304.276 180.166C304.065 180.309 303.902 180.496 303.788 180.726C303.674 180.956 303.617 181.202 303.617 181.465V181.888C303.617 182.248 303.679 182.554 303.804 182.804C303.93 183.053 304.105 183.243 304.329 183.373C304.553 183.501 304.813 183.566 305.109 183.566C305.301 183.566 305.475 183.539 305.631 183.485C305.788 183.429 305.924 183.346 306.038 183.236C306.152 183.124 306.24 182.986 306.302 182.82L307.01 183.019C306.936 183.259 306.81 183.47 306.634 183.653C306.458 183.833 306.241 183.974 305.982 184.075C305.723 184.175 305.432 184.224 305.109 184.224ZM308.2 184.125V179.352H308.909V180.098H308.971C309.07 179.843 309.231 179.645 309.453 179.505C309.674 179.362 309.941 179.29 310.251 179.29C310.566 179.29 310.828 179.362 311.037 179.505C311.249 179.645 311.413 179.843 311.531 180.098H311.581C311.703 179.852 311.887 179.656 312.131 179.511C312.376 179.364 312.669 179.29 313.01 179.29C313.437 179.29 313.786 179.424 314.058 179.691C314.329 179.956 314.465 180.369 314.465 180.931V184.125H313.731V180.931C313.731 180.579 313.635 180.327 313.442 180.176C313.25 180.024 313.023 179.949 312.762 179.949C312.426 179.949 312.166 180.05 311.982 180.253C311.798 180.454 311.705 180.709 311.705 181.018V184.125H310.96V180.856C310.96 180.585 310.872 180.366 310.696 180.201C310.52 180.033 310.293 179.949 310.015 179.949C309.825 179.949 309.646 180 309.481 180.101C309.317 180.203 309.184 180.343 309.083 180.524C308.983 180.702 308.934 180.908 308.934 181.142V184.125H308.2ZM315.905 184.125V177.761H316.638V180.11H316.7C316.754 180.028 316.829 179.922 316.924 179.794C317.021 179.663 317.16 179.547 317.34 179.445C317.523 179.342 317.769 179.29 318.08 179.29C318.482 179.29 318.836 179.391 319.143 179.592C319.449 179.792 319.688 180.077 319.86 180.446C320.032 180.815 320.118 181.25 320.118 181.751C320.118 182.257 320.032 182.695 319.86 183.065C319.688 183.434 319.45 183.72 319.146 183.923C318.841 184.124 318.49 184.224 318.092 184.224C317.786 184.224 317.54 184.174 317.356 184.072C317.172 183.969 317.03 183.852 316.93 183.721C316.831 183.588 316.754 183.479 316.7 183.392H316.613V184.125H315.905ZM316.626 181.739C316.626 182.099 316.679 182.417 316.784 182.693C316.89 182.966 317.044 183.18 317.247 183.336C317.45 183.489 317.699 183.566 317.993 183.566C318.3 183.566 318.555 183.485 318.76 183.323C318.968 183.16 319.123 182.94 319.227 182.665C319.332 182.387 319.385 182.078 319.385 181.739C319.385 181.403 319.333 181.101 319.23 180.831C319.128 180.56 318.974 180.346 318.767 180.188C318.562 180.029 318.304 179.949 317.993 179.949C317.695 179.949 317.444 180.024 317.241 180.176C317.038 180.325 316.885 180.534 316.781 180.803C316.678 181.071 316.626 181.382 316.626 181.739ZM323.241 184.224C322.781 184.224 322.385 184.123 322.051 183.92C321.72 183.715 321.464 183.429 321.284 183.062C321.105 182.694 321.016 182.265 321.016 181.776C321.016 181.287 321.105 180.856 321.284 180.483C321.464 180.108 321.714 179.816 322.035 179.607C322.359 179.396 322.736 179.29 323.167 179.29C323.415 179.29 323.661 179.332 323.903 179.414C324.145 179.497 324.366 179.632 324.565 179.818C324.764 180.003 324.922 180.247 325.04 180.552C325.158 180.856 325.217 181.231 325.217 181.676V181.987H321.538V181.353H324.472C324.472 181.084 324.418 180.844 324.31 180.632C324.204 180.421 324.053 180.254 323.856 180.132C323.662 180.01 323.432 179.949 323.167 179.949C322.874 179.949 322.622 180.021 322.408 180.166C322.197 180.309 322.034 180.496 321.92 180.726C321.807 180.956 321.75 181.202 321.75 181.465V181.888C321.75 182.248 321.812 182.554 321.936 182.804C322.062 183.053 322.237 183.243 322.461 183.373C322.685 183.501 322.945 183.566 323.241 183.566C323.434 183.566 323.608 183.539 323.763 183.485C323.921 183.429 324.056 183.346 324.17 183.236C324.284 183.124 324.372 182.986 324.434 182.82L325.143 183.019C325.068 183.259 324.943 183.47 324.767 183.653C324.591 183.833 324.373 183.974 324.114 184.075C323.855 184.175 323.564 184.224 323.241 184.224ZM326.333 184.125V179.352H327.041V180.073H327.091C327.178 179.837 327.335 179.645 327.563 179.498C327.791 179.351 328.048 179.278 328.334 179.278C328.388 179.278 328.455 179.279 328.536 179.281C328.617 179.283 328.678 179.286 328.719 179.29V180.036C328.694 180.03 328.637 180.02 328.548 180.008C328.461 179.993 328.369 179.986 328.272 179.986C328.04 179.986 327.833 180.035 327.65 180.132C327.47 180.227 327.327 180.36 327.221 180.53C327.118 180.698 327.066 180.889 327.066 181.105V184.125H326.333Z" fill="#1C1C1C" fill-opacity="0.4"/>
<path d="M355.359 177.761V184.125H354.613L351.145 179.129H351.083V184.125H350.313V177.761H351.058L354.538 182.77H354.601V177.761H355.359ZM358.74 184.224C358.309 184.224 357.931 184.122 357.606 183.917C357.283 183.712 357.03 183.425 356.848 183.056C356.668 182.687 356.578 182.257 356.578 181.763C356.578 181.266 356.668 180.832 356.848 180.462C357.03 180.091 357.283 179.803 357.606 179.598C357.931 179.393 358.309 179.29 358.74 179.29C359.171 179.29 359.548 179.393 359.871 179.598C360.196 179.803 360.449 180.091 360.629 180.462C360.812 180.832 360.903 181.266 360.903 181.763C360.903 182.257 360.812 182.687 360.629 183.056C360.449 183.425 360.196 183.712 359.871 183.917C359.548 184.122 359.171 184.224 358.74 184.224ZM358.74 183.566C359.068 183.566 359.337 183.482 359.548 183.314C359.759 183.146 359.916 182.926 360.017 182.652C360.119 182.379 360.17 182.083 360.17 181.763C360.17 181.444 360.119 181.147 360.017 180.872C359.916 180.596 359.759 180.374 359.548 180.204C359.337 180.034 359.068 179.949 358.74 179.949C358.413 179.949 358.144 180.034 357.932 180.204C357.721 180.374 357.565 180.596 357.463 180.872C357.362 181.147 357.311 181.444 357.311 181.763C357.311 182.083 357.362 182.379 357.463 182.652C357.565 182.926 357.721 183.146 357.932 183.314C358.144 183.482 358.413 183.566 358.74 183.566ZM365.754 179.352L363.989 184.125H363.243L361.478 179.352H362.274L363.591 183.156H363.641L364.959 179.352H365.754ZM368.552 184.224C368.092 184.224 367.696 184.123 367.362 183.92C367.031 183.715 366.775 183.429 366.595 183.062C366.416 182.694 366.327 182.265 366.327 181.776C366.327 181.287 366.416 180.856 366.595 180.483C366.775 180.108 367.025 179.816 367.347 179.607C367.67 179.396 368.047 179.29 368.478 179.29C368.726 179.29 368.972 179.332 369.214 179.414C369.456 179.497 369.677 179.632 369.876 179.818C370.075 180.003 370.233 180.247 370.351 180.552C370.469 180.856 370.528 181.231 370.528 181.676V181.987H366.849V181.353H369.783C369.783 181.084 369.729 180.844 369.621 180.632C369.515 180.421 369.364 180.254 369.167 180.132C368.973 180.01 368.743 179.949 368.478 179.949C368.185 179.949 367.933 180.021 367.719 180.166C367.508 180.309 367.345 180.496 367.232 180.726C367.118 180.956 367.061 181.202 367.061 181.465V181.888C367.061 182.248 367.123 182.554 367.247 182.804C367.373 183.053 367.548 183.243 367.772 183.373C367.996 183.501 368.256 183.566 368.552 183.566C368.745 183.566 368.919 183.539 369.074 183.485C369.232 183.429 369.367 183.346 369.481 183.236C369.595 183.124 369.683 182.986 369.745 182.82L370.454 183.019C370.379 183.259 370.254 183.47 370.078 183.653C369.902 183.833 369.684 183.974 369.425 184.075C369.166 184.175 368.875 184.224 368.552 184.224ZM371.644 184.125V179.352H372.352V180.098H372.414C372.514 179.843 372.674 179.645 372.896 179.505C373.118 179.362 373.384 179.29 373.695 179.29C374.009 179.29 374.272 179.362 374.481 179.505C374.692 179.645 374.857 179.843 374.975 180.098H375.025C375.147 179.852 375.33 179.656 375.574 179.511C375.819 179.364 376.112 179.29 376.454 179.29C376.881 179.29 377.23 179.424 377.501 179.691C377.772 179.956 377.908 180.369 377.908 180.931V184.125H377.175V180.931C377.175 180.579 377.078 180.327 376.886 180.176C376.693 180.024 376.466 179.949 376.205 179.949C375.87 179.949 375.61 180.05 375.425 180.253C375.241 180.454 375.149 180.709 375.149 181.018V184.125H374.403V180.856C374.403 180.585 374.315 180.366 374.139 180.201C373.963 180.033 373.736 179.949 373.458 179.949C373.268 179.949 373.09 180 372.924 180.101C372.76 180.203 372.628 180.343 372.526 180.524C372.427 180.702 372.377 180.908 372.377 181.142V184.125H371.644ZM379.348 184.125V177.761H380.082V180.11H380.144C380.198 180.028 380.272 179.922 380.367 179.794C380.465 179.663 380.604 179.547 380.784 179.445C380.966 179.342 381.213 179.29 381.523 179.29C381.925 179.29 382.279 179.391 382.586 179.592C382.893 179.792 383.132 180.077 383.304 180.446C383.476 180.815 383.562 181.25 383.562 181.751C383.562 182.257 383.476 182.695 383.304 183.065C383.132 183.434 382.894 183.72 382.589 183.923C382.285 184.124 381.933 184.224 381.536 184.224C381.229 184.224 380.984 184.174 380.799 184.072C380.615 183.969 380.473 183.852 380.374 183.721C380.274 183.588 380.198 183.479 380.144 183.392H380.057V184.125H379.348ZM380.069 181.739C380.069 182.099 380.122 182.417 380.228 182.693C380.333 182.966 380.488 183.18 380.691 183.336C380.894 183.489 381.142 183.566 381.436 183.566C381.743 183.566 381.999 183.485 382.204 183.323C382.411 183.16 382.566 182.94 382.67 182.665C382.776 182.387 382.828 182.078 382.828 181.739C382.828 181.403 382.777 181.101 382.673 180.831C382.571 180.56 382.417 180.346 382.21 180.188C382.005 180.029 381.747 179.949 381.436 179.949C381.138 179.949 380.887 180.024 380.684 180.176C380.481 180.325 380.328 180.534 380.224 180.803C380.121 181.071 380.069 181.382 380.069 181.739ZM386.684 184.224C386.225 184.224 385.828 184.123 385.494 183.92C385.163 183.715 384.907 183.429 384.727 183.062C384.549 182.694 384.46 182.265 384.46 181.776C384.46 181.287 384.549 180.856 384.727 180.483C384.907 180.108 385.158 179.816 385.479 179.607C385.802 179.396 386.179 179.29 386.61 179.29C386.858 179.29 387.104 179.332 387.346 179.414C387.589 179.497 387.809 179.632 388.008 179.818C388.207 180.003 388.365 180.247 388.484 180.552C388.602 180.856 388.661 181.231 388.661 181.676V181.987H384.982V181.353H387.915C387.915 181.084 387.861 180.844 387.753 180.632C387.648 180.421 387.496 180.254 387.3 180.132C387.105 180.01 386.875 179.949 386.61 179.949C386.318 179.949 386.065 180.021 385.852 180.166C385.64 180.309 385.478 180.496 385.364 180.726C385.25 180.956 385.193 181.202 385.193 181.465V181.888C385.193 182.248 385.255 182.554 385.379 182.804C385.506 183.053 385.681 183.243 385.905 183.373C386.128 183.501 386.388 183.566 386.684 183.566C386.877 183.566 387.051 183.539 387.206 183.485C387.364 183.429 387.5 183.346 387.614 183.236C387.727 183.124 387.815 182.986 387.878 182.82L388.586 183.019C388.511 183.259 388.386 183.47 388.21 183.653C388.034 183.833 387.817 183.974 387.558 184.075C387.299 184.175 387.008 184.224 386.684 184.224ZM389.776 184.125V179.352H390.485V180.073H390.534C390.621 179.837 390.779 179.645 391.007 179.498C391.234 179.351 391.491 179.278 391.777 179.278C391.831 179.278 391.898 179.279 391.979 179.281C392.06 179.283 392.121 179.286 392.163 179.29V180.036C392.138 180.03 392.081 180.02 391.992 180.008C391.905 179.993 391.812 179.986 391.715 179.986C391.483 179.986 391.276 180.035 391.094 180.132C390.913 180.227 390.77 180.36 390.665 180.53C390.561 180.698 390.509 180.889 390.509 181.105V184.125H389.776Z" fill="#1C1C1C" fill-opacity="0.4"/>
<path d="M419.057 180.943C419.057 181.614 418.936 182.194 418.693 182.683C418.451 183.172 418.119 183.549 417.696 183.814C417.273 184.079 416.791 184.212 416.248 184.212C415.705 184.212 415.223 184.079 414.8 183.814C414.377 183.549 414.045 183.172 413.803 182.683C413.56 182.194 413.439 181.614 413.439 180.943C413.439 180.272 413.56 179.692 413.803 179.203C414.045 178.714 414.377 178.337 414.8 178.072C415.223 177.807 415.705 177.674 416.248 177.674C416.791 177.674 417.273 177.807 417.696 178.072C418.119 178.337 418.451 178.714 418.693 179.203C418.936 179.692 419.057 180.272 419.057 180.943ZM418.311 180.943C418.311 180.392 418.219 179.927 418.035 179.548C417.852 179.169 417.605 178.882 417.292 178.687C416.981 178.493 416.633 178.395 416.248 178.395C415.863 178.395 415.514 178.493 415.201 178.687C414.89 178.882 414.643 179.169 414.458 179.548C414.276 179.927 414.185 180.392 414.185 180.943C414.185 181.494 414.276 181.959 414.458 182.338C414.643 182.717 414.89 183.004 415.201 183.199C415.514 183.394 415.863 183.491 416.248 183.491C416.633 183.491 416.981 183.394 417.292 183.199C417.605 183.004 417.852 182.717 418.035 182.338C418.219 181.959 418.311 181.494 418.311 180.943ZM422.192 184.224C421.745 184.224 421.359 184.119 421.036 183.907C420.713 183.696 420.464 183.405 420.29 183.034C420.116 182.664 420.029 182.24 420.029 181.763C420.029 181.279 420.119 180.851 420.297 180.48C420.477 180.107 420.728 179.816 421.049 179.607C421.372 179.396 421.749 179.29 422.18 179.29C422.515 179.29 422.818 179.352 423.087 179.477C423.356 179.601 423.577 179.775 423.749 179.999C423.921 180.222 424.027 180.483 424.069 180.782H423.336C423.28 180.564 423.155 180.371 422.963 180.204C422.772 180.034 422.515 179.949 422.192 179.949C421.906 179.949 421.656 180.023 421.44 180.173C421.227 180.32 421.06 180.528 420.94 180.797C420.822 181.064 420.763 181.378 420.763 181.739C420.763 182.107 420.821 182.428 420.937 182.702C421.055 182.975 421.221 183.188 421.434 183.339C421.649 183.49 421.902 183.566 422.192 183.566C422.383 183.566 422.556 183.533 422.711 183.466C422.866 183.4 422.998 183.305 423.106 183.18C423.213 183.056 423.29 182.907 423.336 182.733H424.069C424.027 183.015 423.925 183.268 423.761 183.494C423.6 183.718 423.385 183.896 423.118 184.029C422.853 184.159 422.544 184.224 422.192 184.224ZM427.217 179.352V179.974H424.743V179.352H427.217ZM425.464 178.209H426.197V182.758C426.197 182.965 426.227 183.12 426.287 183.224C426.35 183.325 426.428 183.394 426.524 183.429C426.621 183.462 426.724 183.479 426.831 183.479C426.912 183.479 426.978 183.475 427.03 183.466C427.082 183.456 427.123 183.448 427.154 183.441L427.304 184.1C427.254 184.119 427.184 184.137 427.095 184.156C427.006 184.177 426.893 184.187 426.757 184.187C426.55 184.187 426.347 184.143 426.148 184.054C425.951 183.964 425.787 183.829 425.657 183.646C425.528 183.464 425.464 183.234 425.464 182.957V178.209ZM430.207 184.224C429.776 184.224 429.398 184.122 429.073 183.917C428.75 183.712 428.497 183.425 428.315 183.056C428.135 182.687 428.045 182.257 428.045 181.763C428.045 181.266 428.135 180.832 428.315 180.462C428.497 180.091 428.75 179.803 429.073 179.598C429.398 179.393 429.776 179.29 430.207 179.29C430.638 179.29 431.015 179.393 431.338 179.598C431.664 179.803 431.916 180.091 432.096 180.462C432.279 180.832 432.37 181.266 432.37 181.763C432.37 182.257 432.279 182.687 432.096 183.056C431.916 183.425 431.664 183.712 431.338 183.917C431.015 184.122 430.638 184.224 430.207 184.224ZM430.207 183.566C430.535 183.566 430.804 183.482 431.015 183.314C431.226 183.146 431.383 182.926 431.484 182.652C431.586 182.379 431.637 182.083 431.637 181.763C431.637 181.444 431.586 181.147 431.484 180.872C431.383 180.596 431.226 180.374 431.015 180.204C430.804 180.034 430.535 179.949 430.207 179.949C429.88 179.949 429.611 180.034 429.399 180.204C429.188 180.374 429.032 180.596 428.93 180.872C428.829 181.147 428.778 181.444 428.778 181.763C428.778 182.083 428.829 182.379 428.93 182.652C429.032 182.926 429.188 183.146 429.399 183.314C429.611 183.482 429.88 183.566 430.207 183.566ZM433.589 184.125V177.761H434.322V180.11H434.384C434.438 180.028 434.513 179.922 434.608 179.794C434.705 179.663 434.844 179.547 435.024 179.445C435.207 179.342 435.453 179.29 435.764 179.29C436.166 179.29 436.52 179.391 436.826 179.592C437.133 179.792 437.372 180.077 437.544 180.446C437.716 180.815 437.802 181.25 437.802 181.751C437.802 182.257 437.716 182.695 437.544 183.065C437.372 183.434 437.134 183.72 436.83 183.923C436.525 184.124 436.174 184.224 435.776 184.224C435.47 184.224 435.224 184.174 435.04 184.072C434.855 183.969 434.714 183.852 434.614 183.721C434.515 183.588 434.438 183.479 434.384 183.392H434.297V184.125H433.589ZM434.31 181.739C434.31 182.099 434.362 182.417 434.468 182.693C434.574 182.966 434.728 183.18 434.931 183.336C435.134 183.489 435.383 183.566 435.677 183.566C435.983 183.566 436.239 183.485 436.444 183.323C436.651 183.16 436.807 182.94 436.91 182.665C437.016 182.387 437.069 182.078 437.069 181.739C437.069 181.403 437.017 181.101 436.913 180.831C436.812 180.56 436.658 180.346 436.45 180.188C436.245 180.029 435.988 179.949 435.677 179.949C435.378 179.949 435.128 180.024 434.925 180.176C434.722 180.325 434.569 180.534 434.465 180.803C434.361 181.071 434.31 181.382 434.31 181.739ZM440.925 184.224C440.465 184.224 440.068 184.123 439.735 183.92C439.403 183.715 439.148 183.429 438.967 183.062C438.789 182.694 438.7 182.265 438.7 181.776C438.7 181.287 438.789 180.856 438.967 180.483C439.148 180.108 439.398 179.816 439.719 179.607C440.042 179.396 440.419 179.29 440.85 179.29C441.099 179.29 441.344 179.332 441.587 179.414C441.829 179.497 442.05 179.632 442.249 179.818C442.447 180.003 442.606 180.247 442.724 180.552C442.842 180.856 442.901 181.231 442.901 181.676V181.987H439.222V181.353H442.155C442.155 181.084 442.102 180.844 441.994 180.632C441.888 180.421 441.737 180.254 441.54 180.132C441.345 180.01 441.115 179.949 440.85 179.949C440.558 179.949 440.306 180.021 440.092 180.166C439.881 180.309 439.718 180.496 439.604 180.726C439.49 180.956 439.433 181.202 439.433 181.465V181.888C439.433 182.248 439.496 182.554 439.62 182.804C439.746 183.053 439.921 183.243 440.145 183.373C440.369 183.501 440.629 183.566 440.925 183.566C441.118 183.566 441.292 183.539 441.447 183.485C441.604 183.429 441.74 183.346 441.854 183.236C441.968 183.124 442.056 182.986 442.118 182.82L442.827 183.019C442.752 183.259 442.627 183.47 442.451 183.653C442.274 183.833 442.057 183.974 441.798 184.075C441.539 184.175 441.248 184.224 440.925 184.224ZM444.017 184.125V179.352H444.725V180.073H444.775C444.862 179.837 445.019 179.645 445.247 179.498C445.475 179.351 445.732 179.278 446.018 179.278C446.072 179.278 446.139 179.279 446.22 179.281C446.3 179.283 446.362 179.286 446.403 179.29V180.036C446.378 180.03 446.321 180.02 446.232 180.008C446.145 179.993 446.053 179.986 445.956 179.986C445.724 179.986 445.516 180.035 445.334 180.132C445.154 180.227 445.011 180.36 444.905 180.53C444.802 180.698 444.75 180.889 444.75 181.105V184.125H444.017Z" fill="#1C1C1C" fill-opacity="0.4"/>
<path d="M471.543 179.352C471.505 179.037 471.354 178.793 471.089 178.619C470.824 178.445 470.499 178.358 470.113 178.358C469.832 178.358 469.585 178.404 469.374 178.495C469.165 178.586 469.001 178.711 468.883 178.871C468.767 179.03 468.709 179.211 468.709 179.414C468.709 179.584 468.749 179.73 468.83 179.853C468.913 179.973 469.019 180.073 469.147 180.154C469.275 180.233 469.41 180.298 469.551 180.35C469.692 180.399 469.821 180.44 469.939 180.471L470.586 180.645C470.751 180.688 470.936 180.748 471.139 180.825C471.344 180.902 471.54 181.006 471.726 181.139C471.915 181.269 472.07 181.437 472.192 181.642C472.314 181.847 472.375 182.099 472.375 182.397C472.375 182.741 472.285 183.052 472.105 183.33C471.927 183.607 471.666 183.828 471.322 183.991C470.98 184.155 470.565 184.237 470.076 184.237C469.62 184.237 469.226 184.163 468.892 184.016C468.561 183.869 468.3 183.664 468.109 183.401C467.921 183.138 467.814 182.832 467.789 182.484H468.585C468.605 182.725 468.686 182.924 468.827 183.081C468.97 183.236 469.15 183.352 469.368 183.429C469.587 183.504 469.823 183.541 470.076 183.541C470.37 183.541 470.634 183.493 470.868 183.398C471.103 183.301 471.288 183.166 471.425 182.994C471.561 182.82 471.63 182.617 471.63 182.385C471.63 182.174 471.571 182.002 471.453 181.869C471.335 181.737 471.179 181.629 470.987 181.546C470.794 181.463 470.586 181.391 470.362 181.328L469.579 181.105C469.082 180.962 468.688 180.758 468.398 180.493C468.108 180.227 467.963 179.881 467.963 179.452C467.963 179.095 468.059 178.785 468.252 178.52C468.447 178.252 468.708 178.045 469.035 177.898C469.365 177.749 469.732 177.674 470.138 177.674C470.548 177.674 470.913 177.748 471.232 177.895C471.551 178.04 471.804 178.239 471.99 178.492C472.179 178.744 472.278 179.031 472.288 179.352H471.543ZM475.544 184.224C475.084 184.224 474.687 184.123 474.354 183.92C474.023 183.715 473.767 183.429 473.586 183.062C473.408 182.694 473.319 182.265 473.319 181.776C473.319 181.287 473.408 180.856 473.586 180.483C473.767 180.108 474.017 179.816 474.338 179.607C474.662 179.396 475.039 179.29 475.469 179.29C475.718 179.29 475.964 179.332 476.206 179.414C476.448 179.497 476.669 179.632 476.868 179.818C477.067 180.003 477.225 180.247 477.343 180.552C477.461 180.856 477.52 181.231 477.52 181.676V181.987H473.841V181.353H476.775C476.775 181.084 476.721 180.844 476.613 180.632C476.507 180.421 476.356 180.254 476.159 180.132C475.965 180.01 475.735 179.949 475.469 179.949C475.177 179.949 474.925 180.021 474.711 180.166C474.5 180.309 474.337 180.496 474.223 180.726C474.11 180.956 474.053 181.202 474.053 181.465V181.888C474.053 182.248 474.115 182.554 474.239 182.804C474.365 183.053 474.54 183.243 474.764 183.373C474.988 183.501 475.248 183.566 475.544 183.566C475.737 183.566 475.911 183.539 476.066 183.485C476.224 183.429 476.359 183.346 476.473 183.236C476.587 183.124 476.675 182.986 476.737 182.82L477.446 183.019C477.371 183.259 477.246 183.47 477.07 183.653C476.894 183.833 476.676 183.974 476.417 184.075C476.158 184.175 475.867 184.224 475.544 184.224ZM478.636 185.915V179.352H479.344V180.11H479.431C479.485 180.028 479.56 179.922 479.655 179.794C479.752 179.663 479.891 179.547 480.071 179.445C480.254 179.342 480.5 179.29 480.811 179.29C481.213 179.29 481.567 179.391 481.874 179.592C482.18 179.792 482.419 180.077 482.591 180.446C482.763 180.815 482.849 181.25 482.849 181.751C482.849 182.257 482.763 182.695 482.591 183.065C482.419 183.434 482.181 183.72 481.877 183.923C481.572 184.124 481.221 184.224 480.823 184.224C480.517 184.224 480.271 184.174 480.087 184.072C479.902 183.969 479.761 183.852 479.661 183.721C479.562 183.588 479.485 183.479 479.431 183.392H479.369V185.915H478.636ZM479.357 181.739C479.357 182.099 479.409 182.417 479.515 182.693C479.621 182.966 479.775 183.18 479.978 183.336C480.181 183.489 480.43 183.566 480.724 183.566C481.03 183.566 481.286 183.485 481.491 183.323C481.698 183.16 481.854 182.94 481.957 182.665C482.063 182.387 482.116 182.078 482.116 181.739C482.116 181.403 482.064 181.101 481.961 180.831C481.859 180.56 481.705 180.346 481.498 180.188C481.292 180.029 481.035 179.949 480.724 179.949C480.426 179.949 480.175 180.024 479.972 180.176C479.769 180.325 479.616 180.534 479.512 180.803C479.408 181.071 479.357 181.382 479.357 181.739ZM486.043 179.352V179.974H483.57V179.352H486.043ZM484.291 178.209H485.024V182.758C485.024 182.965 485.054 183.12 485.114 183.224C485.177 183.325 485.255 183.394 485.351 183.429C485.448 183.462 485.55 183.479 485.658 183.479C485.739 183.479 485.805 183.475 485.857 183.466C485.909 183.456 485.95 183.448 485.981 183.441L486.13 184.1C486.081 184.119 486.011 184.137 485.922 184.156C485.833 184.177 485.72 184.187 485.584 184.187C485.376 184.187 485.173 184.143 484.975 184.054C484.778 183.964 484.614 183.829 484.484 183.646C484.355 183.464 484.291 183.234 484.291 182.957V178.209ZM489.096 184.224C488.636 184.224 488.24 184.123 487.906 183.92C487.575 183.715 487.319 183.429 487.139 183.062C486.961 182.694 486.872 182.265 486.872 181.776C486.872 181.287 486.961 180.856 487.139 180.483C487.319 180.108 487.57 179.816 487.891 179.607C488.214 179.396 488.591 179.29 489.022 179.29C489.27 179.29 489.516 179.332 489.758 179.414C490.001 179.497 490.221 179.632 490.42 179.818C490.619 180.003 490.777 180.247 490.895 180.552C491.013 180.856 491.073 181.231 491.073 181.676V181.987H487.394V181.353H490.327C490.327 181.084 490.273 180.844 490.165 180.632C490.06 180.421 489.908 180.254 489.712 180.132C489.517 180.01 489.287 179.949 489.022 179.949C488.73 179.949 488.477 180.021 488.264 180.166C488.052 180.309 487.89 180.496 487.776 180.726C487.662 180.956 487.605 181.202 487.605 181.465V181.888C487.605 182.248 487.667 182.554 487.791 182.804C487.918 183.053 488.093 183.243 488.316 183.373C488.54 183.501 488.8 183.566 489.096 183.566C489.289 183.566 489.463 183.539 489.618 183.485C489.776 183.429 489.911 183.346 490.025 183.236C490.139 183.124 490.227 182.986 490.289 182.82L490.998 183.019C490.923 183.259 490.798 183.47 490.622 183.653C490.446 183.833 490.228 183.974 489.969 184.075C489.711 184.175 489.419 184.224 489.096 184.224ZM492.188 184.125V179.352H492.896V180.098H492.959C493.058 179.843 493.219 179.645 493.44 179.505C493.662 179.362 493.928 179.29 494.239 179.29C494.554 179.29 494.816 179.362 495.025 179.505C495.236 179.645 495.401 179.843 495.519 180.098H495.569C495.691 179.852 495.874 179.656 496.119 179.511C496.363 179.364 496.656 179.29 496.998 179.29C497.425 179.29 497.774 179.424 498.045 179.691C498.317 179.956 498.452 180.369 498.452 180.931V184.125H497.719V180.931C497.719 180.579 497.623 180.327 497.43 180.176C497.237 180.024 497.01 179.949 496.749 179.949C496.414 179.949 496.154 180.05 495.97 180.253C495.785 180.454 495.693 180.709 495.693 181.018V184.125H494.947V180.856C494.947 180.585 494.859 180.366 494.683 180.201C494.507 180.033 494.28 179.949 494.003 179.949C493.812 179.949 493.634 180 493.468 180.101C493.305 180.203 493.172 180.343 493.07 180.524C492.971 180.702 492.921 180.908 492.921 181.142V184.125H492.188ZM499.892 184.125V177.761H500.626V180.11H500.688C500.742 180.028 500.816 179.922 500.912 179.794C501.009 179.663 501.148 179.547 501.328 179.445C501.51 179.342 501.757 179.29 502.067 179.29C502.469 179.29 502.824 179.391 503.13 179.592C503.437 179.792 503.676 180.077 503.848 180.446C504.02 180.815 504.106 181.25 504.106 181.751C504.106 182.257 504.02 182.695 503.848 183.065C503.676 183.434 503.438 183.72 503.133 183.923C502.829 184.124 502.478 184.224 502.08 184.224C501.773 184.224 501.528 184.174 501.344 184.072C501.159 183.969 501.017 183.852 500.918 183.721C500.818 183.588 500.742 183.479 500.688 183.392H500.601V184.125H499.892ZM500.613 181.739C500.613 182.099 500.666 182.417 500.772 182.693C500.877 182.966 501.032 183.18 501.235 183.336C501.438 183.489 501.686 183.566 501.98 183.566C502.287 183.566 502.543 183.485 502.748 183.323C502.955 183.16 503.11 182.94 503.214 182.665C503.32 182.387 503.373 182.078 503.373 181.739C503.373 181.403 503.321 181.101 503.217 180.831C503.116 180.56 502.961 180.346 502.754 180.188C502.549 180.029 502.291 179.949 501.98 179.949C501.682 179.949 501.432 180.024 501.229 180.176C501.026 180.325 500.872 180.534 500.769 180.803C500.665 181.071 500.613 181.382 500.613 181.739ZM507.229 184.224C506.769 184.224 506.372 184.123 506.039 183.92C505.707 183.715 505.451 183.429 505.271 183.062C505.093 182.694 505.004 182.265 505.004 181.776C505.004 181.287 505.093 180.856 505.271 180.483C505.451 180.108 505.702 179.816 506.023 179.607C506.346 179.396 506.723 179.29 507.154 179.29C507.403 179.29 507.648 179.332 507.89 179.414C508.133 179.497 508.353 179.632 508.552 179.818C508.751 180.003 508.91 180.247 509.028 180.552C509.146 180.856 509.205 181.231 509.205 181.676V181.987H505.526V181.353H508.459C508.459 181.084 508.405 180.844 508.298 180.632C508.192 180.421 508.041 180.254 507.844 180.132C507.649 180.01 507.419 179.949 507.154 179.949C506.862 179.949 506.609 180.021 506.396 180.166C506.185 180.309 506.022 180.496 505.908 180.726C505.794 180.956 505.737 181.202 505.737 181.465V181.888C505.737 182.248 505.799 182.554 505.924 182.804C506.05 183.053 506.225 183.243 506.449 183.373C506.672 183.501 506.932 183.566 507.229 183.566C507.421 183.566 507.595 183.539 507.751 183.485C507.908 183.429 508.044 183.346 508.158 183.236C508.272 183.124 508.36 182.986 508.422 182.82L509.13 183.019C509.056 183.259 508.93 183.47 508.754 183.653C508.578 183.833 508.361 183.974 508.102 184.075C507.843 184.175 507.552 184.224 507.229 184.224ZM510.32 184.125V179.352H511.029V180.073H511.079C511.166 179.837 511.323 179.645 511.551 179.498C511.779 179.351 512.036 179.278 512.321 179.278C512.375 179.278 512.443 179.279 512.523 179.281C512.604 179.283 512.665 179.286 512.707 179.29V180.036C512.682 180.03 512.625 180.02 512.536 180.008C512.449 179.993 512.357 179.986 512.259 179.986C512.027 179.986 511.82 180.035 511.638 180.132C511.458 180.227 511.315 180.36 511.209 180.53C511.105 180.698 511.054 180.889 511.054 181.105V184.125H510.32Z" fill="#1C1C1C" fill-opacity="0.4"/>
<path d="M534.699 184.125H533.891L536.227 177.761H537.023L539.359 184.125H538.552L536.65 178.768H536.6L534.699 184.125ZM534.997 181.639H538.253V182.323H534.997V181.639ZM543.259 182.174V179.352H543.992V184.125H543.259V183.317H543.209C543.097 183.559 542.923 183.766 542.687 183.935C542.451 184.103 542.153 184.187 541.792 184.187C541.494 184.187 541.229 184.122 540.997 183.991C540.765 183.859 540.583 183.66 540.45 183.395C540.318 183.128 540.251 182.791 540.251 182.385V179.352H540.985V182.335C540.985 182.683 541.082 182.961 541.277 183.168C541.473 183.375 541.724 183.479 542.029 183.479C542.211 183.479 542.396 183.432 542.585 183.339C542.775 183.246 542.935 183.103 543.063 182.91C543.194 182.717 543.259 182.472 543.259 182.174ZM547.262 186.014C546.908 186.014 546.603 185.969 546.348 185.877C546.094 185.788 545.881 185.67 545.711 185.523C545.544 185.378 545.41 185.223 545.311 185.057L545.895 184.647C545.961 184.734 546.045 184.833 546.146 184.945C546.248 185.059 546.387 185.158 546.563 185.241C546.741 185.325 546.974 185.368 547.262 185.368C547.647 185.368 547.965 185.275 548.216 185.088C548.467 184.902 548.592 184.61 548.592 184.212V183.243H548.53C548.476 183.33 548.399 183.437 548.3 183.566C548.202 183.692 548.062 183.805 547.877 183.904C547.695 184.002 547.448 184.05 547.138 184.05C546.752 184.05 546.406 183.959 546.1 183.777C545.795 183.595 545.554 183.33 545.376 182.982C545.2 182.634 545.112 182.211 545.112 181.714C545.112 181.225 545.198 180.799 545.37 180.437C545.542 180.072 545.781 179.79 546.087 179.592C546.394 179.391 546.748 179.29 547.15 179.29C547.461 179.29 547.707 179.342 547.89 179.445C548.074 179.547 548.215 179.663 548.312 179.794C548.412 179.922 548.488 180.028 548.542 180.11H548.617V179.352H549.325V184.262C549.325 184.672 549.232 185.005 549.046 185.262C548.861 185.521 548.613 185.711 548.3 185.831C547.989 185.953 547.643 186.014 547.262 186.014ZM547.237 183.392C547.531 183.392 547.78 183.324 547.983 183.19C548.186 183.055 548.34 182.861 548.446 182.609C548.551 182.356 548.604 182.054 548.604 181.701C548.604 181.357 548.553 181.054 548.449 180.791C548.345 180.528 548.192 180.322 547.989 180.173C547.786 180.023 547.535 179.949 547.237 179.949C546.926 179.949 546.667 180.028 546.46 180.185C546.255 180.342 546.101 180.554 545.997 180.819C545.896 181.084 545.845 181.378 545.845 181.701C545.845 182.033 545.897 182.326 546 182.581C546.106 182.833 546.261 183.032 546.467 183.177C546.674 183.32 546.931 183.392 547.237 183.392ZM553.675 182.174V179.352H554.409V184.125H553.675V183.317H553.626C553.514 183.559 553.34 183.766 553.104 183.935C552.867 184.103 552.569 184.187 552.209 184.187C551.91 184.187 551.645 184.122 551.413 183.991C551.181 183.859 550.999 183.66 550.866 183.395C550.734 183.128 550.668 182.791 550.668 182.385V179.352H551.401V182.335C551.401 182.683 551.498 182.961 551.693 183.168C551.89 183.375 552.14 183.479 552.445 183.479C552.627 183.479 552.813 183.432 553.001 183.339C553.192 183.246 553.351 183.103 553.48 182.91C553.61 182.717 553.675 182.472 553.675 182.174ZM559.132 180.421L558.474 180.608C558.432 180.498 558.371 180.391 558.29 180.288C558.212 180.182 558.104 180.095 557.967 180.027C557.83 179.958 557.655 179.924 557.442 179.924C557.15 179.924 556.907 179.991 556.712 180.126C556.519 180.259 556.423 180.427 556.423 180.632C556.423 180.815 556.489 180.959 556.622 181.064C556.754 181.17 556.961 181.258 557.243 181.328L557.952 181.502C558.378 181.606 558.696 181.765 558.906 181.978C559.115 182.189 559.219 182.462 559.219 182.795C559.219 183.069 559.141 183.313 558.983 183.528C558.828 183.744 558.61 183.914 558.331 184.038C558.051 184.162 557.726 184.224 557.355 184.224C556.868 184.224 556.465 184.119 556.146 183.907C555.827 183.696 555.625 183.388 555.54 182.982L556.236 182.808C556.303 183.064 556.428 183.257 556.612 183.385C556.799 183.514 557.042 183.578 557.343 183.578C557.684 183.578 557.956 183.506 558.157 183.361C558.36 183.214 558.461 183.037 558.461 182.832C558.461 182.667 558.403 182.528 558.287 182.416C558.171 182.302 557.993 182.217 557.753 182.161L556.957 181.975C556.52 181.871 556.199 181.711 555.994 181.493C555.791 181.274 555.69 180.999 555.69 180.67C555.69 180.4 555.765 180.162 555.916 179.955C556.07 179.748 556.278 179.585 556.541 179.467C556.806 179.349 557.106 179.29 557.442 179.29C557.914 179.29 558.285 179.394 558.554 179.601C558.826 179.808 559.018 180.081 559.132 180.421ZM562.399 179.352V179.974H559.926V179.352H562.399ZM560.646 178.209H561.38V182.758C561.38 182.965 561.41 183.12 561.47 183.224C561.532 183.325 561.611 183.394 561.706 183.429C561.803 183.462 561.906 183.479 562.014 183.479C562.094 183.479 562.161 183.475 562.212 183.466C562.264 183.456 562.306 183.448 562.337 183.441L562.486 184.1C562.436 184.119 562.367 184.137 562.278 184.156C562.189 184.177 562.076 184.187 561.939 184.187C561.732 184.187 561.529 184.143 561.33 184.054C561.133 183.964 560.97 183.829 560.839 183.646C560.711 183.464 560.646 183.234 560.646 182.957V178.209Z" fill="#1C1C1C" fill-opacity="0.4"/>
<path d="M587.249 177.761H588.019V182.31C588.019 182.716 587.945 183.061 587.796 183.345C587.646 183.629 587.436 183.844 587.165 183.991C586.893 184.138 586.573 184.212 586.205 184.212C585.857 184.212 585.547 184.149 585.276 184.022C585.004 183.894 584.791 183.712 584.635 183.476C584.48 183.239 584.402 182.959 584.402 182.634H585.161C585.161 182.814 585.205 182.971 585.294 183.106C585.385 183.238 585.51 183.342 585.667 183.417C585.825 183.491 586.004 183.528 586.205 183.528C586.426 183.528 586.615 183.482 586.77 183.389C586.926 183.295 587.044 183.159 587.124 182.978C587.207 182.796 587.249 182.573 587.249 182.31V177.761ZM592.472 182.174V179.352H593.205V184.125H592.472V183.317H592.422C592.31 183.559 592.136 183.766 591.9 183.935C591.664 184.103 591.366 184.187 591.005 184.187C590.707 184.187 590.442 184.122 590.21 183.991C589.978 183.859 589.796 183.66 589.663 183.395C589.53 183.128 589.464 182.791 589.464 182.385V179.352H590.197V182.335C590.197 182.683 590.295 182.961 590.49 183.168C590.686 183.375 590.937 183.479 591.241 183.479C591.424 183.479 591.609 183.432 591.798 183.339C591.988 183.246 592.148 183.103 592.276 182.91C592.407 182.717 592.472 182.472 592.472 182.174ZM595.282 177.761V184.125H594.548V177.761H595.282ZM597.097 185.915C596.973 185.915 596.862 185.904 596.765 185.884C596.667 185.865 596.6 185.846 596.563 185.828L596.749 185.181C596.927 185.227 597.085 185.244 597.221 185.231C597.358 185.219 597.479 185.158 597.585 185.048C597.693 184.94 597.791 184.765 597.88 184.523L598.017 184.15L596.252 179.352H597.047L598.365 183.156H598.415L599.732 179.352H600.527L598.502 184.821C598.41 185.068 598.298 185.272 598.163 185.433C598.028 185.597 597.872 185.718 597.694 185.797C597.518 185.875 597.319 185.915 597.097 185.915Z" fill="#1C1C1C" fill-opacity="0.4"/>
<path d="M624.624 177.761H625.394V182.31C625.394 182.716 625.32 183.061 625.171 183.345C625.021 183.629 624.811 183.844 624.54 183.991C624.268 184.138 623.948 184.212 623.58 184.212C623.232 184.212 622.922 184.149 622.651 184.022C622.379 183.894 622.166 183.712 622.01 183.476C621.855 183.239 621.777 182.959 621.777 182.634H622.536C622.536 182.814 622.58 182.971 622.669 183.106C622.76 183.238 622.885 183.342 623.042 183.417C623.2 183.491 623.379 183.528 623.58 183.528C623.801 183.528 623.99 183.482 624.145 183.389C624.301 183.295 624.419 183.159 624.499 182.978C624.582 182.796 624.624 182.573 624.624 182.31V177.761ZM629.847 182.174V179.352H630.58V184.125H629.847V183.317H629.797C629.685 183.559 629.511 183.766 629.275 183.935C629.039 184.103 628.741 184.187 628.38 184.187C628.082 184.187 627.817 184.122 627.585 183.991C627.353 183.859 627.171 183.66 627.038 183.395C626.905 183.128 626.839 182.791 626.839 182.385V179.352H627.572V182.335C627.572 182.683 627.67 182.961 627.865 183.168C628.061 183.375 628.312 183.479 628.616 183.479C628.799 183.479 628.984 183.432 629.173 183.339C629.363 183.246 629.523 183.103 629.651 182.91C629.782 182.717 629.847 182.472 629.847 182.174ZM632.657 181.254V184.125H631.923V179.352H632.632V180.098H632.694C632.806 179.856 632.976 179.661 633.204 179.514C633.431 179.365 633.726 179.29 634.086 179.29C634.409 179.29 634.692 179.356 634.934 179.489C635.177 179.619 635.365 179.818 635.5 180.086C635.634 180.351 635.702 180.686 635.702 181.092V184.125H634.968V181.142C634.968 180.767 634.871 180.475 634.676 180.266C634.482 180.055 634.214 179.949 633.875 179.949C633.641 179.949 633.431 180 633.247 180.101C633.065 180.203 632.921 180.351 632.815 180.545C632.709 180.74 632.657 180.976 632.657 181.254ZM639.043 184.224C638.583 184.224 638.186 184.123 637.853 183.92C637.521 183.715 637.265 183.429 637.085 183.062C636.907 182.694 636.818 182.265 636.818 181.776C636.818 181.287 636.907 180.856 637.085 180.483C637.265 180.108 637.516 179.816 637.837 179.607C638.16 179.396 638.537 179.29 638.968 179.29C639.217 179.29 639.462 179.332 639.705 179.414C639.947 179.497 640.168 179.632 640.367 179.818C640.565 180.003 640.724 180.247 640.842 180.552C640.96 180.856 641.019 181.231 641.019 181.676V181.987H637.34V181.353H640.273C640.273 181.084 640.219 180.844 640.112 180.632C640.006 180.421 639.855 180.254 639.658 180.132C639.463 180.01 639.233 179.949 638.968 179.949C638.676 179.949 638.423 180.021 638.21 180.166C637.999 180.309 637.836 180.496 637.722 180.726C637.608 180.956 637.551 181.202 637.551 181.465V181.888C637.551 182.248 637.614 182.554 637.738 182.804C637.864 183.053 638.039 183.243 638.263 183.373C638.487 183.501 638.747 183.566 639.043 183.566C639.235 183.566 639.409 183.539 639.565 183.485C639.722 183.429 639.858 183.346 639.972 183.236C640.086 183.124 640.174 182.986 640.236 182.82L640.944 183.019C640.87 183.259 640.745 183.47 640.568 183.653C640.392 183.833 640.175 183.974 639.916 184.075C639.657 184.175 639.366 184.224 639.043 184.224Z" fill="#1C1C1C" fill-opacity="0.4"/>
<path d="M51.5 61.5C51.5 61.5 110.674 82.4689 162.087 93.2331C213.499 103.997 239.206 103.997 290.618 109.936C342.031 115.875 367.737 117.731 419.15 122.927C470.563 128.124 496.269 135.919 547.682 135.919C599.095 135.919 634 132.5 634 132.5" stroke="#019267"/>
<path d="M52.9995 49.7057C52.9995 49.7057 110.087 62.7057 161.5 62.7057C212.912 62.7057 239.205 27.6266 290.618 27.6266C342.031 27.6266 367.737 140.836 419.15 140.836C470.563 140.836 479 3.5 547.682 3.5C599.095 3.5 633.5 29.7057 633.5 29.7057" stroke="#24ABAB"/>
<path d="M52.5 49.5C52.5 49.5 110.674 51.4122 162.087 43.9886C213.499 36.565 237.587 17.5 289 17.5C340.413 17.5 367.737 103.377 419.15 103.377C470.563 103.377 496.269 47.7004 547.682 47.7004C599.095 47.7004 634 65.5 634 65.5" stroke="black"/>
<path d="M138.786 49.7243C137.782 49.7243 136.819 49.3701 136.109 48.7398C135.399 48.1095 135 47.2545 135 46.363C135 45.4714 135.398 44.6163 136.108 43.9856C136.817 43.355 137.78 43.0004 138.784 43C139.788 42.9996 140.751 43.3532 141.461 43.9833C142.172 44.6133 142.571 45.4681 142.572 46.3596C142.573 47.2512 142.175 48.1065 141.465 48.7374C140.756 49.3684 139.794 49.7234 138.79 49.7243H138.786Z" fill="black"/>
<path d="M138.786 63.7243C137.782 63.7243 136.819 63.3701 136.109 62.7398C135.399 62.1095 135 61.2545 135 60.363C135 59.4714 135.398 58.6163 136.108 57.9856C136.817 57.355 137.78 57.0004 138.784 57C139.788 56.9996 140.751 57.3532 141.461 57.9833C142.172 58.6133 142.571 59.4681 142.572 60.3596C142.573 61.2512 142.175 62.1065 141.465 62.7374C140.756 63.3684 139.794 63.7234 138.79 63.7243H138.786Z" fill="#24ABAB"/>
<path d="M138.786 90.7243C137.782 90.7243 136.819 90.3701 136.109 89.7398C135.399 89.1095 135 88.2545 135 87.363C135 86.4714 135.398 85.6163 136.108 84.9856C136.817 84.355 137.78 84.0004 138.784 84C139.788 83.9996 140.751 84.3532 141.461 84.9833C142.172 85.6133 142.571 86.4681 142.572 87.3596C142.573 88.2512 142.175 89.1065 141.465 89.7374C140.756 90.3684 139.794 90.7234 138.79 90.7243H138.786Z" fill="#019267"/>
<path d="M95.7859 51.7243C94.782 51.7243 93.8192 51.3701 93.1092 50.7398C92.3992 50.1095 92.0003 49.2545 92 48.363C91.9997 47.4714 92.3983 46.6163 93.1079 45.9856C93.8175 45.355 94.7801 45.0004 95.784 45C96.7879 44.9996 97.751 45.3532 98.4613 45.9833C99.1716 46.6133 99.5711 47.4681 99.5718 48.3596C99.5726 49.2512 99.1746 50.1065 98.4653 50.7374C97.756 51.3684 96.7936 51.7234 95.7897 51.7243H95.7859Z" fill="black"/>
<path d="M95.7859 59.7243C94.782 59.7243 93.8192 59.3701 93.1092 58.7398C92.3992 58.1095 92.0003 57.2545 92 56.363C91.9997 55.4714 92.3983 54.6163 93.1079 53.9856C93.8175 53.355 94.7801 53.0004 95.784 53C96.7879 52.9996 97.751 53.3532 98.4613 53.9833C99.1716 54.6133 99.5711 55.4681 99.5718 56.3596C99.5726 57.2512 99.1746 58.1065 98.4653 58.7374C97.756 59.3684 96.7936 59.7234 95.7897 59.7243H95.7859Z" fill="#24ABAB"/>
<path d="M95.7859 78.7243C94.782 78.7243 93.8192 78.3701 93.1092 77.7398C92.3992 77.1095 92.0003 76.2545 92 75.363C91.9997 74.4714 92.3983 73.6163 93.1079 72.9856C93.8175 72.355 94.7801 72.0004 95.784 72C96.7879 71.9996 97.751 72.3532 98.4613 72.9833C99.1716 73.6133 99.5711 74.4681 99.5718 75.3596C99.5726 76.2512 99.1746 77.1065 98.4653 77.7374C97.756 78.3684 96.7936 78.7234 95.7897 78.7243H95.7859Z" fill="#019267"/>
<path d="M190.786 40.7243C189.782 40.7243 188.819 40.3701 188.109 39.7398C187.399 39.1095 187 38.2545 187 37.363C187 36.4714 187.398 35.6163 188.108 34.9856C188.817 34.355 189.78 34.0004 190.784 34C191.788 33.9996 192.751 34.3532 193.461 34.9833C194.172 35.6133 194.571 36.4681 194.572 37.3596C194.573 38.2512 194.175 39.1065 193.465 39.7374C192.756 40.3684 191.794 40.7234 190.79 40.7243H190.786Z" fill="black"/>
<path d="M190.786 60.7243C189.782 60.7243 188.819 60.3701 188.109 59.7398C187.399 59.1095 187 58.2545 187 57.363C187 56.4714 187.398 55.6163 188.108 54.9856C188.817 54.355 189.78 54.0004 190.784 54C191.788 53.9996 192.751 54.3532 193.461 54.9833C194.172 55.6133 194.571 56.4681 194.572 57.3596C194.573 58.2512 194.175 59.1065 193.465 59.7374C192.756 60.3684 191.794 60.7234 190.79 60.7243H190.786Z" fill="#24ABAB"/>
<path d="M190.786 101.724C189.782 101.724 188.819 101.37 188.109 100.74C187.399 100.109 187 99.2545 187 98.363C187 97.4714 187.398 96.6163 188.108 95.9856C188.817 95.355 189.78 95.0004 190.784 95C191.788 94.9996 192.751 95.3532 193.461 95.9833C194.172 96.6133 194.571 97.4681 194.572 98.3596C194.573 99.2512 194.175 100.106 193.465 100.737C192.756 101.368 191.794 101.723 190.79 101.724H190.786Z" fill="#019267"/>
<path d="M370.786 80.7243C369.782 80.7243 368.819 80.3701 368.109 79.7398C367.399 79.1095 367 78.2545 367 77.363C367 76.4714 367.398 75.6163 368.108 74.9856C368.817 74.355 369.78 74.0004 370.784 74C371.788 73.9996 372.751 74.3532 373.461 74.9833C374.172 75.6133 374.571 76.4681 374.572 77.3596C374.573 78.2512 374.175 79.1065 373.465 79.7374C372.756 80.3684 371.794 80.7234 370.79 80.7243H370.786Z" fill="black"/>
<path d="M370.786 121.724C369.782 121.724 368.819 121.37 368.109 120.74C367.399 120.109 367 119.255 367 118.363C367 117.471 367.398 116.616 368.108 115.986C368.817 115.355 369.78 115 370.784 115C371.788 115 372.751 115.353 373.461 115.983C374.172 116.613 374.571 117.468 374.572 118.36C374.573 119.251 374.175 120.106 373.465 120.737C372.756 121.368 371.794 121.723 370.79 121.724H370.786Z" fill="#019267"/>
<path d="M370.786 107.724C369.782 107.724 368.819 107.37 368.109 106.74C367.399 106.109 367 105.255 367 104.363C367 103.471 367.398 102.616 368.108 101.986C368.817 101.355 369.78 101 370.784 101C371.788 101 372.751 101.353 373.461 101.983C374.172 102.613 374.571 103.468 374.572 104.36C374.573 105.251 374.175 106.106 373.465 106.737C372.756 107.368 371.794 107.723 370.79 107.724H370.786Z" fill="#24ABAB"/>
<path d="M430.786 105.724C429.782 105.724 428.819 105.37 428.109 104.74C427.399 104.109 427 103.255 427 102.363C427 101.471 427.398 100.616 428.108 99.9856C428.817 99.355 429.78 99.0004 430.784 99C431.788 98.9996 432.751 99.3532 433.461 99.9833C434.172 100.613 434.571 101.468 434.572 102.36C434.573 103.251 434.175 104.106 433.465 104.737C432.756 105.368 431.794 105.723 430.79 105.724H430.786Z" fill="black"/>
<path d="M430.786 127.724C429.782 127.724 428.819 127.37 428.109 126.74C427.399 126.109 427 125.255 427 124.363C427 123.471 427.398 122.616 428.108 121.986C428.817 121.355 429.78 121 430.784 121C431.788 121 432.751 121.353 433.461 121.983C434.172 122.613 434.571 123.468 434.572 124.36C434.573 125.251 434.175 126.106 433.465 126.737C432.756 127.368 431.794 127.723 430.79 127.724H430.786Z" fill="#019267"/>
<path d="M430.786 140.724C429.782 140.724 428.819 140.37 428.109 139.74C427.399 139.109 427 138.255 427 137.363C427 136.471 427.398 135.616 428.108 134.986C428.817 134.355 429.78 134 430.784 134C431.788 134 432.751 134.353 433.461 134.983C434.172 135.613 434.571 136.468 434.572 137.36C434.573 138.251 434.175 139.106 433.465 139.737C432.756 140.368 431.794 140.723 430.79 140.724H430.786Z" fill="#24ABAB"/>
<path d="M490.786 49.7243C489.782 49.7243 488.819 49.3701 488.109 48.7398C487.399 48.1095 487 47.2545 487 46.363C487 45.4714 487.398 44.6163 488.108 43.9856C488.817 43.355 489.78 43.0004 490.784 43C491.788 42.9996 492.751 43.3532 493.461 43.9833C494.172 44.6133 494.571 45.4681 494.572 46.3596C494.573 47.2512 494.175 48.1065 493.465 48.7374C492.756 49.3684 491.794 49.7234 490.79 49.7243H490.786Z" fill="#24ABAB"/>
<path d="M490.786 73.7243C489.782 73.7243 488.819 73.3701 488.109 72.7398C487.399 72.1095 487 71.2545 487 70.363C487 69.4714 487.398 68.6163 488.108 67.9856C488.817 67.355 489.78 67.0004 490.784 67C491.788 66.9996 492.751 67.3532 493.461 67.9833C494.172 68.6133 494.571 69.4681 494.572 70.3596C494.573 71.2512 494.175 72.1065 493.465 72.7374C492.756 73.3684 491.794 73.7234 490.79 73.7243H490.786Z" fill="black"/>
<path d="M490.786 135.724C489.782 135.724 488.819 135.37 488.109 134.74C487.399 134.109 487 133.255 487 132.363C487 131.471 487.398 130.616 488.108 129.986C488.817 129.355 489.78 129 490.784 129C491.788 129 492.751 129.353 493.461 129.983C494.172 130.613 494.571 131.468 494.572 132.36C494.573 133.251 494.175 134.106 493.465 134.737C492.756 135.368 491.794 135.723 490.79 135.724H490.786Z" fill="#019267"/>
<path d="M247.786 25.7243C246.782 25.7243 245.819 25.3701 245.109 24.7398C244.399 24.1095 244 23.2545 244 22.363C244 21.4714 244.398 20.6163 245.108 19.9856C245.817 19.355 246.78 19.0004 247.784 19C248.788 18.9996 249.751 19.3532 250.461 19.9833C251.172 20.6133 251.571 21.4681 251.572 22.3596C251.573 23.2512 251.175 24.1065 250.465 24.7374C249.756 25.3684 248.794 25.7234 247.79 25.7243H247.786Z" fill="black"/>
<path d="M247.786 38.7243C246.782 38.7243 245.819 38.3701 245.109 37.7398C244.399 37.1095 244 36.2545 244 35.363C244 34.4714 244.398 33.6163 245.108 32.9856C245.817 32.355 246.78 32.0004 247.784 32C248.788 31.9996 249.751 32.3532 250.461 32.9833C251.172 33.6133 251.571 34.4681 251.572 35.3596C251.573 36.2512 251.175 37.1065 250.465 37.7374C249.756 38.3684 248.794 38.7234 247.79 38.7243H247.786Z" fill="#24ABAB"/>
<path d="M247.786 108.724C246.782 108.724 245.819 108.37 245.109 107.74C244.399 107.109 244 106.255 244 105.363C244 104.471 244.398 103.616 245.108 102.986C245.817 102.355 246.78 102 247.784 102C248.788 102 249.751 102.353 250.461 102.983C251.172 103.613 251.571 104.468 251.572 105.36C251.573 106.251 251.175 107.106 250.465 107.737C249.756 108.368 248.794 108.723 247.79 108.724H247.786Z" fill="#019267"/>
<path d="M308.786 24.7243C307.782 24.7243 306.819 24.3701 306.109 23.7398C305.399 23.1095 305 22.2545 305 21.363C305 20.4714 305.398 19.6163 306.108 18.9856C306.817 18.355 307.78 18.0004 308.784 18C309.788 17.9996 310.751 18.3532 311.461 18.9833C312.172 19.6133 312.571 20.4681 312.572 21.3596C312.573 22.2512 312.175 23.1065 311.465 23.7374C310.756 24.3684 309.794 24.7234 308.79 24.7243H308.786Z" fill="black"/>
<path d="M308.786 33.7243C307.782 33.7243 306.819 33.3701 306.109 32.7398C305.399 32.1095 305 31.2545 305 30.363C305 29.4714 305.398 28.6163 306.108 27.9856C306.817 27.355 307.78 27.0004 308.784 27C309.788 26.9996 310.751 27.3532 311.461 27.9833C312.172 28.6133 312.571 29.4681 312.572 30.3596C312.573 31.2512 312.175 32.1065 311.465 32.7374C310.756 33.3684 309.794 33.7234 308.79 33.7243H308.786Z" fill="#24ABAB"/>
<path d="M308.786 114.724C307.782 114.724 306.819 114.37 306.109 113.74C305.399 113.109 305 112.255 305 111.363C305 110.471 305.398 109.616 306.108 108.986C306.817 108.355 307.78 108 308.784 108C309.788 108 310.751 108.353 311.461 108.983C312.172 109.613 312.571 110.468 312.572 111.36C312.573 112.251 312.175 113.106 311.465 113.737C310.756 114.368 309.794 114.723 308.79 114.724H308.786Z" fill="#019267"/>
<path d="M548.786 6.72425C547.782 6.72425 546.819 6.37015 546.109 5.73981C545.399 5.10947 545 4.25451 545 3.36297C545 2.47142 545.398 1.61629 546.108 0.985633C546.817 0.354979 547.78 0.000446194 548.784 4.20871e-07C549.788 -0.000445352 550.751 0.353237 551.461 0.98326C552.172 1.61328 552.571 2.46806 552.572 3.35961C552.573 4.25115 552.175 5.10646 551.465 5.73743C550.756 6.3684 549.794 6.72336 548.79 6.72425H548.786Z" fill="#24ABAB"/>
<path d="M548.786 50.7243C547.782 50.7243 546.819 50.3701 546.109 49.7398C545.399 49.1095 545 48.2545 545 47.363C545 46.4714 545.398 45.6163 546.108 44.9856C546.817 44.355 547.78 44.0004 548.784 44C549.788 43.9996 550.751 44.3532 551.461 44.9833C552.172 45.6133 552.571 46.4681 552.572 47.3596C552.573 48.2512 552.175 49.1065 551.465 49.7374C550.756 50.3684 549.794 50.7234 548.79 50.7243H548.786Z" fill="black"/>
<path d="M548.786 138.724C547.782 138.724 546.819 138.37 546.109 137.74C545.399 137.109 545 136.255 545 135.363C545 134.471 545.398 133.616 546.108 132.986C546.817 132.355 547.78 132 548.784 132C549.788 132 550.751 132.353 551.461 132.983C552.172 133.613 552.571 134.468 552.572 135.36C552.573 136.251 552.175 137.106 551.465 137.737C550.756 138.368 549.794 138.723 548.79 138.724H548.786Z" fill="#019267"/>
<path d="M592.786 13.7243C591.782 13.7243 590.819 13.3701 590.109 12.7398C589.399 12.1095 589 11.2545 589 10.363C589 9.47142 589.398 8.61629 590.108 7.98563C590.817 7.35498 591.78 7.00045 592.784 7C593.788 6.99955 594.751 7.35324 595.461 7.98326C596.172 8.61328 596.571 9.46806 596.572 10.3596C596.573 11.2512 596.175 12.1065 595.465 12.7374C594.756 13.3684 593.794 13.7234 592.79 13.7243H592.786Z" fill="#24ABAB"/>
<path d="M592.786 56.7243C591.782 56.7243 590.819 56.3701 590.109 55.7398C589.399 55.1095 589 54.2545 589 53.363C589 52.4714 589.398 51.6163 590.108 50.9856C590.817 50.355 591.78 50.0004 592.784 50C593.788 49.9996 594.751 50.3532 595.461 50.9833C596.172 51.6133 596.571 52.4681 596.572 53.3596C596.573 54.2512 596.175 55.1065 595.465 55.7374C594.756 56.3684 593.794 56.7234 592.79 56.7243H592.786Z" fill="black"/>
<path d="M592.786 137.724C591.782 137.724 590.819 137.37 590.109 136.74C589.399 136.109 589 135.255 589 134.363C589 133.471 589.398 132.616 590.108 131.986C590.817 131.355 591.78 131 592.784 131C593.788 131 594.751 131.353 595.461 131.983C596.172 132.613 596.571 133.468 596.572 134.36C596.573 135.251 596.175 136.106 595.465 136.737C594.756 137.368 593.794 137.723 592.79 137.724H592.786Z" fill="#019267"/>
<path d="M632.786 31.7243C631.782 31.7243 630.819 31.3701 630.109 30.7398C629.399 30.1095 629 29.2545 629 28.363C629 27.4714 629.398 26.6163 630.108 25.9856C630.817 25.355 631.78 25.0004 632.784 25C633.788 24.9996 634.751 25.3532 635.461 25.9833C636.172 26.6133 636.571 27.4681 636.572 28.3596C636.573 29.2512 636.175 30.1065 635.465 30.7374C634.756 31.3684 633.794 31.7234 632.79 31.7243H632.786Z" fill="#24ABAB"/>
<path d="M632.786 67.7243C631.782 67.7243 630.819 67.3701 630.109 66.7398C629.399 66.1095 629 65.2545 629 64.363C629 63.4714 629.398 62.6163 630.108 61.9856C630.817 61.355 631.78 61.0004 632.784 61C633.788 60.9996 634.751 61.3532 635.461 61.9833C636.172 62.6133 636.571 63.4681 636.572 64.3596C636.573 65.2512 636.175 66.1065 635.465 66.7374C634.756 67.3684 633.794 67.7234 632.79 67.7243H632.786Z" fill="black"/>
<path d="M632.786 136.724C631.782 136.724 630.819 136.37 630.109 135.74C629.399 135.109 629 134.255 629 133.363C629 132.471 629.398 131.616 630.108 130.986C630.817 130.355 631.78 130 632.784 130C633.788 130 634.751 130.353 635.461 130.983C636.172 131.613 636.571 132.468 636.572 133.36C636.573 134.251 636.175 135.106 635.465 135.737C634.756 136.368 633.794 136.723 632.79 136.724H632.786Z" fill="#019267"/>
<path d="M22.8973 13.6364V20H22.1267V14.755H22.077C22.048 14.813 21.9734 14.8793 21.8532 14.9538C21.7331 15.0263 21.5777 15.0906 21.3872 15.1465C21.1966 15.2003 20.9791 15.2273 20.7346 15.2273V14.581C20.9811 14.581 21.1945 14.5364 21.3747 14.4474C21.555 14.3583 21.7051 14.2537 21.8253 14.1335C21.9475 14.0134 22.0397 13.9046 22.1018 13.8073C22.166 13.7099 22.2033 13.6529 22.2137 13.6364H22.8973ZM26.7969 20.087C26.3287 20.087 25.93 19.9596 25.6006 19.7048C25.2712 19.4479 25.0195 19.0761 24.8455 18.5893C24.6715 18.1004 24.5845 17.5101 24.5845 16.8182C24.5845 16.1304 24.6715 15.5432 24.8455 15.0564C25.0216 14.5675 25.2743 14.1946 25.6037 13.9378C25.9351 13.6788 26.3329 13.5494 26.7969 13.5494C27.2609 13.5494 27.6576 13.6788 27.9869 13.9378C28.3184 14.1946 28.5711 14.5675 28.7451 15.0564C28.9212 15.5432 29.0092 16.1304 29.0092 16.8182C29.0092 17.5101 28.9222 18.1004 28.7482 18.5893C28.5742 19.0761 28.3225 19.4479 27.9932 19.7048C27.6638 19.9596 27.265 20.087 26.7969 20.087ZM26.7969 19.4034C27.2609 19.4034 27.6213 19.1797 27.8782 18.7322C28.1351 18.2848 28.2635 17.6468 28.2635 16.8182C28.2635 16.2672 28.2045 15.798 28.0864 15.4106C27.9704 15.0232 27.8026 14.728 27.583 14.525C27.3655 14.322 27.1035 14.2205 26.7969 14.2205C26.337 14.2205 25.9776 14.4474 25.7187 14.901C25.4597 15.3526 25.3303 15.9917 25.3303 16.8182C25.3303 17.3692 25.3883 17.8374 25.5043 18.2227C25.6203 18.608 25.787 18.9011 26.0045 19.102C26.2241 19.3029 26.4882 19.4034 26.7969 19.4034ZM32.2656 20.087C31.7975 20.087 31.3987 19.9596 31.0693 19.7048C30.74 19.4479 30.4883 19.0761 30.3143 18.5893C30.1403 18.1004 30.0533 17.5101 30.0533 16.8182C30.0533 16.1304 30.1403 15.5432 30.3143 15.0564C30.4904 14.5675 30.7431 14.1946 31.0724 13.9378C31.4039 13.6788 31.8016 13.5494 32.2656 13.5494C32.7296 13.5494 33.1263 13.6788 33.4557 13.9378C33.7871 14.1946 34.0399 14.5675 34.2139 15.0564C34.3899 15.5432 34.478 16.1304 34.478 16.8182C34.478 17.5101 34.391 18.1004 34.217 18.5893C34.043 19.0761 33.7913 19.4479 33.4619 19.7048C33.1325 19.9596 32.7338 20.087 32.2656 20.087ZM32.2656 19.4034C32.7296 19.4034 33.0901 19.1797 33.3469 18.7322C33.6038 18.2848 33.7322 17.6468 33.7322 16.8182C33.7322 16.2672 33.6732 15.798 33.5551 15.4106C33.4391 15.0232 33.2713 14.728 33.0518 14.525C32.8343 14.322 32.5722 14.2205 32.2656 14.2205C31.8058 14.2205 31.4463 14.4474 31.1874 14.901C30.9285 15.3526 30.799 15.9917 30.799 16.8182C30.799 17.3692 30.857 17.8374 30.973 18.2227C31.089 18.608 31.2558 18.9011 31.4733 19.102C31.6929 19.3029 31.957 19.4034 32.2656 19.4034Z" fill="black" fill-opacity="0.4"/>
<path d="M25.6208 57.6041L28.467 51.9738V51.9241H25.1858V51.2405H29.2625V51.9614L26.4287 57.6041H25.6208ZM32.3239 57.6911C31.9593 57.6911 31.631 57.6186 31.3389 57.4736C31.0468 57.3286 30.8127 57.1298 30.6367 56.877C30.4606 56.6243 30.3643 56.3364 30.3477 56.0132H31.0934C31.1224 56.3012 31.2529 56.5394 31.4849 56.7279C31.719 56.9143 31.9987 57.0075 32.3239 57.0075C32.5849 57.0075 32.8169 56.9464 33.0199 56.8242C33.225 56.702 33.3855 56.5342 33.5015 56.3208C33.6196 56.1054 33.6786 55.862 33.6786 55.5906C33.6786 55.3131 33.6175 55.0655 33.4953 54.848C33.3752 54.6284 33.2095 54.4555 32.9982 54.3291C32.7869 54.2027 32.5455 54.1385 32.2742 54.1364C32.0794 54.1344 31.8795 54.1644 31.6745 54.2266C31.4694 54.2866 31.3006 54.3643 31.168 54.4596L30.4471 54.3726L30.8324 51.2405H34.1385V51.9241H31.4787L31.255 53.8009H31.2923C31.4228 53.6973 31.5864 53.6113 31.7832 53.543C31.98 53.4746 32.1851 53.4404 32.3985 53.4404C32.7879 53.4404 33.1349 53.5336 33.4394 53.7201C33.746 53.9044 33.9863 54.1572 34.1603 54.4782C34.3363 54.7993 34.4244 55.166 34.4244 55.5782C34.4244 55.9842 34.3332 56.3467 34.1509 56.6657C33.9707 56.9827 33.7221 57.2333 33.4052 57.4177C33.0883 57.6 32.7278 57.6911 32.3239 57.6911Z" fill="black" fill-opacity="0.4"/>
<path d="M26.8551 94.2954C26.4906 94.2954 26.1622 94.2229 25.8701 94.0779C25.5781 93.9329 25.344 93.734 25.1679 93.4813C24.9918 93.2286 24.8955 92.9406 24.8789 92.6175H25.6247C25.6537 92.9054 25.7842 93.1436 26.0162 93.3321C26.2503 93.5186 26.5299 93.6118 26.8551 93.6118C27.1161 93.6118 27.3482 93.5507 27.5512 93.4285C27.7562 93.3062 27.9168 93.1384 28.0328 92.9251C28.1509 92.7096 28.2099 92.4662 28.2099 92.1949C28.2099 91.9173 28.1488 91.6698 28.0266 91.4522C27.9064 91.2327 27.7407 91.0597 27.5294 90.9333C27.3181 90.807 27.0768 90.7428 26.8054 90.7407C26.6107 90.7386 26.4108 90.7687 26.2057 90.8308C26.0006 90.8909 25.8318 90.9686 25.6992 91.0638L24.9784 90.9768L25.3637 87.8447H28.6698V88.5283H26.01L25.7862 90.4051H25.8235C25.954 90.3015 26.1177 90.2156 26.3145 90.1472C26.5113 90.0788 26.7163 90.0447 26.9297 90.0447C27.3192 90.0447 27.6661 90.1379 27.9706 90.3243C28.2772 90.5087 28.5175 90.7614 28.6915 91.0825C28.8676 91.4036 28.9556 91.7702 28.9556 92.1825C28.9556 92.5885 28.8645 92.951 28.6822 93.27C28.502 93.5869 28.2534 93.8376 27.9365 94.0219C27.6195 94.2042 27.2591 94.2954 26.8551 94.2954ZM32.2656 94.2954C31.7975 94.2954 31.3987 94.168 31.0693 93.9132C30.74 93.6563 30.4883 93.2845 30.3143 92.7977C30.1403 92.3088 30.0533 91.7184 30.0533 91.0266C30.0533 90.3388 30.1403 89.7515 30.3143 89.2647C30.4904 88.7759 30.7431 88.403 31.0724 88.1461C31.4039 87.8872 31.8016 87.7577 32.2656 87.7577C32.7296 87.7577 33.1263 87.8872 33.4557 88.1461C33.7871 88.403 34.0399 88.7759 34.2139 89.2647C34.3899 89.7515 34.478 90.3388 34.478 91.0266C34.478 91.7184 34.391 92.3088 34.217 92.7977C34.043 93.2845 33.7913 93.6563 33.4619 93.9132C33.1325 94.168 32.7338 94.2954 32.2656 94.2954ZM32.2656 93.6118C32.7296 93.6118 33.0901 93.3881 33.3469 92.9406C33.6038 92.4932 33.7322 91.8552 33.7322 91.0266C33.7322 90.4755 33.6732 90.0063 33.5551 89.619C33.4391 89.2316 33.2713 88.9364 33.0518 88.7334C32.8343 88.5304 32.5722 88.4289 32.2656 88.4289C31.8058 88.4289 31.4463 88.6557 31.1874 89.1094C30.9285 89.561 30.799 90.2 30.799 91.0266C30.799 91.5776 30.857 92.0457 30.973 92.431C31.089 92.8163 31.2558 93.1094 31.4733 93.3104C31.6929 93.5113 31.957 93.6118 32.2656 93.6118Z" fill="black" fill-opacity="0.4"/>
<path d="M25.0374 131.812V131.253L27.1379 128.954C27.3844 128.685 27.5874 128.45 27.7469 128.252C27.9064 128.051 28.0245 127.862 28.1011 127.686C28.1799 127.508 28.2192 127.321 28.2192 127.127C28.2192 126.903 28.1654 126.709 28.0576 126.546C27.952 126.382 27.807 126.256 27.6226 126.167C27.4383 126.078 27.2311 126.033 27.0012 126.033C26.7567 126.033 26.5434 126.084 26.3611 126.185C26.1809 126.285 26.041 126.425 25.9416 126.605C25.8442 126.785 25.7956 126.996 25.7956 127.239H25.0623C25.0623 126.866 25.1482 126.538 25.3202 126.257C25.4921 125.975 25.7262 125.755 26.0224 125.598C26.3207 125.441 26.6552 125.362 27.026 125.362C27.3989 125.362 27.7293 125.441 28.0172 125.598C28.3052 125.755 28.531 125.968 28.6946 126.235C28.8583 126.502 28.9401 126.799 28.9401 127.127C28.9401 127.361 28.8976 127.59 28.8127 127.813C28.7298 128.035 28.5848 128.283 28.3777 128.556C28.1726 128.827 27.8878 129.159 27.5232 129.55L26.0939 131.079V131.129H29.052V131.812H25.0374ZM32.3239 131.9C31.9593 131.9 31.631 131.827 31.3389 131.682C31.0468 131.537 30.8127 131.338 30.6367 131.085C30.4606 130.833 30.3643 130.545 30.3477 130.222H31.0934C31.1224 130.51 31.2529 130.748 31.4849 130.936C31.719 131.123 31.9987 131.216 32.3239 131.216C32.5849 131.216 32.8169 131.155 33.0199 131.033C33.225 130.91 33.3855 130.743 33.5015 130.529C33.6196 130.314 33.6786 130.07 33.6786 129.799C33.6786 129.521 33.6175 129.274 33.4953 129.056C33.3752 128.837 33.2095 128.664 32.9982 128.537C32.7869 128.411 32.5455 128.347 32.2742 128.345C32.0794 128.343 31.8795 128.373 31.6745 128.435C31.4694 128.495 31.3006 128.573 31.168 128.668L30.4471 128.581L30.8324 125.449H34.1385V126.132H31.4787L31.255 128.009H31.2923C31.4228 127.906 31.5864 127.82 31.7832 127.751C31.98 127.683 32.1851 127.649 32.3985 127.649C32.7879 127.649 33.1349 127.742 33.4394 127.928C33.746 128.113 33.9863 128.366 34.1603 128.687C34.3363 129.008 34.4244 129.374 34.4244 129.787C34.4244 130.193 34.3332 130.555 34.1509 130.874C33.9707 131.191 33.7221 131.442 33.4052 131.626C33.0883 131.808 32.7278 131.9 32.3239 131.9Z" fill="black" fill-opacity="0.4"/>
<path d="M32.2656 167.504C31.7975 167.504 31.3987 167.376 31.0693 167.121C30.74 166.865 30.4883 166.493 30.3143 166.006C30.1403 165.517 30.0533 164.927 30.0533 164.235C30.0533 163.547 30.1403 162.96 30.3143 162.473C30.4904 161.984 30.7431 161.611 31.0724 161.354C31.4039 161.095 31.8016 160.966 32.2656 160.966C32.7296 160.966 33.1263 161.095 33.4557 161.354C33.7871 161.611 34.0399 161.984 34.2139 162.473C34.3899 162.96 34.478 163.547 34.478 164.235C34.478 164.927 34.391 165.517 34.217 166.006C34.043 166.493 33.7913 166.865 33.4619 167.121C33.1325 167.376 32.7338 167.504 32.2656 167.504ZM32.2656 166.82C32.7296 166.82 33.0901 166.596 33.3469 166.149C33.6038 165.701 33.7322 165.063 33.7322 164.235C33.7322 163.684 33.6732 163.215 33.5551 162.827C33.4391 162.44 33.2713 162.145 33.0518 161.942C32.8343 161.739 32.5722 161.637 32.2656 161.637C31.8058 161.637 31.4463 161.864 31.1874 162.318C30.9285 162.769 30.799 163.408 30.799 164.235C30.799 164.786 30.857 165.254 30.973 165.639C31.089 166.025 31.2558 166.318 31.4733 166.519C31.6929 166.72 31.957 166.82 32.2656 166.82Z" fill="black" fill-opacity="0.4"/>
<line x1="50.3646" y1="17.6354" x2="646.635" y2="17.6354" stroke="black" stroke-opacity="0.05" stroke-width="0.729167" stroke-linecap="round"/>
<line x1="50.3646" y1="54.6354" x2="646.635" y2="54.6354" stroke="black" stroke-opacity="0.05" stroke-width="0.729167" stroke-linecap="round"/>
<line x1="50.3646" y1="91.6354" x2="646.635" y2="91.6354" stroke="black" stroke-opacity="0.05" stroke-width="0.729167" stroke-linecap="round"/>
<line x1="50.3646" y1="128.635" x2="646.635" y2="128.635" stroke="black" stroke-opacity="0.05" stroke-width="0.729167" stroke-linecap="round"/>
<line x1="50.3646" y1="165.635" x2="646.635" y2="165.635" stroke="black" stroke-opacity="0.2" stroke-width="0.729167" stroke-linecap="round"/>
</svg>
