<svg width="625" height="72" viewBox="0 0 625 72" fill="none" xmlns="http://www.w3.org/2000/svg">
    <rect width="574" height="4" transform="translate(0 14)" fill="#DBE4E6" />
    <rect width="143.5" height="4" transform="translate(0 14)" fill="#019267" />
    <path
      d="M19.0098 49.7705V50.2832C19.0098 51.0352 18.9095 51.7119 18.709 52.3135C18.5085 52.9105 18.2236 53.4186 17.8545 53.8379C17.4854 54.2572 17.0456 54.5785 16.5352 54.8018C16.0247 55.0251 15.4574 55.1367 14.833 55.1367C14.2178 55.1367 13.6527 55.0251 13.1377 54.8018C12.6273 54.5785 12.1852 54.2572 11.8115 53.8379C11.4378 53.4186 11.1484 52.9105 10.9434 52.3135C10.7383 51.7119 10.6357 51.0352 10.6357 50.2832V49.7705C10.6357 49.014 10.7383 48.3372 10.9434 47.7402C11.1484 47.1432 11.4355 46.6351 11.8047 46.2158C12.1738 45.792 12.6136 45.4684 13.124 45.2451C13.639 45.0218 14.2041 44.9102 14.8193 44.9102C15.4437 44.9102 16.0111 45.0218 16.5215 45.2451C17.0319 45.4684 17.4717 45.792 17.8408 46.2158C18.2145 46.6351 18.5016 47.1432 18.7021 47.7402C18.9072 48.3372 19.0098 49.014 19.0098 49.7705ZM17.1094 50.2832V49.7568C17.1094 49.2145 17.0592 48.7383 16.959 48.3281C16.8587 47.9134 16.7106 47.5648 16.5146 47.2822C16.3187 46.9997 16.0771 46.7878 15.79 46.6465C15.5029 46.5007 15.1794 46.4277 14.8193 46.4277C14.4548 46.4277 14.1312 46.5007 13.8486 46.6465C13.5706 46.7878 13.3337 46.9997 13.1377 47.2822C12.9417 47.5648 12.7913 47.9134 12.6865 48.3281C12.5863 48.7383 12.5361 49.2145 12.5361 49.7568V50.2832C12.5361 50.821 12.5863 51.2972 12.6865 51.7119C12.7913 52.1266 12.9417 52.4775 13.1377 52.7646C13.3382 53.0472 13.5798 53.2614 13.8623 53.4072C14.1449 53.5531 14.4684 53.626 14.833 53.626C15.1976 53.626 15.5212 53.5531 15.8037 53.4072C16.0863 53.2614 16.3232 53.0472 16.5146 52.7646C16.7106 52.4775 16.8587 52.1266 16.959 51.7119C17.0592 51.2972 17.1094 50.821 17.1094 50.2832ZM22.7705 49.1143V55H20.9658V47.6035H22.6748L22.7705 49.1143ZM25.0195 47.5557L24.9922 49.2373C24.8919 49.2191 24.778 49.2054 24.6504 49.1963C24.5273 49.1872 24.4111 49.1826 24.3018 49.1826C24.0238 49.1826 23.7799 49.2214 23.5703 49.2988C23.3607 49.3717 23.1852 49.4788 23.0439 49.6201C22.9072 49.7614 22.8024 49.9346 22.7295 50.1396C22.6566 50.3402 22.6156 50.568 22.6064 50.8232L22.2168 50.7754C22.2168 50.306 22.2646 49.8708 22.3604 49.4697C22.4561 49.0687 22.5951 48.7178 22.7773 48.417C22.9596 48.1162 23.1875 47.8838 23.4609 47.7197C23.7389 47.5511 24.0579 47.4668 24.418 47.4668C24.5182 47.4668 24.6253 47.4759 24.7393 47.4941C24.8577 47.5078 24.9512 47.5283 25.0195 47.5557ZM31.0771 47.6035H32.7178V54.7744C32.7178 55.4443 32.5719 56.0117 32.2803 56.4766C31.9932 56.946 31.5898 57.3014 31.0703 57.543C30.5508 57.7891 29.9469 57.9121 29.2588 57.9121C28.9626 57.9121 28.6413 57.8711 28.2949 57.7891C27.9531 57.707 27.6227 57.5771 27.3037 57.3994C26.9893 57.2262 26.7272 57.0007 26.5176 56.7227L27.3311 55.6562C27.5771 55.9434 27.8551 56.1598 28.165 56.3057C28.4749 56.4561 28.8099 56.5312 29.1699 56.5312C29.5345 56.5312 29.8444 56.4629 30.0996 56.3262C30.3594 56.194 30.5576 55.998 30.6943 55.7383C30.8356 55.4831 30.9062 55.1686 30.9062 54.7949V49.292L31.0771 47.6035ZM26.0801 51.3906V51.2471C26.0801 50.682 26.1484 50.1693 26.2852 49.709C26.4219 49.2441 26.6178 48.8454 26.873 48.5127C27.1328 48.18 27.445 47.9225 27.8096 47.7402C28.1787 47.5579 28.5934 47.4668 29.0537 47.4668C29.5413 47.4668 29.9515 47.5557 30.2842 47.7334C30.6214 47.9111 30.8994 48.1641 31.1182 48.4922C31.3415 48.8203 31.5146 49.21 31.6377 49.6611C31.7653 50.1077 31.8633 50.5999 31.9316 51.1377V51.5273C31.8678 52.0514 31.7653 52.5322 31.624 52.9697C31.4873 53.4072 31.305 53.79 31.0771 54.1182C30.8493 54.4417 30.5667 54.6924 30.2295 54.8701C29.8923 55.0479 29.4958 55.1367 29.04 55.1367C28.5843 55.1367 28.1742 55.0433 27.8096 54.8564C27.445 54.6696 27.1328 54.4076 26.873 54.0703C26.6178 53.7331 26.4219 53.3366 26.2852 52.8809C26.1484 52.4251 26.0801 51.9284 26.0801 51.3906ZM27.8848 51.2471V51.3906C27.8848 51.7096 27.9167 52.0081 27.9805 52.2861C28.0443 52.5641 28.1423 52.8102 28.2744 53.0244C28.4066 53.234 28.5729 53.3981 28.7734 53.5166C28.974 53.6351 29.2132 53.6943 29.4912 53.6943C29.8649 53.6943 30.1702 53.6169 30.4072 53.4619C30.6488 53.3024 30.8311 53.0859 30.9541 52.8125C31.0817 52.5345 31.1637 52.2223 31.2002 51.876V50.8027C31.1774 50.5293 31.1273 50.2764 31.0498 50.0439C30.9769 49.8115 30.8743 49.611 30.7422 49.4424C30.61 49.2738 30.4414 49.1416 30.2363 49.0459C30.0312 48.9502 29.7874 48.9023 29.5049 48.9023C29.2314 48.9023 28.9922 48.9639 28.7871 49.0869C28.582 49.2054 28.4134 49.3717 28.2812 49.5859C28.1491 49.8001 28.0488 50.0485 27.9805 50.3311C27.9167 50.6136 27.8848 50.9189 27.8848 51.2471ZM38.9189 53.4277V50.0166C38.9189 49.766 38.8757 49.5495 38.7891 49.3672C38.7025 49.1849 38.5703 49.0436 38.3926 48.9434C38.2148 48.8431 37.9893 48.793 37.7158 48.793C37.4743 48.793 37.2624 48.834 37.0801 48.916C36.9023 48.998 36.7656 49.1143 36.6699 49.2646C36.5742 49.4105 36.5264 49.5791 36.5264 49.7705H34.7148C34.7148 49.4652 34.7878 49.1758 34.9336 48.9023C35.0794 48.6243 35.2868 48.3783 35.5557 48.1641C35.8291 47.9453 36.1549 47.7744 36.5332 47.6514C36.916 47.5283 37.3444 47.4668 37.8184 47.4668C38.3789 47.4668 38.8779 47.5625 39.3154 47.7539C39.7575 47.9408 40.1038 48.2233 40.3545 48.6016C40.6097 48.9798 40.7373 49.4561 40.7373 50.0303V53.2568C40.7373 53.626 40.7601 53.9427 40.8057 54.207C40.8558 54.4668 40.9287 54.6924 41.0244 54.8838V55H39.1855C39.099 54.8132 39.0329 54.5762 38.9873 54.2891C38.9417 53.9974 38.9189 53.7103 38.9189 53.4277ZM39.1719 50.4951L39.1855 51.5684H38.0439C37.7614 51.5684 37.513 51.598 37.2988 51.6572C37.0846 51.7119 36.9092 51.7939 36.7725 51.9033C36.6357 52.0081 36.5332 52.1357 36.4648 52.2861C36.3965 52.432 36.3623 52.5983 36.3623 52.7852C36.3623 52.9674 36.4033 53.1315 36.4854 53.2773C36.5719 53.4232 36.695 53.5394 36.8545 53.626C37.0186 53.708 37.21 53.749 37.4287 53.749C37.7477 53.749 38.0257 53.6852 38.2627 53.5576C38.4997 53.4255 38.6842 53.266 38.8164 53.0791C38.9486 52.8923 39.0192 52.7145 39.0283 52.5459L39.5479 53.3252C39.484 53.512 39.3883 53.7103 39.2607 53.9199C39.1331 54.1296 38.9691 54.3255 38.7686 54.5078C38.568 54.6901 38.3265 54.8405 38.0439 54.959C37.7614 55.0775 37.4333 55.1367 37.0596 55.1367C36.5811 55.1367 36.1527 55.041 35.7744 54.8496C35.3962 54.6582 35.0977 54.3962 34.8789 54.0635C34.6602 53.7308 34.5508 53.3525 34.5508 52.9287C34.5508 52.5368 34.6237 52.1904 34.7695 51.8896C34.9154 51.5889 35.1318 51.3359 35.4189 51.1309C35.7061 50.9212 36.0615 50.764 36.4854 50.6592C36.9137 50.5498 37.4036 50.4951 37.9551 50.4951H39.1719ZM44.6348 49.1826V55H42.8301V47.6035H44.5254L44.6348 49.1826ZM44.3477 51.0352H43.8145C43.819 50.4974 43.8919 50.0098 44.0332 49.5723C44.1745 49.1348 44.3727 48.7588 44.6279 48.4443C44.8877 48.1299 45.1953 47.8883 45.5508 47.7197C45.9062 47.5511 46.3027 47.4668 46.7402 47.4668C47.0957 47.4668 47.417 47.5169 47.7041 47.6172C47.9912 47.7174 48.2373 47.877 48.4424 48.0957C48.652 48.3145 48.8115 48.6016 48.9209 48.957C49.0348 49.3079 49.0918 49.7409 49.0918 50.2559V55H47.2734V50.2422C47.2734 49.9049 47.2233 49.6383 47.123 49.4424C47.0273 49.2464 46.8861 49.1074 46.6992 49.0254C46.5169 48.9434 46.2913 48.9023 46.0225 48.9023C45.7445 48.9023 45.5007 48.9593 45.291 49.0732C45.0859 49.1826 44.9128 49.3353 44.7715 49.5312C44.6348 49.7272 44.5299 49.9528 44.457 50.208C44.3841 50.4632 44.3477 50.7389 44.3477 51.0352ZM53.0986 47.6035V55H51.2871V47.6035H53.0986ZM51.1641 45.6689C51.1641 45.4001 51.2552 45.1768 51.4375 44.999C51.6243 44.8213 51.875 44.7324 52.1895 44.7324C52.5039 44.7324 52.7523 44.8213 52.9346 44.999C53.1214 45.1768 53.2148 45.4001 53.2148 45.6689C53.2148 45.9333 53.1214 46.1543 52.9346 46.332C52.7523 46.5098 52.5039 46.5986 52.1895 46.5986C51.875 46.5986 51.6243 46.5098 51.4375 46.332C51.2552 46.1543 51.1641 45.9333 51.1641 45.6689ZM61.1182 53.5781V55H55.5537V53.5781H61.1182ZM60.9883 48.6836L56.2305 55H55.041V53.8857L59.7715 47.6035H60.9883V48.6836ZM60.3252 47.6035V49.0322H55.1367V47.6035H60.3252ZM66.9775 53.4277V50.0166C66.9775 49.766 66.9342 49.5495 66.8477 49.3672C66.7611 49.1849 66.6289 49.0436 66.4512 48.9434C66.2734 48.8431 66.0479 48.793 65.7744 48.793C65.5329 48.793 65.321 48.834 65.1387 48.916C64.9609 48.998 64.8242 49.1143 64.7285 49.2646C64.6328 49.4105 64.585 49.5791 64.585 49.7705H62.7734C62.7734 49.4652 62.8464 49.1758 62.9922 48.9023C63.138 48.6243 63.3454 48.3783 63.6143 48.1641C63.8877 47.9453 64.2135 47.7744 64.5918 47.6514C64.9746 47.5283 65.403 47.4668 65.877 47.4668C66.4375 47.4668 66.9365 47.5625 67.374 47.7539C67.8161 47.9408 68.1624 48.2233 68.4131 48.6016C68.6683 48.9798 68.7959 49.4561 68.7959 50.0303V53.2568C68.7959 53.626 68.8187 53.9427 68.8643 54.207C68.9144 54.4668 68.9873 54.6924 69.083 54.8838V55H67.2441C67.1576 54.8132 67.0915 54.5762 67.0459 54.2891C67.0003 53.9974 66.9775 53.7103 66.9775 53.4277ZM67.2305 50.4951L67.2441 51.5684H66.1025C65.82 51.5684 65.5716 51.598 65.3574 51.6572C65.1432 51.7119 64.9678 51.7939 64.8311 51.9033C64.6943 52.0081 64.5918 52.1357 64.5234 52.2861C64.4551 52.432 64.4209 52.5983 64.4209 52.7852C64.4209 52.9674 64.4619 53.1315 64.5439 53.2773C64.6305 53.4232 64.7536 53.5394 64.9131 53.626C65.0771 53.708 65.2686 53.749 65.4873 53.749C65.8063 53.749 66.0843 53.6852 66.3213 53.5576C66.5583 53.4255 66.7428 53.266 66.875 53.0791C67.0072 52.8923 67.0778 52.7145 67.0869 52.5459L67.6064 53.3252C67.5426 53.512 67.4469 53.7103 67.3193 53.9199C67.1917 54.1296 67.0277 54.3255 66.8271 54.5078C66.6266 54.6901 66.3851 54.8405 66.1025 54.959C65.82 55.0775 65.4919 55.1367 65.1182 55.1367C64.6396 55.1367 64.2113 55.041 63.833 54.8496C63.4548 54.6582 63.1562 54.3962 62.9375 54.0635C62.7188 53.7308 62.6094 53.3525 62.6094 52.9287C62.6094 52.5368 62.6823 52.1904 62.8281 51.8896C62.974 51.5889 63.1904 51.3359 63.4775 51.1309C63.7646 50.9212 64.1201 50.764 64.5439 50.6592C64.9723 50.5498 65.4622 50.4951 66.0137 50.4951H67.2305ZM74.4229 47.6035V48.9023H70.1846V47.6035H74.4229ZM71.3193 45.7852H73.1309V52.8672C73.1309 53.0859 73.1605 53.2546 73.2197 53.373C73.279 53.4915 73.3678 53.5713 73.4863 53.6123C73.6048 53.6533 73.7461 53.6738 73.9102 53.6738C74.0286 53.6738 74.138 53.667 74.2383 53.6533C74.3385 53.6396 74.4229 53.626 74.4912 53.6123L74.498 54.9658C74.3477 55.016 74.1768 55.057 73.9854 55.0889C73.7985 55.1208 73.5866 55.1367 73.3496 55.1367C72.944 55.1367 72.5885 55.0684 72.2832 54.9316C71.9779 54.7904 71.7409 54.5648 71.5723 54.2549C71.4036 53.9404 71.3193 53.5257 71.3193 53.0107V45.7852ZM78.04 47.6035V55H76.2285V47.6035H78.04ZM76.1055 45.6689C76.1055 45.4001 76.1966 45.1768 76.3789 44.999C76.5658 44.8213 76.8164 44.7324 77.1309 44.7324C77.4453 44.7324 77.6937 44.8213 77.876 44.999C78.0628 45.1768 78.1562 45.4001 78.1562 45.6689C78.1562 45.9333 78.0628 46.1543 77.876 46.332C77.6937 46.5098 77.4453 46.5986 77.1309 46.5986C76.8164 46.5986 76.5658 46.5098 76.3789 46.332C76.1966 46.1543 76.1055 45.9333 76.1055 45.6689ZM79.9414 51.377V51.2334C79.9414 50.6911 80.0189 50.1921 80.1738 49.7363C80.3288 49.276 80.5544 48.8773 80.8506 48.54C81.1468 48.2028 81.5091 47.9408 81.9375 47.7539C82.3659 47.5625 82.8535 47.4668 83.4004 47.4668C83.9564 47.4668 84.4486 47.5625 84.877 47.7539C85.3099 47.9408 85.6745 48.2028 85.9707 48.54C86.2669 48.8773 86.4925 49.276 86.6475 49.7363C86.8024 50.1921 86.8799 50.6911 86.8799 51.2334V51.377C86.8799 51.9147 86.8024 52.4137 86.6475 52.874C86.4925 53.3298 86.2669 53.7285 85.9707 54.0703C85.6745 54.4076 85.3122 54.6696 84.8838 54.8564C84.4554 55.0433 83.9655 55.1367 83.4141 55.1367C82.8672 55.1367 82.3773 55.0433 81.9443 54.8564C81.5114 54.6696 81.1468 54.4076 80.8506 54.0703C80.5544 53.7285 80.3288 53.3298 80.1738 52.874C80.0189 52.4137 79.9414 51.9147 79.9414 51.377ZM81.7461 51.2334V51.377C81.7461 51.7005 81.778 52.0036 81.8418 52.2861C81.9056 52.5687 82.0036 52.8171 82.1357 53.0312C82.2679 53.2454 82.4388 53.4141 82.6484 53.5371C82.8626 53.6556 83.1178 53.7148 83.4141 53.7148C83.7057 53.7148 83.9564 53.6556 84.166 53.5371C84.3757 53.4141 84.5465 53.2454 84.6787 53.0312C84.8154 52.8171 84.9157 52.5687 84.9795 52.2861C85.0433 52.0036 85.0752 51.7005 85.0752 51.377V51.2334C85.0752 50.9144 85.0433 50.6159 84.9795 50.3379C84.9157 50.0553 84.8154 49.807 84.6787 49.5928C84.5465 49.374 84.3734 49.2031 84.1592 49.0801C83.9495 48.9525 83.6966 48.8887 83.4004 48.8887C83.1087 48.8887 82.8581 48.9525 82.6484 49.0801C82.4388 49.2031 82.2679 49.374 82.1357 49.5928C82.0036 49.807 81.9056 50.0553 81.8418 50.3379C81.778 50.6159 81.7461 50.9144 81.7461 51.2334ZM90.4629 49.1826V55H88.6582V47.6035H90.3535L90.4629 49.1826ZM90.1758 51.0352H89.6426C89.6471 50.4974 89.7201 50.0098 89.8613 49.5723C90.0026 49.1348 90.2008 48.7588 90.4561 48.4443C90.7158 48.1299 91.0234 47.8883 91.3789 47.7197C91.7344 47.5511 92.1309 47.4668 92.5684 47.4668C92.9238 47.4668 93.2451 47.5169 93.5322 47.6172C93.8193 47.7174 94.0654 47.877 94.2705 48.0957C94.4801 48.3145 94.6396 48.6016 94.749 48.957C94.863 49.3079 94.9199 49.7409 94.9199 50.2559V55H93.1016V50.2422C93.1016 49.9049 93.0514 49.6383 92.9512 49.4424C92.8555 49.2464 92.7142 49.1074 92.5273 49.0254C92.3451 48.9434 92.1195 48.9023 91.8506 48.9023C91.5726 48.9023 91.3288 48.9593 91.1191 49.0732C90.9141 49.1826 90.7409 49.3353 90.5996 49.5312C90.4629 49.7272 90.3581 49.9528 90.2852 50.208C90.2122 50.4632 90.1758 50.7389 90.1758 51.0352ZM103.139 45.0469V55H101.259V45.0469H103.139ZM107.303 49.1826V55H105.498V47.6035H107.193L107.303 49.1826ZM107.016 51.0352H106.482C106.487 50.4974 106.56 50.0098 106.701 49.5723C106.842 49.1348 107.041 48.7588 107.296 48.4443C107.556 48.1299 107.863 47.8883 108.219 47.7197C108.574 47.5511 108.971 47.4668 109.408 47.4668C109.764 47.4668 110.085 47.5169 110.372 47.6172C110.659 47.7174 110.905 47.877 111.11 48.0957C111.32 48.3145 111.479 48.6016 111.589 48.957C111.703 49.3079 111.76 49.7409 111.76 50.2559V55H109.941V50.2422C109.941 49.9049 109.891 49.6383 109.791 49.4424C109.695 49.2464 109.554 49.1074 109.367 49.0254C109.185 48.9434 108.959 48.9023 108.69 48.9023C108.412 48.9023 108.169 48.9593 107.959 49.0732C107.754 49.1826 107.581 49.3353 107.439 49.5312C107.303 49.7272 107.198 49.9528 107.125 50.208C107.052 50.4632 107.016 50.7389 107.016 51.0352ZM116.218 55H114.399V46.9199C114.399 46.3639 114.507 45.8968 114.721 45.5186C114.935 45.1357 115.24 44.8464 115.637 44.6504C116.033 44.4544 116.5 44.3564 117.038 44.3564C117.216 44.3564 117.384 44.3678 117.544 44.3906C117.708 44.4134 117.87 44.4453 118.029 44.4863L117.995 45.8604C117.909 45.8376 117.813 45.8216 117.708 45.8125C117.608 45.8034 117.496 45.7988 117.373 45.7988C117.127 45.7988 116.917 45.8421 116.744 45.9287C116.571 46.0153 116.439 46.1429 116.348 46.3115C116.261 46.4756 116.218 46.6784 116.218 46.9199V55ZM117.715 47.6035V48.9023H113.285V47.6035H117.715ZM119.008 51.377V51.2334C119.008 50.6911 119.085 50.1921 119.24 49.7363C119.395 49.276 119.621 48.8773 119.917 48.54C120.213 48.2028 120.576 47.9408 121.004 47.7539C121.432 47.5625 121.92 47.4668 122.467 47.4668C123.023 47.4668 123.515 47.5625 123.943 47.7539C124.376 47.9408 124.741 48.2028 125.037 48.54C125.333 48.8773 125.559 49.276 125.714 49.7363C125.869 50.1921 125.946 50.6911 125.946 51.2334V51.377C125.946 51.9147 125.869 52.4137 125.714 52.874C125.559 53.3298 125.333 53.7285 125.037 54.0703C124.741 54.4076 124.379 54.6696 123.95 54.8564C123.522 55.0433 123.032 55.1367 122.48 55.1367C121.934 55.1367 121.444 55.0433 121.011 54.8564C120.578 54.6696 120.213 54.4076 119.917 54.0703C119.621 53.7285 119.395 53.3298 119.24 52.874C119.085 52.4137 119.008 51.9147 119.008 51.377ZM120.812 51.2334V51.377C120.812 51.7005 120.844 52.0036 120.908 52.2861C120.972 52.5687 121.07 52.8171 121.202 53.0312C121.334 53.2454 121.505 53.4141 121.715 53.5371C121.929 53.6556 122.184 53.7148 122.48 53.7148C122.772 53.7148 123.023 53.6556 123.232 53.5371C123.442 53.4141 123.613 53.2454 123.745 53.0312C123.882 52.8171 123.982 52.5687 124.046 52.2861C124.11 52.0036 124.142 51.7005 124.142 51.377V51.2334C124.142 50.9144 124.11 50.6159 124.046 50.3379C123.982 50.0553 123.882 49.807 123.745 49.5928C123.613 49.374 123.44 49.2031 123.226 49.0801C123.016 48.9525 122.763 48.8887 122.467 48.8887C122.175 48.8887 121.924 48.9525 121.715 49.0801C121.505 49.2031 121.334 49.374 121.202 49.5928C121.07 49.807 120.972 50.0553 120.908 50.3379C120.844 50.6159 120.812 50.9144 120.812 51.2334Z"
      fill="#191C1D" />
    <g clip-path="url(#clip0_590_51620)">
      <path d="M72 18L77 23L82 18H72Z" fill="#019267" />
    </g>
    <path
      d="M204.479 53.9268V55H199.208V53.9268H204.479ZM199.475 45.0469V55H198.155V45.0469H199.475ZM203.781 49.3262V50.3994H199.208V49.3262H203.781ZM204.41 45.0469V46.127H199.208V45.0469H204.41ZM211.917 52.4844C211.917 52.252 211.881 52.0469 211.808 51.8691C211.739 51.6868 211.616 51.5228 211.438 51.377C211.265 51.2311 211.024 51.0921 210.714 50.96C210.409 50.8278 210.021 50.6934 209.552 50.5566C209.06 50.4108 208.615 50.249 208.219 50.0713C207.822 49.889 207.483 49.6816 207.2 49.4492C206.918 49.2168 206.701 48.9502 206.551 48.6494C206.4 48.3486 206.325 48.0046 206.325 47.6172C206.325 47.2298 206.405 46.8721 206.564 46.5439C206.724 46.2158 206.952 45.931 207.248 45.6895C207.549 45.4434 207.907 45.252 208.321 45.1152C208.736 44.9785 209.199 44.9102 209.709 44.9102C210.456 44.9102 211.09 45.0537 211.609 45.3408C212.133 45.6234 212.532 45.9948 212.806 46.4551C213.079 46.9108 213.216 47.3984 213.216 47.918H211.903C211.903 47.5443 211.824 47.2139 211.664 46.9268C211.505 46.6351 211.263 46.4072 210.939 46.2432C210.616 46.0745 210.206 45.9902 209.709 45.9902C209.24 45.9902 208.852 46.0609 208.547 46.2021C208.242 46.3434 208.014 46.5348 207.863 46.7764C207.717 47.0179 207.645 47.2936 207.645 47.6035C207.645 47.8132 207.688 48.0046 207.774 48.1777C207.866 48.3464 208.005 48.5036 208.191 48.6494C208.383 48.7952 208.624 48.9297 208.916 49.0527C209.212 49.1758 209.565 49.2943 209.976 49.4082C210.541 49.5677 211.028 49.7454 211.438 49.9414C211.849 50.1374 212.186 50.3584 212.45 50.6045C212.719 50.846 212.917 51.1217 213.045 51.4316C213.177 51.737 213.243 52.0833 213.243 52.4707C213.243 52.8763 213.161 53.2432 212.997 53.5713C212.833 53.8994 212.598 54.1797 212.293 54.4121C211.988 54.6445 211.621 54.8245 211.192 54.9521C210.769 55.0752 210.295 55.1367 209.771 55.1367C209.31 55.1367 208.857 55.0729 208.41 54.9453C207.968 54.8177 207.565 54.6263 207.2 54.3711C206.84 54.1159 206.551 53.8014 206.332 53.4277C206.118 53.0495 206.011 52.612 206.011 52.1152H207.323C207.323 52.457 207.389 52.751 207.521 52.9971C207.654 53.2386 207.834 53.4391 208.062 53.5986C208.294 53.7581 208.556 53.8766 208.848 53.9541C209.144 54.027 209.451 54.0635 209.771 54.0635C210.231 54.0635 210.62 53.9997 210.939 53.8721C211.258 53.7445 211.5 53.5622 211.664 53.3252C211.833 53.0882 211.917 52.8079 211.917 52.4844ZM222.78 50.0439V53.6875C222.657 53.8698 222.461 54.0749 222.192 54.3027C221.924 54.526 221.552 54.722 221.078 54.8906C220.609 55.0547 220.003 55.1367 219.26 55.1367C218.654 55.1367 218.095 55.0319 217.585 54.8223C217.079 54.6081 216.639 54.2982 216.266 53.8926C215.896 53.4824 215.609 52.9857 215.404 52.4023C215.204 51.8145 215.104 51.1491 215.104 50.4062V49.6338C215.104 48.891 215.19 48.2279 215.363 47.6445C215.541 47.0612 215.801 46.5667 216.143 46.1611C216.484 45.751 216.904 45.4411 217.4 45.2314C217.897 45.0173 218.467 44.9102 219.109 44.9102C219.87 44.9102 220.506 45.0423 221.017 45.3066C221.532 45.5664 221.933 45.9264 222.22 46.3867C222.511 46.847 222.698 47.3711 222.78 47.959H221.461C221.402 47.599 221.283 47.2708 221.105 46.9746C220.932 46.6784 220.684 46.4414 220.36 46.2637C220.037 46.0814 219.62 45.9902 219.109 45.9902C218.649 45.9902 218.25 46.0745 217.913 46.2432C217.576 46.4118 217.298 46.6533 217.079 46.9678C216.86 47.2822 216.696 47.6628 216.587 48.1094C216.482 48.556 216.43 49.0596 216.43 49.6201V50.4062C216.43 50.9805 216.496 51.4932 216.628 51.9443C216.765 52.3955 216.958 52.7806 217.209 53.0996C217.46 53.4141 217.758 53.6533 218.104 53.8174C218.455 53.9814 218.843 54.0635 219.267 54.0635C219.736 54.0635 220.117 54.0247 220.408 53.9473C220.7 53.8652 220.928 53.7695 221.092 53.6602C221.256 53.5462 221.381 53.4391 221.468 53.3389V51.1104H219.164V50.0439H222.78ZM229.44 45.0469H232.735C233.483 45.0469 234.114 45.1608 234.629 45.3887C235.148 45.6165 235.543 45.9538 235.812 46.4004C236.085 46.8424 236.222 47.387 236.222 48.0342C236.222 48.4899 236.128 48.9069 235.941 49.2852C235.759 49.6589 235.495 49.9779 235.148 50.2422C234.807 50.502 234.396 50.6956 233.918 50.8232L233.549 50.9668H230.452L230.438 49.8936H232.776C233.25 49.8936 233.645 49.8115 233.959 49.6475C234.273 49.4788 234.51 49.2533 234.67 48.9707C234.829 48.6882 234.909 48.376 234.909 48.0342C234.909 47.6514 234.834 47.3164 234.684 47.0293C234.533 46.7422 234.296 46.5212 233.973 46.3662C233.654 46.2067 233.241 46.127 232.735 46.127H230.76V55H229.44V45.0469ZM235.258 55L232.838 50.4883L234.212 50.4814L236.666 54.918V55H235.258ZM242.737 53.7354V49.9277C242.737 49.6361 242.678 49.3831 242.56 49.1689C242.446 48.9502 242.272 48.7816 242.04 48.6631C241.808 48.5446 241.521 48.4854 241.179 48.4854C240.86 48.4854 240.579 48.54 240.338 48.6494C240.101 48.7588 239.914 48.9023 239.777 49.0801C239.645 49.2578 239.579 49.4492 239.579 49.6543H238.314C238.314 49.39 238.383 49.1279 238.52 48.8682C238.656 48.6084 238.852 48.3737 239.107 48.1641C239.367 47.9499 239.677 47.7812 240.037 47.6582C240.402 47.5306 240.807 47.4668 241.254 47.4668C241.792 47.4668 242.266 47.5579 242.676 47.7402C243.09 47.9225 243.414 48.1982 243.646 48.5674C243.883 48.932 244.002 49.39 244.002 49.9414V53.3867C244.002 53.6328 244.022 53.8949 244.063 54.1729C244.109 54.4508 244.175 54.6901 244.262 54.8906V55H242.942C242.879 54.8542 242.828 54.6605 242.792 54.4189C242.756 54.1729 242.737 53.945 242.737 53.7354ZM242.956 50.5156L242.97 51.4043H241.691C241.331 51.4043 241.01 51.4339 240.728 51.4932C240.445 51.5479 240.208 51.6322 240.017 51.7461C239.825 51.86 239.679 52.0036 239.579 52.1768C239.479 52.3454 239.429 52.5436 239.429 52.7715C239.429 53.0039 239.481 53.2158 239.586 53.4072C239.691 53.5986 239.848 53.7513 240.058 53.8652C240.272 53.9746 240.534 54.0293 240.844 54.0293C241.231 54.0293 241.573 53.9473 241.869 53.7832C242.165 53.6191 242.4 53.4186 242.573 53.1816C242.751 52.9447 242.847 52.7145 242.86 52.4912L243.4 53.0996C243.368 53.291 243.282 53.5029 243.141 53.7354C242.999 53.9678 242.81 54.1911 242.573 54.4053C242.341 54.6149 242.063 54.7904 241.739 54.9316C241.42 55.0684 241.06 55.1367 240.659 55.1367C240.158 55.1367 239.718 55.0387 239.34 54.8428C238.966 54.6468 238.674 54.3848 238.465 54.0566C238.26 53.724 238.157 53.3525 238.157 52.9424C238.157 52.5459 238.235 52.1973 238.39 51.8965C238.545 51.5911 238.768 51.3382 239.06 51.1377C239.351 50.9326 239.702 50.7777 240.112 50.6729C240.522 50.568 240.98 50.5156 241.486 50.5156H242.956ZM249.588 47.6035V48.5742H245.589V47.6035H249.588ZM246.942 45.8057H248.207V53.168C248.207 53.4186 248.246 53.6077 248.323 53.7354C248.401 53.863 248.501 53.9473 248.624 53.9883C248.747 54.0293 248.879 54.0498 249.021 54.0498C249.125 54.0498 249.235 54.0407 249.349 54.0225C249.467 53.9997 249.556 53.9814 249.615 53.9678L249.622 55C249.522 55.0319 249.39 55.0615 249.226 55.0889C249.066 55.1208 248.872 55.1367 248.645 55.1367C248.335 55.1367 248.05 55.0752 247.79 54.9521C247.53 54.8291 247.323 54.624 247.168 54.3369C247.018 54.0452 246.942 53.6533 246.942 53.1611V45.8057ZM252.945 47.6035V55H251.674V47.6035H252.945ZM251.578 45.6416C251.578 45.4365 251.64 45.2633 251.763 45.1221C251.89 44.9808 252.077 44.9102 252.323 44.9102C252.565 44.9102 252.749 44.9808 252.877 45.1221C253.009 45.2633 253.075 45.4365 253.075 45.6416C253.075 45.8376 253.009 46.0062 252.877 46.1475C252.749 46.2842 252.565 46.3525 252.323 46.3525C252.077 46.3525 251.89 46.2842 251.763 46.1475C251.64 46.0062 251.578 45.8376 251.578 45.6416ZM255.141 51.3838V51.2266C255.141 50.6934 255.218 50.1989 255.373 49.7432C255.528 49.2829 255.751 48.8841 256.043 48.5469C256.335 48.2051 256.688 47.9408 257.103 47.7539C257.517 47.5625 257.982 47.4668 258.497 47.4668C259.017 47.4668 259.484 47.5625 259.898 47.7539C260.318 47.9408 260.673 48.2051 260.965 48.5469C261.261 48.8841 261.487 49.2829 261.642 49.7432C261.797 50.1989 261.874 50.6934 261.874 51.2266V51.3838C261.874 51.917 261.797 52.4115 261.642 52.8672C261.487 53.3229 261.261 53.7217 260.965 54.0635C260.673 54.4007 260.32 54.665 259.905 54.8564C259.495 55.0433 259.03 55.1367 258.511 55.1367C257.991 55.1367 257.524 55.0433 257.109 54.8564C256.695 54.665 256.339 54.4007 256.043 54.0635C255.751 53.7217 255.528 53.3229 255.373 52.8672C255.218 52.4115 255.141 51.917 255.141 51.3838ZM256.405 51.2266V51.3838C256.405 51.7529 256.449 52.1016 256.535 52.4297C256.622 52.7533 256.752 53.0404 256.925 53.291C257.103 53.5417 257.324 53.7399 257.588 53.8857C257.852 54.027 258.16 54.0977 258.511 54.0977C258.857 54.0977 259.16 54.027 259.42 53.8857C259.684 53.7399 259.903 53.5417 260.076 53.291C260.249 53.0404 260.379 52.7533 260.466 52.4297C260.557 52.1016 260.603 51.7529 260.603 51.3838V51.2266C260.603 50.862 260.557 50.5179 260.466 50.1943C260.379 49.8662 260.247 49.5768 260.069 49.3262C259.896 49.071 259.677 48.8704 259.413 48.7246C259.153 48.5788 258.848 48.5059 258.497 48.5059C258.151 48.5059 257.845 48.5788 257.581 48.7246C257.321 48.8704 257.103 49.071 256.925 49.3262C256.752 49.5768 256.622 49.8662 256.535 50.1943C256.449 50.5179 256.405 50.862 256.405 51.2266ZM269.539 45.0469V55H268.22V45.0469H269.539ZM273.512 49.1826V55H272.247V47.6035H273.443L273.512 49.1826ZM273.211 51.0215L272.685 51.001C272.689 50.4951 272.764 50.028 272.91 49.5996C273.056 49.1667 273.261 48.7907 273.525 48.4717C273.79 48.1527 274.104 47.9066 274.469 47.7334C274.838 47.5557 275.246 47.4668 275.692 47.4668C276.057 47.4668 276.385 47.5169 276.677 47.6172C276.968 47.7129 277.217 47.8678 277.422 48.082C277.632 48.2962 277.791 48.5742 277.9 48.916C278.01 49.2533 278.064 49.6657 278.064 50.1533V55H276.793V50.1396C276.793 49.7523 276.736 49.4424 276.622 49.21C276.508 48.973 276.342 48.8021 276.123 48.6973C275.904 48.5879 275.635 48.5332 275.316 48.5332C275.002 48.5332 274.715 48.5993 274.455 48.7314C274.2 48.8636 273.979 49.0459 273.792 49.2783C273.61 49.5107 273.466 49.7773 273.361 50.0781C273.261 50.3743 273.211 50.6888 273.211 51.0215ZM282.372 55H281.107V46.8242C281.107 46.291 281.203 45.8421 281.395 45.4775C281.59 45.1084 281.871 44.8304 282.235 44.6436C282.6 44.4521 283.033 44.3564 283.534 44.3564C283.68 44.3564 283.826 44.3656 283.972 44.3838C284.122 44.402 284.268 44.4294 284.409 44.4658L284.341 45.498C284.245 45.4753 284.136 45.4593 284.013 45.4502C283.894 45.4411 283.776 45.4365 283.657 45.4365C283.388 45.4365 283.156 45.4912 282.96 45.6006C282.769 45.7054 282.623 45.8604 282.522 46.0654C282.422 46.2705 282.372 46.5234 282.372 46.8242V55ZM283.944 47.6035V48.5742H279.938V47.6035H283.944ZM285.518 51.3838V51.2266C285.518 50.6934 285.595 50.1989 285.75 49.7432C285.905 49.2829 286.128 48.8841 286.42 48.5469C286.712 48.2051 287.065 47.9408 287.479 47.7539C287.894 47.5625 288.359 47.4668 288.874 47.4668C289.394 47.4668 289.861 47.5625 290.275 47.7539C290.695 47.9408 291.05 48.2051 291.342 48.5469C291.638 48.8841 291.864 49.2829 292.019 49.7432C292.174 50.1989 292.251 50.6934 292.251 51.2266V51.3838C292.251 51.917 292.174 52.4115 292.019 52.8672C291.864 53.3229 291.638 53.7217 291.342 54.0635C291.05 54.4007 290.697 54.665 290.282 54.8564C289.872 55.0433 289.407 55.1367 288.888 55.1367C288.368 55.1367 287.901 55.0433 287.486 54.8564C287.072 54.665 286.716 54.4007 286.42 54.0635C286.128 53.7217 285.905 53.3229 285.75 52.8672C285.595 52.4115 285.518 51.917 285.518 51.3838ZM286.782 51.2266V51.3838C286.782 51.7529 286.826 52.1016 286.912 52.4297C286.999 52.7533 287.129 53.0404 287.302 53.291C287.479 53.5417 287.701 53.7399 287.965 53.8857C288.229 54.027 288.537 54.0977 288.888 54.0977C289.234 54.0977 289.537 54.027 289.797 53.8857C290.061 53.7399 290.28 53.5417 290.453 53.291C290.626 53.0404 290.756 52.7533 290.843 52.4297C290.934 52.1016 290.979 51.7529 290.979 51.3838V51.2266C290.979 50.862 290.934 50.5179 290.843 50.1943C290.756 49.8662 290.624 49.5768 290.446 49.3262C290.273 49.071 290.054 48.8704 289.79 48.7246C289.53 48.5788 289.225 48.5059 288.874 48.5059C288.528 48.5059 288.222 48.5788 287.958 48.7246C287.698 48.8704 287.479 49.071 287.302 49.3262C287.129 49.5768 286.999 49.8662 286.912 50.1943C286.826 50.5179 286.782 50.862 286.782 51.2266Z"
      fill="#191C1D" />
    <path
      d="M359.164 51.835H360.477C360.408 52.4639 360.228 53.0267 359.937 53.5234C359.645 54.0202 359.232 54.4144 358.699 54.7061C358.166 54.9932 357.501 55.1367 356.703 55.1367C356.12 55.1367 355.589 55.0273 355.11 54.8086C354.636 54.5898 354.229 54.2799 353.887 53.8789C353.545 53.4733 353.281 52.988 353.094 52.4229C352.911 51.8532 352.82 51.2197 352.82 50.5225V49.5312C352.82 48.834 352.911 48.2028 353.094 47.6377C353.281 47.068 353.547 46.5804 353.894 46.1748C354.244 45.7692 354.666 45.457 355.158 45.2383C355.65 45.0195 356.204 44.9102 356.819 44.9102C357.571 44.9102 358.207 45.0514 358.727 45.334C359.246 45.6165 359.649 46.0085 359.937 46.5098C360.228 47.0065 360.408 47.583 360.477 48.2393H359.164C359.1 47.7744 358.982 47.3757 358.809 47.043C358.635 46.7057 358.389 46.446 358.07 46.2637C357.751 46.0814 357.334 45.9902 356.819 45.9902C356.377 45.9902 355.988 46.0745 355.65 46.2432C355.318 46.4118 355.037 46.651 354.81 46.9609C354.586 47.2708 354.418 47.6423 354.304 48.0752C354.19 48.5081 354.133 48.9889 354.133 49.5176V50.5225C354.133 51.0101 354.183 51.4681 354.283 51.8965C354.388 52.3249 354.545 52.7008 354.755 53.0244C354.965 53.348 355.231 53.6032 355.555 53.79C355.878 53.9723 356.261 54.0635 356.703 54.0635C357.264 54.0635 357.71 53.9746 358.043 53.7969C358.376 53.6191 358.626 53.3639 358.795 53.0312C358.968 52.6986 359.091 52.2998 359.164 51.835ZM362.248 51.3838V51.2266C362.248 50.6934 362.326 50.1989 362.48 49.7432C362.635 49.2829 362.859 48.8841 363.15 48.5469C363.442 48.2051 363.795 47.9408 364.21 47.7539C364.625 47.5625 365.09 47.4668 365.604 47.4668C366.124 47.4668 366.591 47.5625 367.006 47.7539C367.425 47.9408 367.781 48.2051 368.072 48.5469C368.368 48.8841 368.594 49.2829 368.749 49.7432C368.904 50.1989 368.981 50.6934 368.981 51.2266V51.3838C368.981 51.917 368.904 52.4115 368.749 52.8672C368.594 53.3229 368.368 53.7217 368.072 54.0635C367.781 54.4007 367.427 54.665 367.013 54.8564C366.603 55.0433 366.138 55.1367 365.618 55.1367C365.099 55.1367 364.632 55.0433 364.217 54.8564C363.802 54.665 363.447 54.4007 363.15 54.0635C362.859 53.7217 362.635 53.3229 362.48 52.8672C362.326 52.4115 362.248 51.917 362.248 51.3838ZM363.513 51.2266V51.3838C363.513 51.7529 363.556 52.1016 363.643 52.4297C363.729 52.7533 363.859 53.0404 364.032 53.291C364.21 53.5417 364.431 53.7399 364.695 53.8857C364.96 54.027 365.267 54.0977 365.618 54.0977C365.965 54.0977 366.268 54.027 366.527 53.8857C366.792 53.7399 367.01 53.5417 367.184 53.291C367.357 53.0404 367.487 52.7533 367.573 52.4297C367.664 52.1016 367.71 51.7529 367.71 51.3838V51.2266C367.71 50.862 367.664 50.5179 367.573 50.1943C367.487 49.8662 367.354 49.5768 367.177 49.3262C367.004 49.071 366.785 48.8704 366.521 48.7246C366.261 48.5788 365.955 48.5059 365.604 48.5059C365.258 48.5059 364.953 48.5788 364.688 48.7246C364.429 48.8704 364.21 49.071 364.032 49.3262C363.859 49.5768 363.729 49.8662 363.643 50.1943C363.556 50.5179 363.513 50.862 363.513 51.2266ZM372.332 49.1826V55H371.067V47.6035H372.264L372.332 49.1826ZM372.031 51.0215L371.505 51.001C371.509 50.4951 371.585 50.028 371.73 49.5996C371.876 49.1667 372.081 48.7907 372.346 48.4717C372.61 48.1527 372.924 47.9066 373.289 47.7334C373.658 47.5557 374.066 47.4668 374.513 47.4668C374.877 47.4668 375.205 47.5169 375.497 47.6172C375.789 47.7129 376.037 47.8678 376.242 48.082C376.452 48.2962 376.611 48.5742 376.721 48.916C376.83 49.2533 376.885 49.6657 376.885 50.1533V55H375.613V50.1396C375.613 49.7523 375.556 49.4424 375.442 49.21C375.328 48.973 375.162 48.8021 374.943 48.6973C374.725 48.5879 374.456 48.5332 374.137 48.5332C373.822 48.5332 373.535 48.5993 373.275 48.7314C373.02 48.8636 372.799 49.0459 372.612 49.2783C372.43 49.5107 372.286 49.7773 372.182 50.0781C372.081 50.3743 372.031 50.6888 372.031 51.0215ZM382.402 47.6035V48.5742H378.403V47.6035H382.402ZM379.757 45.8057H381.021V53.168C381.021 53.4186 381.06 53.6077 381.138 53.7354C381.215 53.863 381.315 53.9473 381.438 53.9883C381.562 54.0293 381.694 54.0498 381.835 54.0498C381.94 54.0498 382.049 54.0407 382.163 54.0225C382.282 53.9997 382.37 53.9814 382.43 53.9678L382.437 55C382.336 55.0319 382.204 55.0615 382.04 55.0889C381.881 55.1208 381.687 55.1367 381.459 55.1367C381.149 55.1367 380.864 55.0752 380.604 54.9521C380.345 54.8291 380.137 54.624 379.982 54.3369C379.832 54.0452 379.757 53.6533 379.757 53.1611V45.8057ZM388.747 53.7354V49.9277C388.747 49.6361 388.688 49.3831 388.569 49.1689C388.455 48.9502 388.282 48.7816 388.05 48.6631C387.817 48.5446 387.53 48.4854 387.188 48.4854C386.869 48.4854 386.589 48.54 386.348 48.6494C386.111 48.7588 385.924 48.9023 385.787 49.0801C385.655 49.2578 385.589 49.4492 385.589 49.6543H384.324C384.324 49.39 384.393 49.1279 384.529 48.8682C384.666 48.6084 384.862 48.3737 385.117 48.1641C385.377 47.9499 385.687 47.7812 386.047 47.6582C386.411 47.5306 386.817 47.4668 387.264 47.4668C387.801 47.4668 388.275 47.5579 388.686 47.7402C389.1 47.9225 389.424 48.1982 389.656 48.5674C389.893 48.932 390.012 49.39 390.012 49.9414V53.3867C390.012 53.6328 390.032 53.8949 390.073 54.1729C390.119 54.4508 390.185 54.6901 390.271 54.8906V55H388.952C388.888 54.8542 388.838 54.6605 388.802 54.4189C388.765 54.1729 388.747 53.945 388.747 53.7354ZM388.966 50.5156L388.979 51.4043H387.701C387.341 51.4043 387.02 51.4339 386.737 51.4932C386.455 51.5479 386.218 51.6322 386.026 51.7461C385.835 51.86 385.689 52.0036 385.589 52.1768C385.489 52.3454 385.438 52.5436 385.438 52.7715C385.438 53.0039 385.491 53.2158 385.596 53.4072C385.701 53.5986 385.858 53.7513 386.067 53.8652C386.282 53.9746 386.544 54.0293 386.854 54.0293C387.241 54.0293 387.583 53.9473 387.879 53.7832C388.175 53.6191 388.41 53.4186 388.583 53.1816C388.761 52.9447 388.856 52.7145 388.87 52.4912L389.41 53.0996C389.378 53.291 389.292 53.5029 389.15 53.7354C389.009 53.9678 388.82 54.1911 388.583 54.4053C388.351 54.6149 388.073 54.7904 387.749 54.9316C387.43 55.0684 387.07 55.1367 386.669 55.1367C386.168 55.1367 385.728 55.0387 385.35 54.8428C384.976 54.6468 384.684 54.3848 384.475 54.0566C384.27 53.724 384.167 53.3525 384.167 52.9424C384.167 52.5459 384.244 52.1973 384.399 51.8965C384.554 51.5911 384.778 51.3382 385.069 51.1377C385.361 50.9326 385.712 50.7777 386.122 50.6729C386.532 50.568 386.99 50.5156 387.496 50.5156H388.966ZM395.461 54.0977C395.762 54.0977 396.04 54.0361 396.295 53.9131C396.55 53.79 396.76 53.6214 396.924 53.4072C397.088 53.1885 397.181 52.9401 397.204 52.6621H398.407C398.384 53.0996 398.236 53.5075 397.963 53.8857C397.694 54.2594 397.341 54.5625 396.903 54.7949C396.466 55.0228 395.985 55.1367 395.461 55.1367C394.905 55.1367 394.42 55.0387 394.005 54.8428C393.595 54.6468 393.253 54.3779 392.979 54.0361C392.711 53.6943 392.508 53.3024 392.371 52.8604C392.239 52.4137 392.173 51.9421 392.173 51.4453V51.1582C392.173 50.6615 392.239 50.1921 392.371 49.75C392.508 49.3034 392.711 48.9092 392.979 48.5674C393.253 48.2256 393.595 47.9567 394.005 47.7607C394.42 47.5648 394.905 47.4668 395.461 47.4668C396.04 47.4668 396.546 47.5853 396.979 47.8223C397.411 48.0547 397.751 48.3737 397.997 48.7793C398.248 49.1803 398.384 49.6361 398.407 50.1465H397.204C397.181 49.8411 397.095 49.5654 396.944 49.3193C396.799 49.0732 396.598 48.8773 396.343 48.7314C396.092 48.5811 395.798 48.5059 395.461 48.5059C395.074 48.5059 394.748 48.5833 394.483 48.7383C394.224 48.8887 394.016 49.0938 393.861 49.3535C393.711 49.6087 393.602 49.8936 393.533 50.208C393.469 50.5179 393.438 50.8346 393.438 51.1582V51.4453C393.438 51.7689 393.469 52.0879 393.533 52.4023C393.597 52.7168 393.704 53.0016 393.854 53.2568C394.009 53.512 394.217 53.7171 394.477 53.8721C394.741 54.0225 395.069 54.0977 395.461 54.0977ZM403.426 47.6035V48.5742H399.427V47.6035H403.426ZM400.78 45.8057H402.045V53.168C402.045 53.4186 402.084 53.6077 402.161 53.7354C402.239 53.863 402.339 53.9473 402.462 53.9883C402.585 54.0293 402.717 54.0498 402.858 54.0498C402.963 54.0498 403.073 54.0407 403.187 54.0225C403.305 53.9997 403.394 53.9814 403.453 53.9678L403.46 55C403.36 55.0319 403.228 55.0615 403.063 55.0889C402.904 55.1208 402.71 55.1367 402.482 55.1367C402.173 55.1367 401.888 55.0752 401.628 54.9521C401.368 54.8291 401.161 54.624 401.006 54.3369C400.855 54.0452 400.78 53.6533 400.78 53.1611V45.8057ZM410.988 45.0469V55H409.669V45.0469H410.988ZM414.961 49.1826V55H413.696V47.6035H414.893L414.961 49.1826ZM414.66 51.0215L414.134 51.001C414.138 50.4951 414.214 50.028 414.359 49.5996C414.505 49.1667 414.71 48.7907 414.975 48.4717C415.239 48.1527 415.553 47.9066 415.918 47.7334C416.287 47.5557 416.695 47.4668 417.142 47.4668C417.506 47.4668 417.834 47.5169 418.126 47.6172C418.418 47.7129 418.666 47.8678 418.871 48.082C419.081 48.2962 419.24 48.5742 419.35 48.916C419.459 49.2533 419.514 49.6657 419.514 50.1533V55H418.242V50.1396C418.242 49.7523 418.185 49.4424 418.071 49.21C417.957 48.973 417.791 48.8021 417.572 48.6973C417.354 48.5879 417.085 48.5332 416.766 48.5332C416.451 48.5332 416.164 48.5993 415.904 48.7314C415.649 48.8636 415.428 49.0459 415.241 49.2783C415.059 49.5107 414.915 49.7773 414.811 50.0781C414.71 50.3743 414.66 50.6888 414.66 51.0215ZM423.821 55H422.557V46.8242C422.557 46.291 422.652 45.8421 422.844 45.4775C423.04 45.1084 423.32 44.8304 423.685 44.6436C424.049 44.4521 424.482 44.3564 424.983 44.3564C425.129 44.3564 425.275 44.3656 425.421 44.3838C425.571 44.402 425.717 44.4294 425.858 44.4658L425.79 45.498C425.694 45.4753 425.585 45.4593 425.462 45.4502C425.343 45.4411 425.225 45.4365 425.106 45.4365C424.838 45.4365 424.605 45.4912 424.409 45.6006C424.218 45.7054 424.072 45.8604 423.972 46.0654C423.871 46.2705 423.821 46.5234 423.821 46.8242V55ZM425.394 47.6035V48.5742H421.388V47.6035H425.394ZM426.967 51.3838V51.2266C426.967 50.6934 427.044 50.1989 427.199 49.7432C427.354 49.2829 427.577 48.8841 427.869 48.5469C428.161 48.2051 428.514 47.9408 428.929 47.7539C429.343 47.5625 429.808 47.4668 430.323 47.4668C430.843 47.4668 431.31 47.5625 431.725 47.7539C432.144 47.9408 432.499 48.2051 432.791 48.5469C433.087 48.8841 433.313 49.2829 433.468 49.7432C433.623 50.1989 433.7 50.6934 433.7 51.2266V51.3838C433.7 51.917 433.623 52.4115 433.468 52.8672C433.313 53.3229 433.087 53.7217 432.791 54.0635C432.499 54.4007 432.146 54.665 431.731 54.8564C431.321 55.0433 430.856 55.1367 430.337 55.1367C429.817 55.1367 429.35 55.0433 428.936 54.8564C428.521 54.665 428.165 54.4007 427.869 54.0635C427.577 53.7217 427.354 53.3229 427.199 52.8672C427.044 52.4115 426.967 51.917 426.967 51.3838ZM428.231 51.2266V51.3838C428.231 51.7529 428.275 52.1016 428.361 52.4297C428.448 52.7533 428.578 53.0404 428.751 53.291C428.929 53.5417 429.15 53.7399 429.414 53.8857C429.678 54.027 429.986 54.0977 430.337 54.0977C430.683 54.0977 430.986 54.027 431.246 53.8857C431.51 53.7399 431.729 53.5417 431.902 53.291C432.076 53.0404 432.205 52.7533 432.292 52.4297C432.383 52.1016 432.429 51.7529 432.429 51.3838V51.2266C432.429 50.862 432.383 50.5179 432.292 50.1943C432.205 49.8662 432.073 49.5768 431.896 49.3262C431.722 49.071 431.504 48.8704 431.239 48.7246C430.979 48.5788 430.674 48.5059 430.323 48.5059C429.977 48.5059 429.672 48.5788 429.407 48.7246C429.147 48.8704 428.929 49.071 428.751 49.3262C428.578 49.5768 428.448 49.8662 428.361 50.1943C428.275 50.5179 428.231 50.862 428.231 51.2266Z"
      fill="#191C1D" />
    <path
      d="M488.84 45.9287L485.545 55H484.198L487.992 45.0469H488.86L488.84 45.9287ZM491.602 55L488.3 45.9287L488.279 45.0469H489.147L492.955 55H491.602ZM491.431 51.3154V52.3955H485.839V51.3154H491.431ZM499.259 53.5645V44.5H500.53V55H499.368L499.259 53.5645ZM494.282 51.3838V51.2402C494.282 50.6751 494.351 50.1624 494.487 49.7021C494.629 49.2373 494.827 48.8385 495.082 48.5059C495.342 48.1732 495.649 47.918 496.005 47.7402C496.365 47.5579 496.766 47.4668 497.208 47.4668C497.673 47.4668 498.078 47.5488 498.425 47.7129C498.776 47.8724 499.072 48.1071 499.313 48.417C499.56 48.7223 499.753 49.0915 499.895 49.5244C500.036 49.9574 500.134 50.4473 500.188 50.9941V51.623C500.138 52.1654 500.04 52.653 499.895 53.0859C499.753 53.5189 499.56 53.888 499.313 54.1934C499.072 54.4987 498.776 54.7334 498.425 54.8975C498.074 55.057 497.664 55.1367 497.194 55.1367C496.761 55.1367 496.365 55.0433 496.005 54.8564C495.649 54.6696 495.342 54.4076 495.082 54.0703C494.827 53.7331 494.629 53.3366 494.487 52.8809C494.351 52.4206 494.282 51.9215 494.282 51.3838ZM495.554 51.2402V51.3838C495.554 51.7529 495.59 52.0993 495.663 52.4229C495.741 52.7464 495.859 53.0312 496.019 53.2773C496.178 53.5234 496.381 53.7171 496.627 53.8584C496.873 53.9951 497.167 54.0635 497.509 54.0635C497.928 54.0635 498.272 53.9746 498.541 53.7969C498.814 53.6191 499.033 53.3844 499.197 53.0928C499.361 52.8011 499.489 52.4844 499.58 52.1426V50.4951C499.525 50.2445 499.446 50.0029 499.341 49.7705C499.241 49.5335 499.108 49.3239 498.944 49.1416C498.785 48.9548 498.587 48.8066 498.35 48.6973C498.117 48.5879 497.841 48.5332 497.522 48.5332C497.176 48.5332 496.878 48.6061 496.627 48.752C496.381 48.8932 496.178 49.0892 496.019 49.3398C495.859 49.5859 495.741 49.873 495.663 50.2012C495.59 50.5247 495.554 50.8711 495.554 51.2402ZM507.661 53.5645V44.5H508.933V55H507.771L507.661 53.5645ZM502.685 51.3838V51.2402C502.685 50.6751 502.753 50.1624 502.89 49.7021C503.031 49.2373 503.229 48.8385 503.484 48.5059C503.744 48.1732 504.052 47.918 504.407 47.7402C504.767 47.5579 505.168 47.4668 505.61 47.4668C506.075 47.4668 506.481 47.5488 506.827 47.7129C507.178 47.8724 507.474 48.1071 507.716 48.417C507.962 48.7223 508.156 49.0915 508.297 49.5244C508.438 49.9574 508.536 50.4473 508.591 50.9941V51.623C508.541 52.1654 508.443 52.653 508.297 53.0859C508.156 53.5189 507.962 53.888 507.716 54.1934C507.474 54.4987 507.178 54.7334 506.827 54.8975C506.476 55.057 506.066 55.1367 505.597 55.1367C505.164 55.1367 504.767 55.0433 504.407 54.8564C504.052 54.6696 503.744 54.4076 503.484 54.0703C503.229 53.7331 503.031 53.3366 502.89 52.8809C502.753 52.4206 502.685 51.9215 502.685 51.3838ZM503.956 51.2402V51.3838C503.956 51.7529 503.993 52.0993 504.065 52.4229C504.143 52.7464 504.261 53.0312 504.421 53.2773C504.58 53.5234 504.783 53.7171 505.029 53.8584C505.275 53.9951 505.569 54.0635 505.911 54.0635C506.33 54.0635 506.674 53.9746 506.943 53.7969C507.217 53.6191 507.436 53.3844 507.6 53.0928C507.764 52.8011 507.891 52.4844 507.982 52.1426V50.4951C507.928 50.2445 507.848 50.0029 507.743 49.7705C507.643 49.5335 507.511 49.3239 507.347 49.1416C507.187 48.9548 506.989 48.8066 506.752 48.6973C506.52 48.5879 506.244 48.5332 505.925 48.5332C505.578 48.5332 505.28 48.6061 505.029 48.752C504.783 48.8932 504.58 49.0892 504.421 49.3398C504.261 49.5859 504.143 49.873 504.065 50.2012C503.993 50.5247 503.956 50.8711 503.956 51.2402ZM521.26 45.0469H522.572V51.7803C522.572 52.5277 522.406 53.1497 522.073 53.6465C521.741 54.1432 521.299 54.5169 520.747 54.7676C520.2 55.0137 519.605 55.1367 518.963 55.1367C518.288 55.1367 517.678 55.0137 517.131 54.7676C516.589 54.5169 516.158 54.1432 515.839 53.6465C515.524 53.1497 515.367 52.5277 515.367 51.7803V45.0469H516.673V51.7803C516.673 52.2998 516.769 52.7282 516.96 53.0654C517.151 53.4027 517.418 53.6533 517.76 53.8174C518.106 53.9814 518.507 54.0635 518.963 54.0635C519.423 54.0635 519.824 53.9814 520.166 53.8174C520.512 53.6533 520.781 53.4027 520.973 53.0654C521.164 52.7282 521.26 52.2998 521.26 51.7803V45.0469ZM529.259 53.0381C529.259 52.8558 529.218 52.6872 529.136 52.5322C529.058 52.3727 528.896 52.2292 528.65 52.1016C528.409 51.9694 528.044 51.8555 527.557 51.7598C527.146 51.6732 526.775 51.5706 526.442 51.4521C526.114 51.3337 525.834 51.1901 525.602 51.0215C525.374 50.8529 525.198 50.6546 525.075 50.4268C524.952 50.1989 524.891 49.9323 524.891 49.627C524.891 49.3353 524.954 49.0596 525.082 48.7998C525.214 48.54 525.399 48.3099 525.636 48.1094C525.877 47.9089 526.167 47.7516 526.504 47.6377C526.841 47.5238 527.217 47.4668 527.632 47.4668C528.224 47.4668 528.73 47.5716 529.149 47.7812C529.569 47.9909 529.89 48.2712 530.113 48.6221C530.337 48.9684 530.448 49.3535 530.448 49.7773H529.184C529.184 49.5723 529.122 49.374 528.999 49.1826C528.881 48.9867 528.705 48.8249 528.473 48.6973C528.245 48.5697 527.965 48.5059 527.632 48.5059C527.281 48.5059 526.996 48.5605 526.777 48.6699C526.563 48.7747 526.406 48.9092 526.306 49.0732C526.21 49.2373 526.162 49.4105 526.162 49.5928C526.162 49.7295 526.185 49.8525 526.23 49.9619C526.281 50.0667 526.367 50.1647 526.49 50.2559C526.613 50.3424 526.786 50.4245 527.01 50.502C527.233 50.5794 527.518 50.6569 527.864 50.7344C528.47 50.8711 528.969 51.0352 529.361 51.2266C529.753 51.418 530.045 51.6527 530.236 51.9307C530.428 52.2087 530.523 52.5459 530.523 52.9424C530.523 53.266 530.455 53.5622 530.318 53.8311C530.186 54.0999 529.993 54.3324 529.737 54.5283C529.487 54.7197 529.186 54.8701 528.835 54.9795C528.489 55.0843 528.099 55.1367 527.666 55.1367C527.014 55.1367 526.463 55.0205 526.012 54.7881C525.561 54.5557 525.219 54.2549 524.986 53.8857C524.754 53.5166 524.638 53.127 524.638 52.7168H525.909C525.927 53.0632 526.028 53.3389 526.21 53.5439C526.392 53.7445 526.616 53.888 526.88 53.9746C527.144 54.0566 527.406 54.0977 527.666 54.0977C528.012 54.0977 528.302 54.0521 528.534 53.9609C528.771 53.8698 528.951 53.7445 529.074 53.585C529.197 53.4255 529.259 53.2432 529.259 53.0381ZM535.754 55.1367C535.239 55.1367 534.772 55.0501 534.353 54.877C533.938 54.6992 533.58 54.4508 533.279 54.1318C532.983 53.8128 532.755 53.4346 532.596 52.9971C532.436 52.5596 532.356 52.0811 532.356 51.5615V51.2744C532.356 50.6729 532.445 50.1374 532.623 49.668C532.801 49.194 533.042 48.793 533.348 48.4648C533.653 48.1367 533.999 47.8883 534.387 47.7197C534.774 47.5511 535.175 47.4668 535.59 47.4668C536.118 47.4668 536.574 47.5579 536.957 47.7402C537.344 47.9225 537.661 48.1777 537.907 48.5059C538.153 48.8294 538.336 49.2122 538.454 49.6543C538.573 50.0918 538.632 50.5703 538.632 51.0898V51.6572H533.108V50.625H537.367V50.5293C537.349 50.2012 537.281 49.8822 537.162 49.5723C537.048 49.2624 536.866 49.0072 536.615 48.8066C536.365 48.6061 536.023 48.5059 535.59 48.5059C535.303 48.5059 535.038 48.5674 534.797 48.6904C534.555 48.8089 534.348 48.9867 534.175 49.2236C534.002 49.4606 533.867 49.75 533.771 50.0918C533.676 50.4336 533.628 50.8278 533.628 51.2744V51.5615C533.628 51.9124 533.676 52.2428 533.771 52.5527C533.872 52.8581 534.015 53.127 534.202 53.3594C534.394 53.5918 534.624 53.7741 534.893 53.9062C535.166 54.0384 535.476 54.1045 535.822 54.1045C536.269 54.1045 536.647 54.0133 536.957 53.8311C537.267 53.6488 537.538 53.4049 537.771 53.0996L538.536 53.708C538.377 53.9495 538.174 54.1797 537.928 54.3984C537.682 54.6172 537.379 54.7949 537.019 54.9316C536.663 55.0684 536.242 55.1367 535.754 55.1367ZM541.873 48.7656V55H540.608V47.6035H541.839L541.873 48.7656ZM544.184 47.5625L544.177 48.7383C544.072 48.7155 543.972 48.7018 543.876 48.6973C543.785 48.6882 543.68 48.6836 543.562 48.6836C543.27 48.6836 543.012 48.7292 542.789 48.8203C542.566 48.9115 542.377 49.0391 542.222 49.2031C542.067 49.3672 541.944 49.5632 541.853 49.791C541.766 50.0143 541.709 50.2604 541.682 50.5293L541.326 50.7344C541.326 50.2878 541.369 49.8685 541.456 49.4766C541.547 49.0846 541.686 48.7383 541.873 48.4375C542.06 48.1322 542.297 47.8952 542.584 47.7266C542.876 47.5534 543.222 47.4668 543.623 47.4668C543.714 47.4668 543.819 47.4782 543.938 47.501C544.056 47.5192 544.138 47.5397 544.184 47.5625ZM550.159 53.0381C550.159 52.8558 550.118 52.6872 550.036 52.5322C549.959 52.3727 549.797 52.2292 549.551 52.1016C549.309 51.9694 548.945 51.8555 548.457 51.7598C548.047 51.6732 547.675 51.5706 547.343 51.4521C547.015 51.3337 546.734 51.1901 546.502 51.0215C546.274 50.8529 546.099 50.6546 545.976 50.4268C545.853 50.1989 545.791 49.9323 545.791 49.627C545.791 49.3353 545.855 49.0596 545.982 48.7998C546.115 48.54 546.299 48.3099 546.536 48.1094C546.778 47.9089 547.067 47.7516 547.404 47.6377C547.742 47.5238 548.118 47.4668 548.532 47.4668C549.125 47.4668 549.631 47.5716 550.05 47.7812C550.469 47.9909 550.79 48.2712 551.014 48.6221C551.237 48.9684 551.349 49.3535 551.349 49.7773H550.084C550.084 49.5723 550.022 49.374 549.899 49.1826C549.781 48.9867 549.605 48.8249 549.373 48.6973C549.145 48.5697 548.865 48.5059 548.532 48.5059C548.181 48.5059 547.896 48.5605 547.678 48.6699C547.464 48.7747 547.306 48.9092 547.206 49.0732C547.11 49.2373 547.062 49.4105 547.062 49.5928C547.062 49.7295 547.085 49.8525 547.131 49.9619C547.181 50.0667 547.268 50.1647 547.391 50.2559C547.514 50.3424 547.687 50.4245 547.91 50.502C548.133 50.5794 548.418 50.6569 548.765 50.7344C549.371 50.8711 549.87 51.0352 550.262 51.2266C550.654 51.418 550.945 51.6527 551.137 51.9307C551.328 52.2087 551.424 52.5459 551.424 52.9424C551.424 53.266 551.355 53.5622 551.219 53.8311C551.087 54.0999 550.893 54.3324 550.638 54.5283C550.387 54.7197 550.086 54.8701 549.735 54.9795C549.389 55.0843 548.999 55.1367 548.566 55.1367C547.915 55.1367 547.363 55.0205 546.912 54.7881C546.461 54.5557 546.119 54.2549 545.887 53.8857C545.654 53.5166 545.538 53.127 545.538 52.7168H546.81C546.828 53.0632 546.928 53.3389 547.11 53.5439C547.293 53.7445 547.516 53.888 547.78 53.9746C548.045 54.0566 548.307 54.0977 548.566 54.0977C548.913 54.0977 549.202 54.0521 549.435 53.9609C549.672 53.8698 549.852 53.7445 549.975 53.585C550.098 53.4255 550.159 53.2432 550.159 53.0381Z"
      fill="#191C1D" />
    <defs>
      <clipPath id="clip0_590_51620">
        <rect x="57" width="40" height="40" rx="20" fill="white" />
      </clipPath>
    </defs>
  </svg>